#VRML V2.0 utf8
# 3D model generated by easyeda2kicad.py (https://github.com/uPesy/easyeda2kicad.py)

Shape{
    appearance Appearance {
        material  Material 	{
            diffuseColor 1.0 1.0 1.0
            specularColor 0.5019607843137255 0.5019607843137255 0.5019607843137255
            ambientIntensity 0.2
            transparency 0
            shininess 0.5
        }
    }
    geometry IndexedFaceSet {
        ccw TRUE
        solid FALSE
        coord DEF co Coordinate {
            point [
                -0.3425 1.3583 -1.1811, -0.3425 1.3583 1.2008, -0.6575 1.3583 -1.1811, -0.6575 1.3583 1.2008, -0.5438 1.4719 -1.378, -0.5438 1.5596 -1.378, -0.4562 1.4719 -1.378, -0.4562 1.5596 -1.378, -0.6575 1.6732 -1.1811, -0.6575 1.6732 1.2008, -0.3425 1.6732 -1.1811, -0.3425 1.6732 1.2008, -0.6575 1.6626 1.3083, -0.3425 1.6626 1.3083, -0.6575 1.6313 1.4117, -0.3425 1.6313 1.4117, -0.6575 1.5803 1.507, -0.3425 1.5803 1.507, -0.6575 1.5118 1.5905, -0.3425 1.5118 1.5905, -0.6575 1.4283 1.6591, -0.3425 1.4283 1.6591, -0.6575 1.333 1.71, -0.3425 1.333 1.71, -0.6575 1.2296 1.7414, -0.3425 1.2296 1.7414, -0.6575 1.122 1.752, -0.3425 1.122 1.752, -0.3425 -1.3976 1.752, -0.6575 -1.3976 1.752, -0.5438 -1.5945 1.6383, -0.5438 -1.5945 1.5507, -0.4562 -1.5945 1.6383, -0.4562 -1.5945 1.5507, -0.6575 -1.3976 1.437, -0.6575 1.122 1.437, -0.3425 -1.3976 1.437, -0.3425 1.122 1.437, -0.3425 1.1832 1.429, -0.6575 1.1832 1.429, -0.3425 1.2402 1.4054, -0.6575 1.2402 1.4054, -0.3425 1.2891 1.3678, -0.6575 1.2891 1.3678, -0.3425 1.3266 1.3189, -0.6575 1.3266 1.3189, -0.3425 1.3502 1.2619, -0.6575 1.3502 1.2619, -1.3425 1.3583 -1.1811, -1.3425 1.3583 1.2008, -1.6575 1.3583 -1.1811, -1.6575 1.3583 1.2008, -1.5438 1.4719 -1.378, -1.5438 1.5596 -1.378, -1.4562 1.4719 -1.378, -1.4562 1.5596 -1.378, -1.6575 1.6732 -1.1811, -1.6575 1.6732 1.2008, -1.3425 1.6732 -1.1811, -1.3425 1.6732 1.2008, -1.6575 1.6626 1.3083, -1.3425 1.6626 1.3083, -1.6575 1.6313 1.4117, -1.3425 1.6313 1.4117, -1.6575 1.5803 1.507, -1.3425 1.5803 1.507, -1.6575 1.5118 1.5905, -1.3425 1.5118 1.5905, -1.6575 1.4283 1.6591, -1.3425 1.4283 1.6591, -1.6575 1.333 1.71, -1.3425 1.333 1.71, -1.6575 1.2296 1.7414, -1.3425 1.2296 1.7414, -1.6575 1.122 1.752, -1.3425 1.122 1.752, -1.3425 -1.3976 1.752, -1.6575 -1.3976 1.752, -1.5438 -1.5945 1.6383, -1.5438 -1.5945 1.5507, -1.4562 -1.5945 1.6383, -1.4562 -1.5945 1.5507, -1.6575 -1.3976 1.437, -1.6575 1.122 1.437, -1.3425 -1.3976 1.437, -1.3425 1.122 1.437, -1.3425 1.1832 1.429, -1.6575 1.1832 1.429, -1.3425 1.2402 1.4054, -1.6575 1.2402 1.4054, -1.3425 1.2891 1.3678, -1.6575 1.2891 1.3678, -1.3425 1.3266 1.3189, -1.6575 1.3266 1.3189, -1.3425 1.3502 1.2619, -1.6575 1.3502 1.2619, 0.6575 1.3583 -1.1811, 0.6575 1.3583 1.2008, 0.3425 1.3583 -1.1811, 0.3425 1.3583 1.2008, 0.4562 1.4719 -1.378, 0.4562 1.5596 -1.378, 0.5438 1.4719 -1.378, 0.5438 1.5596 -1.378, 0.3425 1.6732 -1.1811, 0.3425 1.6732 1.2008, 0.6575 1.6732 -1.1811, 0.6575 1.6732 1.2008, 0.3425 1.6626 1.3083, 0.6575 1.6626 1.3083, 0.3425 1.6313 1.4117, 0.6575 1.6313 1.4117, 0.3425 1.5803 1.507, 0.6575 1.5803 1.507, 0.3425 1.5118 1.5905, 0.6575 1.5118 1.5905, 0.3425 1.4283 1.6591, 0.6575 1.4283 1.6591, 0.3425 1.333 1.71, 0.6575 1.333 1.71, 0.3425 1.2296 1.7414, 0.6575 1.2296 1.7414, 0.3425 1.122 1.752, 0.6575 1.122 1.752, 0.6575 -1.3976 1.752, 0.3425 -1.3976 1.752, 0.4562 -1.5945 1.6383, 0.4562 -1.5945 1.5507, 0.5438 -1.5945 1.6383, 0.5438 -1.5945 1.5507, 0.3425 -1.3976 1.437, 0.3425 1.122 1.437, 0.6575 -1.3976 1.437, 0.6575 1.122 1.437, 0.6575 1.1832 1.429, 0.3425 1.1832 1.429, 0.6575 1.2402 1.4054, 0.3425 1.2402 1.4054, 0.6575 1.2891 1.3678, 0.3425 1.2891 1.3678, 0.6575 1.3266 1.3189, 0.3425 1.3266 1.3189, 0.6575 1.3502 1.2619, 0.3425 1.3502 1.2619, 1.6575 1.3583 -1.1811, 1.6575 1.3583 1.2008, 1.3425 1.3583 -1.1811, 1.3425 1.3583 1.2008, 1.4562 1.4719 -1.378, 1.4562 1.5596 -1.378, 1.5438 1.4719 -1.378, 1.5438 1.5596 -1.378, 1.3425 1.6732 -1.1811, 1.3425 1.6732 1.2008, 1.6575 1.6732 -1.1811, 1.6575 1.6732 1.2008, 1.3425 1.6626 1.3083, 1.6575 1.6626 1.3083, 1.3425 1.6313 1.4117, 1.6575 1.6313 1.4117, 1.3425 1.5803 1.507, 1.6575 1.5803 1.507, 1.3425 1.5118 1.5905, 1.6575 1.5118 1.5905, 1.3425 1.4283 1.6591, 1.6575 1.4283 1.6591, 1.3425 1.333 1.71, 1.6575 1.333 1.71, 1.3425 1.2296 1.7414, 1.6575 1.2296 1.7414, 1.3425 1.122 1.752, 1.6575 1.122 1.752, 1.6575 -1.3976 1.752, 1.3425 -1.3976 1.752, 1.4562 -1.5945 1.6383, 1.4562 -1.5945 1.5507, 1.5438 -1.5945 1.6383, 1.5438 -1.5945 1.5507, 1.3425 -1.3976 1.437, 1.3425 1.122 1.437, 1.6575 -1.3976 1.437, 1.6575 1.122 1.437, 1.6575 1.1832 1.429, 1.3425 1.1832 1.429, 1.6575 1.2402 1.4054, 1.3425 1.2402 1.4054, 1.6575 1.2891 1.3678, 1.3425 1.2891 1.3678, 1.6575 1.3266 1.3189, 1.3425 1.3266 1.3189, 1.6575 1.3502 1.2619, 1.3425 1.3502 1.2619, 1.3425 1.3502 1.2619
            ]
        }
        coordIndex [
            0,1,2,-1,2,1,3,-1,4,5,6,-1,6,5,7,-1,8,9,10,-1,10,9,11,-1,11,9,12,-1,11,12,13,-1,13,12,14,-1,13,14,15,-1,15,14,16,-1,15,16,17,-1,17,16,18,-1,17,18,19,-1,19,18,20,-1,19,20,21,-1,21,20,22,-1,21,22,23,-1,23,22,24,-1,23,24,25,-1,25,24,26,-1,25,26,27,-1,28,27,29,-1,29,27,26,-1,30,31,32,-1,32,31,33,-1,34,35,36,-1,36,35,37,-1,37,35,38,-1,38,35,39,-1,38,39,40,-1,40,39,41,-1,40,41,42,-1,42,41,43,-1,42,43,44,-1,44,43,45,-1,44,45,46,-1,46,45,47,-1,46,47,1,-1,1,47,3,-1,0,10,1,-1,1,10,11,-1,1,11,46,-1,11,13,46,-1,46,13,15,-1,46,15,44,-1,44,15,17,-1,44,17,42,-1,42,17,19,-1,42,19,40,-1,28,36,27,-1,27,36,37,-1,27,37,25,-1,25,37,38,-1,25,38,23,-1,23,38,40,-1,23,40,21,-1,21,40,19,-1,34,29,35,-1,35,29,26,-1,35,26,39,-1,26,24,39,-1,39,24,22,-1,39,22,41,-1,41,22,20,-1,41,20,43,-1,43,20,18,-1,43,18,45,-1,8,2,9,-1,9,2,3,-1,9,3,12,-1,12,3,47,-1,12,47,14,-1,14,47,45,-1,14,45,16,-1,16,45,18,-1,36,33,34,-1,34,33,31,-1,28,32,36,-1,36,32,33,-1,30,29,31,-1,31,29,34,-1,29,30,28,-1,28,30,32,-1,10,7,8,-1,8,7,5,-1,0,6,10,-1,10,6,7,-1,4,2,5,-1,5,2,8,-1,2,4,0,-1,0,4,6,-1,48,49,50,-1,50,49,51,-1,52,53,54,-1,54,53,55,-1,56,57,58,-1,58,57,59,-1,59,57,60,-1,59,60,61,-1,61,60,62,-1,61,62,63,-1,63,62,64,-1,63,64,65,-1,65,64,66,-1,65,66,67,-1,67,66,68,-1,67,68,69,-1,69,68,70,-1,69,70,71,-1,71,70,72,-1,71,72,73,-1,73,72,74,-1,73,74,75,-1,76,75,77,-1,77,75,74,-1,78,79,80,-1,80,79,81,-1,82,83,84,-1,84,83,85,-1,85,83,86,-1,86,83,87,-1,86,87,88,-1,88,87,89,-1,88,89,90,-1,90,89,91,-1,90,91,92,-1,92,91,93,-1,92,93,94,-1,94,93,95,-1,94,95,49,-1,49,95,51,-1,48,58,49,-1,49,58,59,-1,49,59,94,-1,59,61,94,-1,94,61,63,-1,94,63,92,-1,92,63,65,-1,92,65,90,-1,90,65,67,-1,90,67,88,-1,76,84,75,-1,75,84,85,-1,75,85,73,-1,73,85,86,-1,73,86,71,-1,71,86,88,-1,71,88,69,-1,69,88,67,-1,82,77,83,-1,83,77,74,-1,83,74,87,-1,74,72,87,-1,87,72,70,-1,87,70,89,-1,89,70,68,-1,89,68,91,-1,91,68,66,-1,91,66,93,-1,56,50,57,-1,57,50,51,-1,57,51,60,-1,60,51,95,-1,60,95,62,-1,62,95,93,-1,62,93,64,-1,64,93,66,-1,84,81,82,-1,82,81,79,-1,76,80,84,-1,84,80,81,-1,78,77,79,-1,79,77,82,-1,77,78,76,-1,76,78,80,-1,58,55,56,-1,56,55,53,-1,48,54,58,-1,58,54,55,-1,52,50,53,-1,53,50,56,-1,50,52,48,-1,48,52,54,-1,96,97,98,-1,98,97,99,-1,100,101,102,-1,102,101,103,-1,104,105,106,-1,106,105,107,-1,107,105,108,-1,107,108,109,-1,109,108,110,-1,109,110,111,-1,111,110,112,-1,111,112,113,-1,113,112,114,-1,113,114,115,-1,115,114,116,-1,115,116,117,-1,117,116,118,-1,117,118,119,-1,119,118,120,-1,119,120,121,-1,121,120,122,-1,121,122,123,-1,124,123,125,-1,125,123,122,-1,126,127,128,-1,128,127,129,-1,130,131,132,-1,132,131,133,-1,133,131,134,-1,134,131,135,-1,134,135,136,-1,136,135,137,-1,136,137,138,-1,138,137,139,-1,138,139,140,-1,140,139,141,-1,140,141,142,-1,142,141,143,-1,142,143,97,-1,97,143,99,-1,96,106,97,-1,97,106,107,-1,97,107,142,-1,107,109,142,-1,142,109,111,-1,142,111,140,-1,140,111,113,-1,140,113,138,-1,138,113,115,-1,138,115,136,-1,124,132,123,-1,123,132,133,-1,123,133,121,-1,121,133,134,-1,121,134,119,-1,119,134,136,-1,119,136,117,-1,117,136,115,-1,130,125,131,-1,131,125,122,-1,131,122,135,-1,122,120,135,-1,135,120,118,-1,135,118,137,-1,137,118,116,-1,137,116,139,-1,139,116,114,-1,139,114,141,-1,104,98,105,-1,105,98,99,-1,105,99,108,-1,108,99,143,-1,108,143,110,-1,110,143,141,-1,110,141,112,-1,112,141,114,-1,132,129,130,-1,130,129,127,-1,124,128,132,-1,132,128,129,-1,126,125,127,-1,127,125,130,-1,125,126,124,-1,124,126,128,-1,106,103,104,-1,104,103,101,-1,96,102,106,-1,106,102,103,-1,100,98,101,-1,101,98,104,-1,98,100,96,-1,96,100,102,-1,144,145,146,-1,146,145,147,-1,148,149,150,-1,150,149,151,-1,152,153,154,-1,154,153,155,-1,155,153,156,-1,155,156,157,-1,157,156,158,-1,157,158,159,-1,159,158,160,-1,159,160,161,-1,161,160,162,-1,161,162,163,-1,163,162,164,-1,163,164,165,-1,165,164,166,-1,165,166,167,-1,167,166,168,-1,167,168,169,-1,169,168,170,-1,169,170,171,-1,172,171,173,-1,173,171,170,-1,174,175,176,-1,176,175,177,-1,178,179,180,-1,180,179,181,-1,181,179,182,-1,182,179,183,-1,182,183,184,-1,184,183,185,-1,184,185,186,-1,186,185,187,-1,186,187,188,-1,188,187,189,-1,188,189,190,-1,190,189,191,-1,190,191,145,-1,145,191,147,-1,144,154,145,-1,145,154,155,-1,145,155,190,-1,155,157,190,-1,190,157,159,-1,190,159,188,-1,188,159,161,-1,188,161,186,-1,186,161,163,-1,186,163,184,-1,172,180,171,-1,171,180,181,-1,171,181,169,-1,169,181,182,-1,169,182,167,-1,167,182,184,-1,167,184,165,-1,165,184,163,-1,178,173,179,-1,179,173,170,-1,179,170,183,-1,170,168,183,-1,183,168,166,-1,183,166,185,-1,185,166,164,-1,185,164,187,-1,187,164,162,-1,187,162,189,-1,152,146,153,-1,153,146,147,-1,153,147,156,-1,156,147,191,-1,156,191,158,-1,158,191,189,-1,158,189,160,-1,160,189,162,-1,180,177,178,-1,178,177,175,-1,172,176,180,-1,180,176,177,-1,174,173,175,-1,175,173,178,-1,173,174,172,-1,172,174,176,-1,154,151,152,-1,152,151,149,-1,144,150,154,-1,154,150,151,-1,148,146,149,-1,149,146,152,-1,146,148,144,-1,144,148,150,-1,
        ]
    }
}
Shape{
    appearance Appearance {
        material  Material 	{
            diffuseColor 0.7529411764705882 1.0 0.7529411764705882
            specularColor 0.3764705882352941 0.5019607843137255 0.3764705882352941
            ambientIntensity 0.2
            transparency 0
            shininess 0.5
        }
    }
    geometry IndexedFaceSet {
        ccw TRUE
        solid FALSE
        coord DEF co Coordinate {
            point [
                -1.8937 1.9882 2.6378, 0.8937 1.9882 2.4016, 0.1063 1.9882 2.4016, 0.1063 1.9882 2.9528, 0.1063 1.9882 2.6378, -0.1063 1.9882 2.6378, 1.1063 1.9882 0.0, 0.8937 1.9882 0.0, 1.1063 1.9882 2.4016, -1.1063 1.9882 2.9528, -0.8937 1.9882 2.9528, -1.1063 1.9882 2.6378, -0.8937 1.9882 2.6378, 0.1063 1.9882 0.0, -0.1063 1.9882 0.0, -0.1063 1.9882 2.4016, -0.8937 1.9882 2.4016, 1.8937 1.9882 2.4016, 0.8937 1.9882 2.6378, 2.3661 1.9882 3.189, 2.3661 1.9882 2.4803, 2.1693 1.9882 2.4803, 1.1063 1.9882 2.9528, 1.8937 1.9882 2.9528, 1.8937 1.9882 2.6378, 1.1063 1.9882 2.6378, -0.8937 1.9882 0.0, -1.1063 1.9882 0.0, -1.1063 1.9882 2.4016, -1.8937 1.9882 2.4016, -2.3661 1.9882 3.189, -0.1063 1.9882 2.9528, -1.8937 1.9882 2.9528, 0.8937 1.9882 2.9528, 1.8937 1.9882 0.0, 2.1693 1.9882 0.4331, 2.3661 1.9882 0.0, 2.3661 1.9882 0.4331, -2.3661 1.9882 0.0, -2.3661 1.9882 0.4331, -1.8937 1.9882 0.0, -2.1693 1.9882 0.4331, -2.1693 1.9882 2.4803, -2.3661 1.9882 2.4803, -2.3661 1.5694 2.4803, -2.3661 1.5694 0.4331, -2.3661 -1.9882 0.0, -2.3661 -1.9882 3.189, -0.8937 0.1378 0.6299, -0.9094 0.1378 0.6299, -0.9094 -1.9739 0.6299, 0.9094 -1.9739 0.6299, 0.9094 0.1378 0.6299, 0.8937 0.1378 0.6299, -0.1063 0.1378 0.6299, -0.1063 0.374 0.6299, -0.8937 0.374 0.6299, 0.1063 0.1378 0.6299, 0.1063 0.374 0.6299, 0.8937 0.374 0.6299, 1.5 -1.9739 0.6299, 1.8937 -1.9739 0.6299, 1.5 0.1378 0.6299, 1.8937 0.374 0.6299, 1.1063 0.1378 0.6299, 1.1063 0.374 0.6299, -0.1063 0.374 2.4803, -0.1063 0.1378 2.4803, -0.8937 0.374 2.4803, -0.8937 0.1378 2.4803, 1.1063 0.374 2.4803, 1.1063 0.1378 2.4803, 0.8937 0.374 2.4803, 0.8937 0.1378 2.4803, 0.1063 0.374 2.4803, 0.1063 0.1378 2.4803, -1.1063 0.374 2.4803, -1.1063 0.374 0.6299, -1.1063 0.1378 2.4803, -1.1063 0.1378 0.6299, -0.095 -1.9882 0.0, -2.3661 -0.0958 0.0, -0.1063 1.0039 0.0, -0.095 1.9882 0.0, -0.071 0.1022 0.0, -0.071 0.0806 0.0, -0.0758 -0.073 0.0, -0.095 -0.0958 0.0, -0.0758 -0.0946 0.0, 0.0298 -0.0946 0.0, 0.1063 1.0039 0.0, 0.0682 -0.0844 0.0, 0.0682 -0.0628 0.0, 0.0298 0.1022 0.0, 0.0892 -0.093 0.0, 0.1091 -0.0958 0.0, 0.0034 -0.0058 0.0, 0.0034 -0.073 0.0, -0.0662 -0.0058 0.0, -0.0662 0.0158 0.0, 0.0034 0.0158 0.0, 0.0034 0.0806 0.0, 1.8937 1.0039 0.0, 2.3661 -0.0958 0.0, 1.1063 1.0039 0.0, 0.8937 1.0039 0.0, 0.1337 0.0809 0.0, 0.1484 0.0755 0.0, 0.0718 -0.0647 0.0, 0.1621 0.0664 0.0, 0.174 0.0533 0.0, 0.1883 0.0017 0.0, 0.1863 -0.0196 0.0, 0.1809 -0.0365 0.0, 0.1371 -0.0733 0.0, 0.1188 -0.0754 0.0, 0.1515 -0.0681 0.0, 0.1635 -0.0599 0.0, 0.1728 -0.0502 0.0, 0.0926 -0.0725 0.0, 0.1657 -0.0879 0.0, 0.2315 -0.0946 0.0, 0.1466 -0.0945 0.0, 0.134 -0.0958 0.0, 0.3323 -0.0946 0.0, 0.3323 0.1022 0.0, 0.3059 0.1022 0.0, 0.1821 0.0381 0.0, 0.1873 0.017 0.0, 0.175 0.0859 0.0, 0.1927 0.0688 0.0, 0.2043 0.0504 0.0, 0.1816 -0.0778 0.0, 0.1963 -0.0622 0.0, 0.2315 -0.073 0.0, 0.2068 -0.0435 0.0, 0.3059 -0.073 0.0, 0.2128 -0.0227 0.0, 0.2147 0.0001 0.0, 0.2118 0.0281 0.0, 0.1563 0.0967 0.0, 0.1343 0.103 0.0, 0.1146 0.1046 0.0, 0.091 0.103 0.0, 0.0682 0.0968 0.0, 0.0682 0.0704 0.0, 0.0904 0.0799 0.0, 0.1143 0.083 0.0, -0.1677 -0.0946 0.0, -0.1142 -0.0946 0.0, -0.1142 0.1022 0.0, -0.4647 -0.0946 0.0, -0.4359 -0.0946 0.0, -0.2871 -0.0946 0.0, -0.2628 -0.0406 0.0, -0.2515 -0.0583 0.0, -0.2353 -0.0738 0.0, -0.2148 -0.0857 0.0, -0.1921 -0.0925 0.0, -1.1063 1.0039 0.0, -0.8937 1.0039 0.0, -1.8937 1.0039 0.0, -0.3159 -0.0946 0.0, -0.3347 -0.0394 0.0, -0.416 -0.0394 0.0, -0.1982 0.0992 0.0, -0.2212 0.0911 0.0, -0.3615 0.1022 0.0, -0.2427 0.0768 0.0, -0.2429 0.0766 0.0, -0.2568 0.0611 0.0, -0.2659 0.0442 0.0, -0.1698 0.1022 0.0, -0.2712 0.0248 0.0, -0.2727 0.0063 0.0, -0.2699 -0.02 0.0, 0.117 -0.0969 0.0, 2.3661 -1.9882 0.0, 0.1224 -0.097 0.0, -0.3879 0.1022 0.0, 0.6772 1.9094 0.0394, 0.8937 1.9094 0.0394, 0.6772 1.122 0.0394, 0.8937 1.0039 0.0394, 0.3228 1.122 0.0394, 0.1063 1.0039 0.0394, 0.3228 1.9094 0.0394, 0.1063 1.9094 0.0394, 1.6772 1.9094 0.0394, 1.8937 1.9094 0.0394, 1.6772 1.122 0.0394, 1.8937 1.0039 0.0394, 1.3228 1.122 0.0394, 1.1063 1.0039 0.0394, 1.3228 1.9094 0.0394, 1.1063 1.9094 0.0394, -1.3228 1.9094 0.0394, -1.1063 1.9094 0.0394, -1.3228 1.122 0.0394, -1.1063 1.0039 0.0394, -1.6772 1.122 0.0394, -1.8937 1.0039 0.0394, -1.6772 1.9094 0.0394, -1.8937 1.9094 0.0394, -0.3228 1.9094 0.0394, -0.1063 1.9094 0.0394, -0.3228 1.122 0.0394, -0.1063 1.0039 0.0394, -0.6772 1.122 0.0394, -0.8937 1.0039 0.0394, -0.6772 1.9094 0.0394, -0.8937 1.9094 0.0394, -0.3031 0.374 2.6772, -0.1907 0.374 2.6772, -0.1063 0.374 2.9921, -0.3031 0.374 2.4803, -0.6969 0.374 2.6772, -0.8093 0.374 2.6772, -0.8937 0.374 2.9921, -0.6575 0.374 1.3217, -0.7227 0.374 1.3718, -0.7728 0.374 1.437, -0.1958 0.374 1.513, -0.2272 0.374 1.437, -0.2773 0.374 1.3718, -0.3425 0.374 1.3217, -0.4185 0.374 1.2903, -0.5 0.374 1.2795, -0.5815 0.374 1.2903, -0.185 0.374 1.5945, -0.1958 0.374 1.676, -0.2272 0.374 1.752, -0.6969 0.374 2.4803, -0.5 0.374 1.9094, -0.4185 0.374 1.8987, -0.8042 0.374 1.513, -0.815 0.374 1.5945, -0.8042 0.374 1.676, -0.7728 0.374 1.752, -0.7227 0.374 1.8172, -0.6575 0.374 1.8673, -0.5815 0.374 1.8987, -0.3425 0.374 1.8673, -0.2773 0.374 1.8172, 2.3661 1.5694 0.4331, 2.3661 1.5694 2.4803, 2.3661 -1.9882 3.189, 1.8937 -1.9882 0.5906, 1.5394 -1.9882 0.5906, 1.5394 -1.9882 0.2756, -1.8093 -1.9882 2.6772, -1.8937 -1.9882 2.9921, -1.1063 -1.9882 2.9921, 1.8937 -1.9882 2.4803, 0.8701 -1.9882 0.5906, -0.8701 -1.9882 0.5906, 0.8701 -1.9882 0.2756, -0.8701 -1.9882 0.2756, -0.6969 -1.9882 2.4803, -0.6969 -1.9882 2.6772, -1.3031 -1.9882 2.4803, -0.8093 -1.9882 2.6772, -1.5394 -1.9882 0.2756, -1.3031 -1.9882 2.6772, -1.1907 -1.9882 2.6772, -0.8937 -1.9882 2.9921, -0.1063 -1.9882 2.9921, 0.3031 -1.9882 2.4803, 0.3031 -1.9882 2.6772, -0.3031 -1.9882 2.4803, 0.1907 -1.9882 2.6772, 1.3031 -1.9882 2.4803, 1.3031 -1.9882 2.6772, 0.6969 -1.9882 2.4803, 1.1907 -1.9882 2.6772, -0.3031 -1.9882 2.6772, -0.1907 -1.9882 2.6772, 0.1063 -1.9882 2.9921, 0.8937 -1.9882 2.9921, 0.6969 -1.9882 2.6772, 0.8093 -1.9882 2.6772, 1.1063 -1.9882 2.9921, 1.8937 -1.9882 2.9921, 1.8093 -1.9882 2.6772, 1.6969 -1.9882 2.4803, 1.6969 -1.9882 2.6772, -1.8937 -1.9882 2.4803, -1.6969 -1.9882 2.4803, -1.6969 -1.9882 2.6772, -1.8937 -1.9882 0.5906, -1.5394 -1.9882 0.5906, -1.5 0.1378 0.6299, -1.8937 0.374 0.6299, -1.5 -1.9739 0.6299, -1.8937 -1.9739 0.6299, -1.3031 0.374 2.4803, 0.3031 0.374 2.4803, -0.8937 1.9094 2.4016, -0.1063 1.9094 2.4016, -0.3228 1.9094 1.6535, -0.6772 1.9094 1.6535, -0.1063 1.9094 2.6378, -0.1063 1.9094 2.9528, -0.8937 1.9094 2.9528, -0.8937 1.9094 2.6378, -0.6772 1.122 1.6535, -0.3228 1.122 1.6535, -0.4185 0.1378 1.8987, -0.3425 0.1378 1.8673, -0.2773 0.1378 1.8172, -0.2272 0.1378 1.752, -0.1958 0.1378 1.676, -0.185 0.1378 1.5945, -0.1958 0.1378 1.513, -0.2272 0.1378 1.437, -0.2773 0.1378 1.3718, -0.3425 0.1378 1.3217, -0.4185 0.1378 1.2903, -0.5 0.1378 1.2795, -0.5815 0.1378 1.2903, -0.6575 0.1378 1.3217, -0.7227 0.1378 1.3718, -0.7728 0.1378 1.437, -0.8042 0.1378 1.513, -0.815 0.1378 1.5945, -0.8042 0.1378 1.676, -0.7728 0.1378 1.752, -0.7227 0.1378 1.8172, -0.6575 0.1378 1.8673, -0.5815 0.1378 1.8987, -0.5 0.1378 1.9094, -0.5 0.1378 1.5945, 1.3425 0.1378 1.3217, 1.4185 0.1378 1.2903, 1.5 0.1378 1.5945, 1.5 0.1378 1.2795, 1.5815 0.1378 1.2903, 1.1958 0.1378 1.513, 1.2272 0.1378 1.437, 1.2773 0.1378 1.3718, 1.2272 0.1378 1.752, 1.1958 0.1378 1.676, 1.185 0.1378 1.5945, 1.4185 0.1378 1.8987, 1.3425 0.1378 1.8673, 1.2773 0.1378 1.8172, 1.6575 0.1378 1.8673, 1.5815 0.1378 1.8987, 1.5 0.1378 1.9094, 1.8042 0.1378 1.676, 1.7728 0.1378 1.752, 1.7227 0.1378 1.8172, 1.7728 0.1378 1.437, 1.8042 0.1378 1.513, 1.815 0.1378 1.5945, 1.6575 0.1378 1.3217, 1.7227 0.1378 1.3718, 1.5 0.374 1.9094, 1.5815 0.374 1.8987, 1.6575 0.374 1.8673, 1.7227 0.374 1.8172, 1.7728 0.374 1.752, 1.8042 0.374 1.676, 1.815 0.374 1.5945, 1.8042 0.374 1.513, 1.7728 0.374 1.437, 1.7227 0.374 1.3718, 1.6575 0.374 1.3217, 1.5815 0.374 1.2903, 1.5 0.374 1.2795, 1.4185 0.374 1.2903, 1.3425 0.374 1.3217, 1.2773 0.374 1.3718, 1.2272 0.374 1.437, 1.1958 0.374 1.513, 1.185 0.374 1.5945, 1.1958 0.374 1.676, 1.2272 0.374 1.752, 1.2773 0.374 1.8172, 1.3425 0.374 1.8673, 1.4185 0.374 1.8987, 1.1063 0.374 2.9921, 1.8937 0.374 2.9921, 1.1907 0.374 2.6772, 1.8937 0.374 2.4803, 1.3031 0.374 2.6772, 1.3031 0.374 2.4803, 1.6969 0.374 2.6772, 1.8093 0.374 2.6772, 1.6969 0.374 2.4803, 0.3425 0.1378 1.3217, 0.4185 0.1378 1.2903, 0.5 0.1378 1.5945, 0.5 0.1378 1.2795, 0.5815 0.1378 1.2903, 0.1958 0.1378 1.513, 0.2272 0.1378 1.437, 0.2773 0.1378 1.3718, 0.2272 0.1378 1.752, 0.1958 0.1378 1.676, 0.185 0.1378 1.5945, 0.4185 0.1378 1.8987, 0.3425 0.1378 1.8673, 0.2773 0.1378 1.8172, 0.6575 0.1378 1.8673, 0.5815 0.1378 1.8987, 0.5 0.1378 1.9094, 0.8042 0.1378 1.676, 0.7728 0.1378 1.752, 0.7227 0.1378 1.8172, 0.7728 0.1378 1.437, 0.8042 0.1378 1.513, 0.815 0.1378 1.5945, 0.6575 0.1378 1.3217, 0.7227 0.1378 1.3718, 0.5 0.374 1.9094, 0.5815 0.374 1.8987, 0.6575 0.374 1.8673, 0.7227 0.374 1.8172, 0.7728 0.374 1.752, 0.8042 0.374 1.676, 0.815 0.374 1.5945, 0.8042 0.374 1.513, 0.7728 0.374 1.437, 0.7227 0.374 1.3718, 0.6575 0.374 1.3217, 0.5815 0.374 1.2903, 0.5 0.374 1.2795, 0.4185 0.374 1.2903, 0.3425 0.374 1.3217, 0.2773 0.374 1.3718, 0.2272 0.374 1.437, 0.1958 0.374 1.513, 0.185 0.374 1.5945, 0.1958 0.374 1.676, 0.2272 0.374 1.752, 0.2773 0.374 1.8172, 0.3425 0.374 1.8673, 0.4185 0.374 1.8987, 0.1063 0.374 2.9921, 0.8937 0.374 2.9921, 0.1907 0.374 2.6772, 0.3031 0.374 2.6772, 0.6969 0.374 2.6772, 0.8093 0.374 2.6772, 0.6969 0.374 2.4803, -1.6575 0.1378 1.3217, -1.5815 0.1378 1.2903, -1.5 0.1378 1.5945, -1.5 0.1378 1.2795, -1.4185 0.1378 1.2903, -1.8042 0.1378 1.513, -1.7728 0.1378 1.437, -1.7227 0.1378 1.3718, -1.7728 0.1378 1.752, -1.8042 0.1378 1.676, -1.815 0.1378 1.5945, -1.5815 0.1378 1.8987, -1.6575 0.1378 1.8673, -1.7227 0.1378 1.8172, -1.3425 0.1378 1.8673, -1.4185 0.1378 1.8987, -1.5 0.1378 1.9094, -1.1958 0.1378 1.676, -1.2272 0.1378 1.752, -1.2773 0.1378 1.8172, -1.2272 0.1378 1.437, -1.1958 0.1378 1.513, -1.185 0.1378 1.5945, -1.3425 0.1378 1.3217, -1.2773 0.1378 1.3718, -1.5 0.374 1.9094, -1.4185 0.374 1.8987, -1.3425 0.374 1.8673, -1.2773 0.374 1.8172, -1.2272 0.374 1.752, -1.1958 0.374 1.676, -1.185 0.374 1.5945, -1.1958 0.374 1.513, -1.2272 0.374 1.437, -1.2773 0.374 1.3718, -1.3425 0.374 1.3217, -1.4185 0.374 1.2903, -1.5 0.374 1.2795, -1.5815 0.374 1.2903, -1.6575 0.374 1.3217, -1.7227 0.374 1.3718, -1.7728 0.374 1.437, -1.8042 0.374 1.513, -1.815 0.374 1.5945, -1.8042 0.374 1.676, -1.7728 0.374 1.752, -1.7227 0.374 1.8172, -1.6575 0.374 1.8673, -1.5815 0.374 1.8987, -1.8937 0.374 2.9921, -1.1063 0.374 2.9921, -1.8093 0.374 2.6772, -1.8937 0.374 2.4803, -1.6969 0.374 2.4803, -1.6969 0.374 2.6772, -1.3031 0.374 2.6772, -1.1907 0.374 2.6772, 0.1063 1.9094 2.4016, 0.8937 1.9094 2.4016, 1.1063 1.9094 2.4016, 1.8937 1.9094 2.4016, -1.8937 1.9094 2.4016, -1.1063 1.9094 2.4016, -1.3228 1.9094 1.6535, -1.6772 1.9094 1.6535, 1.6772 1.9094 1.6535, 1.3228 1.9094 1.6535, 0.6772 1.9094 1.6535, 0.3228 1.9094 1.6535, -1.1063 1.9094 2.6378, -1.1063 1.9094 2.9528, -1.8937 1.9094 2.9528, -1.8937 1.9094 2.6378, 0.8937 1.9094 2.6378, 0.8937 1.9094 2.9528, 0.1063 1.9094 2.9528, 0.1063 1.9094 2.6378, 1.8937 1.9094 2.6378, 1.8937 1.9094 2.9528, 1.1063 1.9094 2.9528, 1.1063 1.9094 2.6378, 0.3228 1.122 1.6535, 0.6772 1.122 1.6535, 1.3228 1.122 1.6535, 1.6772 1.122 1.6535, -1.6772 1.122 1.6535, -1.3228 1.122 1.6535, -1.3228 1.122 1.6535
            ]
        }
        coordIndex [
            0,1,2,-1,3,4,5,-1,6,7,8,-1,8,7,1,-1,9,10,11,-1,11,10,12,-1,13,14,2,-1,2,14,15,-1,2,15,0,-1,0,15,16,-1,0,11,1,-1,1,11,12,-1,1,12,8,-1,8,12,5,-1,8,5,17,-1,17,5,4,-1,17,4,18,-1,19,20,21,-1,22,19,23,-1,23,19,21,-1,23,21,24,-1,24,21,25,-1,26,27,16,-1,16,27,28,-1,16,28,0,-1,0,28,29,-1,0,29,30,-1,31,10,19,-1,19,10,9,-1,19,9,30,-1,30,9,32,-1,30,32,0,-1,5,31,3,-1,3,31,19,-1,3,19,33,-1,33,19,22,-1,33,22,18,-1,18,22,25,-1,18,25,17,-1,17,25,21,-1,17,21,34,-1,34,21,35,-1,34,35,36,-1,36,35,37,-1,38,39,40,-1,40,39,41,-1,40,41,29,-1,29,41,42,-1,29,42,30,-1,30,42,43,-1,30,43,44,-1,39,38,45,-1,45,38,46,-1,45,46,44,-1,44,46,47,-1,44,47,30,-1,48,49,50,-1,51,52,50,-1,50,52,53,-1,54,55,56,-1,56,48,54,-1,54,48,50,-1,54,50,57,-1,57,50,53,-1,57,53,58,-1,58,53,59,-1,60,61,62,-1,62,61,63,-1,62,63,64,-1,64,63,65,-1,66,55,67,-1,67,55,54,-1,56,68,48,-1,48,68,69,-1,65,70,64,-1,64,70,71,-1,72,59,73,-1,73,59,53,-1,58,74,57,-1,57,74,75,-1,76,77,78,-1,78,77,79,-1,80,46,81,-1,82,14,83,-1,84,85,86,-1,87,88,89,-1,83,13,90,-1,91,89,92,-1,92,89,93,-1,91,94,89,-1,89,94,95,-1,89,95,87,-1,96,97,98,-1,98,97,86,-1,98,86,99,-1,99,86,85,-1,99,85,100,-1,100,85,101,-1,34,36,102,-1,102,36,103,-1,102,103,104,-1,104,103,105,-1,104,105,6,-1,6,105,7,-1,106,107,108,-1,108,107,109,-1,108,109,110,-1,111,112,108,-1,108,112,113,-1,114,115,116,-1,116,115,117,-1,113,118,108,-1,108,118,117,-1,108,117,119,-1,119,117,115,-1,120,121,122,-1,122,121,123,-1,103,124,105,-1,105,124,125,-1,105,125,90,-1,90,125,126,-1,86,83,84,-1,84,83,90,-1,84,90,93,-1,110,127,108,-1,108,127,128,-1,108,128,111,-1,129,90,130,-1,130,90,126,-1,130,126,131,-1,120,132,121,-1,121,132,133,-1,121,133,134,-1,134,133,135,-1,134,135,136,-1,135,137,136,-1,136,137,138,-1,136,138,126,-1,126,138,139,-1,126,139,131,-1,129,140,90,-1,90,140,141,-1,90,141,142,-1,142,143,90,-1,90,143,144,-1,90,144,93,-1,93,144,145,-1,93,145,92,-1,92,145,146,-1,92,146,108,-1,108,146,147,-1,108,147,106,-1,148,149,87,-1,87,149,150,-1,151,152,87,-1,153,154,155,-1,155,156,153,-1,153,156,157,-1,153,157,158,-1,27,26,159,-1,159,26,160,-1,38,40,81,-1,81,40,161,-1,81,161,159,-1,158,148,153,-1,153,148,87,-1,153,87,162,-1,162,87,152,-1,162,152,163,-1,163,152,164,-1,165,166,167,-1,167,166,168,-1,168,169,167,-1,167,169,170,-1,167,170,171,-1,167,159,165,-1,165,159,160,-1,165,160,172,-1,172,160,82,-1,172,82,150,-1,150,82,83,-1,150,83,87,-1,87,83,86,-1,87,86,88,-1,171,173,167,-1,167,173,174,-1,167,174,153,-1,153,174,175,-1,153,175,154,-1,80,176,177,-1,177,176,178,-1,177,178,103,-1,103,178,123,-1,103,123,124,-1,124,123,121,-1,167,179,159,-1,159,179,151,-1,159,151,81,-1,81,151,87,-1,81,87,80,-1,80,87,95,-1,80,95,176,-1,180,181,182,-1,182,181,183,-1,182,183,184,-1,184,183,185,-1,184,185,186,-1,186,185,187,-1,188,189,190,-1,190,189,191,-1,190,191,192,-1,192,191,193,-1,192,193,194,-1,194,193,195,-1,196,197,198,-1,198,197,199,-1,198,199,200,-1,200,199,201,-1,200,201,202,-1,202,201,203,-1,204,205,206,-1,206,205,207,-1,206,207,208,-1,208,207,209,-1,208,209,210,-1,210,209,211,-1,212,213,214,-1,215,212,216,-1,216,212,214,-1,216,214,217,-1,217,214,218,-1,219,220,56,-1,56,220,221,-1,222,223,55,-1,55,223,224,-1,55,224,225,-1,225,226,55,-1,55,226,227,-1,55,227,56,-1,56,227,228,-1,56,228,219,-1,222,55,229,-1,229,55,66,-1,229,66,230,-1,230,66,215,-1,230,215,231,-1,231,215,216,-1,231,216,232,-1,233,234,232,-1,221,235,56,-1,56,235,236,-1,56,236,68,-1,68,236,237,-1,68,237,238,-1,238,239,68,-1,68,239,240,-1,68,240,232,-1,232,240,241,-1,232,241,233,-1,234,242,232,-1,232,242,243,-1,232,243,231,-1,36,37,244,-1,20,19,245,-1,245,19,246,-1,245,246,244,-1,244,246,177,-1,244,177,36,-1,247,248,249,-1,250,251,47,-1,47,251,252,-1,47,252,246,-1,246,253,177,-1,177,253,247,-1,254,255,256,-1,256,255,257,-1,258,259,260,-1,260,259,261,-1,247,249,177,-1,177,249,256,-1,177,256,46,-1,46,256,257,-1,46,257,262,-1,263,260,264,-1,264,260,261,-1,264,261,252,-1,252,261,265,-1,252,265,246,-1,246,265,266,-1,267,268,269,-1,269,268,270,-1,271,272,273,-1,273,272,274,-1,275,269,276,-1,276,269,270,-1,276,270,266,-1,266,270,277,-1,266,277,246,-1,246,277,278,-1,279,273,280,-1,280,273,274,-1,280,274,278,-1,278,274,281,-1,278,281,246,-1,246,281,282,-1,246,282,253,-1,253,282,283,-1,253,283,284,-1,284,283,285,-1,286,287,288,-1,288,250,286,-1,286,250,47,-1,286,47,289,-1,289,47,46,-1,289,46,290,-1,290,46,262,-1,30,47,19,-1,19,47,246,-1,79,77,291,-1,291,77,292,-1,291,292,293,-1,293,292,294,-1,218,214,265,-1,265,214,266,-1,295,76,78,-1,68,232,69,-1,69,232,258,-1,69,258,78,-1,78,258,260,-1,78,260,295,-1,259,258,216,-1,216,258,232,-1,261,259,217,-1,217,259,216,-1,213,212,276,-1,276,212,275,-1,269,275,215,-1,215,275,212,-1,215,66,67,-1,74,296,75,-1,75,296,267,-1,75,267,67,-1,67,267,269,-1,67,269,215,-1,209,160,211,-1,211,160,26,-1,211,26,297,-1,297,26,16,-1,209,207,160,-1,160,207,82,-1,298,15,205,-1,205,15,14,-1,205,14,207,-1,207,14,82,-1,298,297,15,-1,15,297,16,-1,205,204,299,-1,210,211,300,-1,300,211,297,-1,300,297,299,-1,299,297,298,-1,299,298,205,-1,301,302,5,-1,5,302,31,-1,302,303,31,-1,31,303,10,-1,303,304,10,-1,10,304,12,-1,304,301,12,-1,12,301,5,-1,304,303,301,-1,301,303,302,-1,305,306,208,-1,208,306,206,-1,305,208,300,-1,300,208,210,-1,299,204,306,-1,306,204,206,-1,306,305,299,-1,299,305,300,-1,233,307,234,-1,234,307,308,-1,234,308,242,-1,242,308,309,-1,242,309,243,-1,243,309,310,-1,243,310,231,-1,231,310,311,-1,231,311,230,-1,230,311,312,-1,230,312,229,-1,229,312,313,-1,229,313,222,-1,222,313,314,-1,222,314,223,-1,223,314,315,-1,223,315,224,-1,224,315,316,-1,224,316,225,-1,225,316,317,-1,225,317,226,-1,226,317,318,-1,226,318,227,-1,227,318,319,-1,227,319,228,-1,228,319,320,-1,228,320,219,-1,219,320,321,-1,219,321,220,-1,220,321,322,-1,220,322,221,-1,221,322,323,-1,221,323,235,-1,235,323,324,-1,235,324,236,-1,236,324,325,-1,236,325,237,-1,237,325,326,-1,237,326,238,-1,238,326,327,-1,238,327,239,-1,239,327,328,-1,239,328,240,-1,240,328,329,-1,240,329,241,-1,241,329,330,-1,241,330,233,-1,233,330,307,-1,320,319,331,-1,331,319,318,-1,331,318,317,-1,323,322,331,-1,331,322,321,-1,331,321,320,-1,326,325,331,-1,331,325,324,-1,331,324,323,-1,329,328,331,-1,331,328,327,-1,331,327,326,-1,308,307,331,-1,331,307,330,-1,331,330,329,-1,311,310,331,-1,331,310,309,-1,331,309,308,-1,314,313,331,-1,331,313,312,-1,331,312,311,-1,317,316,331,-1,331,316,315,-1,331,315,314,-1,214,213,266,-1,266,213,276,-1,217,218,261,-1,261,218,265,-1,332,333,334,-1,334,333,335,-1,334,335,336,-1,337,338,334,-1,334,338,339,-1,334,339,332,-1,340,341,334,-1,334,341,342,-1,334,342,337,-1,343,344,334,-1,334,344,345,-1,334,345,340,-1,346,347,334,-1,334,347,348,-1,334,348,343,-1,349,350,334,-1,334,350,351,-1,334,351,346,-1,352,353,334,-1,334,353,354,-1,334,354,349,-1,336,355,334,-1,334,355,356,-1,334,356,352,-1,357,347,358,-1,358,347,346,-1,358,346,359,-1,359,346,351,-1,359,351,360,-1,360,351,350,-1,360,350,361,-1,361,350,349,-1,361,349,362,-1,362,349,354,-1,362,354,363,-1,363,354,353,-1,363,353,364,-1,364,353,352,-1,364,352,365,-1,365,352,356,-1,365,356,366,-1,366,356,355,-1,366,355,367,-1,367,355,336,-1,367,336,368,-1,368,336,335,-1,368,335,369,-1,369,335,333,-1,369,333,370,-1,370,333,332,-1,370,332,371,-1,371,332,339,-1,371,339,372,-1,372,339,338,-1,372,338,373,-1,373,338,337,-1,373,337,374,-1,374,337,342,-1,374,342,375,-1,375,342,341,-1,375,341,376,-1,376,341,340,-1,376,340,377,-1,377,340,345,-1,377,345,378,-1,378,345,344,-1,378,344,379,-1,379,344,343,-1,379,343,380,-1,380,343,348,-1,380,348,357,-1,357,348,347,-1,381,382,281,-1,281,382,282,-1,383,381,274,-1,274,381,281,-1,384,63,253,-1,253,63,61,-1,253,61,247,-1,272,271,385,-1,385,271,386,-1,274,272,383,-1,383,272,385,-1,387,388,382,-1,389,387,385,-1,385,387,382,-1,385,382,383,-1,383,382,381,-1,371,372,65,-1,65,372,373,-1,364,365,63,-1,63,365,366,-1,63,366,367,-1,364,63,363,-1,363,63,384,-1,363,384,362,-1,362,384,389,-1,362,389,361,-1,361,389,385,-1,361,385,386,-1,367,368,63,-1,63,368,369,-1,63,369,65,-1,65,369,370,-1,65,370,371,-1,373,374,65,-1,65,374,375,-1,65,375,70,-1,70,375,376,-1,70,376,377,-1,377,378,70,-1,70,378,379,-1,70,379,386,-1,379,380,386,-1,386,380,357,-1,386,357,358,-1,358,359,386,-1,386,359,360,-1,386,360,361,-1,382,388,282,-1,282,388,283,-1,388,387,283,-1,283,387,285,-1,284,285,389,-1,389,285,387,-1,384,253,389,-1,389,253,284,-1,390,391,392,-1,392,391,393,-1,392,393,394,-1,395,396,392,-1,392,396,397,-1,392,397,390,-1,398,399,392,-1,392,399,400,-1,392,400,395,-1,401,402,392,-1,392,402,403,-1,392,403,398,-1,404,405,392,-1,392,405,406,-1,392,406,401,-1,407,408,392,-1,392,408,409,-1,392,409,404,-1,410,411,392,-1,392,411,412,-1,392,412,407,-1,394,413,392,-1,392,413,414,-1,392,414,410,-1,415,405,416,-1,416,405,404,-1,416,404,417,-1,417,404,409,-1,417,409,418,-1,418,409,408,-1,418,408,419,-1,419,408,407,-1,419,407,420,-1,420,407,412,-1,420,412,421,-1,421,412,411,-1,421,411,422,-1,422,411,410,-1,422,410,423,-1,423,410,414,-1,423,414,424,-1,424,414,413,-1,424,413,425,-1,425,413,394,-1,425,394,426,-1,426,394,393,-1,426,393,427,-1,427,393,391,-1,427,391,428,-1,428,391,390,-1,428,390,429,-1,429,390,397,-1,429,397,430,-1,430,397,396,-1,430,396,431,-1,431,396,395,-1,431,395,432,-1,432,395,400,-1,432,400,433,-1,433,400,399,-1,433,399,434,-1,434,399,398,-1,434,398,435,-1,435,398,403,-1,435,403,436,-1,436,403,402,-1,436,402,437,-1,437,402,401,-1,437,401,438,-1,438,401,406,-1,438,406,415,-1,415,406,405,-1,439,440,277,-1,277,440,278,-1,441,439,270,-1,270,439,277,-1,268,267,442,-1,442,267,296,-1,270,268,441,-1,441,268,442,-1,443,444,440,-1,445,443,442,-1,442,443,440,-1,442,440,441,-1,441,440,439,-1,428,429,58,-1,58,429,430,-1,58,430,431,-1,422,423,59,-1,59,423,424,-1,422,59,421,-1,421,59,72,-1,421,72,420,-1,420,72,445,-1,420,445,419,-1,419,445,442,-1,419,442,296,-1,415,416,296,-1,424,425,59,-1,59,425,426,-1,59,426,58,-1,58,426,427,-1,58,427,428,-1,431,432,58,-1,58,432,433,-1,58,433,74,-1,74,433,434,-1,74,434,435,-1,435,436,74,-1,74,436,437,-1,74,437,296,-1,296,437,438,-1,296,438,415,-1,416,417,296,-1,296,417,418,-1,296,418,419,-1,440,444,278,-1,278,444,280,-1,444,443,280,-1,280,443,279,-1,273,279,445,-1,445,279,443,-1,445,72,73,-1,70,386,71,-1,71,386,271,-1,71,271,73,-1,73,271,273,-1,73,273,445,-1,446,447,448,-1,448,447,449,-1,448,449,450,-1,451,452,448,-1,448,452,453,-1,448,453,446,-1,454,455,448,-1,448,455,456,-1,448,456,451,-1,457,458,448,-1,448,458,459,-1,448,459,454,-1,460,461,448,-1,448,461,462,-1,448,462,457,-1,463,464,448,-1,448,464,465,-1,448,465,460,-1,466,467,448,-1,448,467,468,-1,448,468,463,-1,450,469,448,-1,448,469,470,-1,448,470,466,-1,471,461,472,-1,472,461,460,-1,472,460,473,-1,473,460,465,-1,473,465,474,-1,474,465,464,-1,474,464,475,-1,475,464,463,-1,475,463,476,-1,476,463,468,-1,476,468,477,-1,477,468,467,-1,477,467,478,-1,478,467,466,-1,478,466,479,-1,479,466,470,-1,479,470,480,-1,480,470,469,-1,480,469,481,-1,481,469,450,-1,481,450,482,-1,482,450,449,-1,482,449,483,-1,483,449,447,-1,483,447,484,-1,484,447,446,-1,484,446,485,-1,485,446,453,-1,485,453,486,-1,486,453,452,-1,486,452,487,-1,487,452,451,-1,487,451,488,-1,488,451,456,-1,488,456,489,-1,489,456,455,-1,489,455,490,-1,490,455,454,-1,490,454,491,-1,491,454,459,-1,491,459,492,-1,492,459,458,-1,492,458,493,-1,493,458,457,-1,493,457,494,-1,494,457,462,-1,494,462,471,-1,471,462,461,-1,495,496,251,-1,251,496,252,-1,497,495,250,-1,250,495,251,-1,292,498,294,-1,294,498,286,-1,294,286,289,-1,499,287,498,-1,498,287,286,-1,288,287,500,-1,500,287,499,-1,250,288,497,-1,497,288,500,-1,501,502,496,-1,295,501,500,-1,500,501,496,-1,500,496,497,-1,497,496,495,-1,478,479,77,-1,77,479,480,-1,77,480,481,-1,484,292,483,-1,483,292,77,-1,483,77,482,-1,482,77,481,-1,478,77,477,-1,477,77,76,-1,477,76,476,-1,476,76,295,-1,476,295,475,-1,475,295,500,-1,475,500,499,-1,471,472,499,-1,484,485,292,-1,292,485,486,-1,292,486,487,-1,491,492,498,-1,498,492,493,-1,498,493,499,-1,499,493,494,-1,499,494,471,-1,472,473,499,-1,499,473,474,-1,499,474,475,-1,487,488,292,-1,292,488,489,-1,292,489,498,-1,498,489,490,-1,498,490,491,-1,496,502,252,-1,252,502,264,-1,502,501,264,-1,264,501,263,-1,260,263,295,-1,295,263,501,-1,185,90,187,-1,187,90,13,-1,187,13,503,-1,503,13,2,-1,185,183,90,-1,90,183,105,-1,504,1,181,-1,181,1,7,-1,181,7,183,-1,183,7,105,-1,193,104,195,-1,195,104,6,-1,195,6,505,-1,505,6,8,-1,193,191,104,-1,104,191,102,-1,506,17,189,-1,189,17,34,-1,189,34,191,-1,191,34,102,-1,201,161,203,-1,203,161,40,-1,203,40,507,-1,507,40,29,-1,201,199,161,-1,161,199,159,-1,508,28,197,-1,197,28,27,-1,197,27,199,-1,199,27,159,-1,508,507,28,-1,28,507,29,-1,197,196,509,-1,202,203,510,-1,510,203,507,-1,510,507,509,-1,509,507,508,-1,509,508,197,-1,506,505,17,-1,17,505,8,-1,189,188,511,-1,194,195,512,-1,512,195,505,-1,512,505,511,-1,511,505,506,-1,511,506,189,-1,504,503,1,-1,1,503,2,-1,181,180,513,-1,186,187,514,-1,514,187,503,-1,514,503,513,-1,513,503,504,-1,513,504,181,-1,515,516,11,-1,11,516,9,-1,516,517,9,-1,9,517,32,-1,517,518,32,-1,32,518,0,-1,518,515,0,-1,0,515,11,-1,518,517,515,-1,515,517,516,-1,519,520,18,-1,18,520,33,-1,520,521,33,-1,33,521,3,-1,521,522,3,-1,3,522,4,-1,522,519,4,-1,4,519,18,-1,522,521,519,-1,519,521,520,-1,523,524,24,-1,24,524,23,-1,524,525,23,-1,23,525,22,-1,525,526,22,-1,22,526,25,-1,526,523,25,-1,25,523,24,-1,526,525,523,-1,523,525,524,-1,527,528,184,-1,184,528,182,-1,527,184,514,-1,514,184,186,-1,513,180,528,-1,528,180,182,-1,528,527,513,-1,513,527,514,-1,529,530,192,-1,192,530,190,-1,529,192,512,-1,512,192,194,-1,511,188,530,-1,530,188,190,-1,530,529,511,-1,511,529,512,-1,531,532,200,-1,200,532,198,-1,531,200,510,-1,510,200,202,-1,509,196,532,-1,532,196,198,-1,532,531,509,-1,509,531,510,-1,
        ]
    }
}
Shape{
    appearance Appearance {
        material  Material 	{
            diffuseColor 0.0 0.0 0.0
            specularColor 0.0 0.0 0.0
            ambientIntensity 0.2
            transparency 0
            shininess 0.5
        }
    }
    geometry IndexedFaceSet {
        ccw TRUE
        solid FALSE
        coord DEF co Coordinate {
            point [
                -0.3879 0.1022 0.0004, -0.4647 -0.0946 0.0004, -0.3879 0.1022 0.0, -0.4647 -0.0946 0.0, -0.4359 -0.0946 0.0004, -0.4359 -0.0946 0.0, -0.416 -0.0394 0.0004, -0.416 -0.0394 0.0, -0.3347 -0.0394 0.0004, -0.3347 -0.0394 0.0, -0.3159 -0.0946 0.0004, -0.3159 -0.0946 0.0, -0.2871 -0.0946 0.0004, -0.2871 -0.0946 0.0, -0.3615 0.1022 0.0004, -0.3615 0.1022 0.0, -0.3413 -0.0178 0.0004, -0.4071 -0.0178 0.0004, -0.3707 0.0644 0.0004, -0.3726 0.0713 0.0004, -0.3738 0.0782 0.0004, -0.3745 0.0782 0.0004, -0.3757 0.0713 0.0004, -0.3775 0.0644 0.0004, -0.3413 -0.0178 0.0, -0.4071 -0.0178 0.0, -0.3707 0.0644 0.0, -0.3726 0.0713 0.0, -0.3738 0.0782 0.0, -0.3745 0.0782 0.0, -0.3757 0.0713 0.0, -0.3775 0.0644 0.0, -0.1677 -0.0946 0.0004, -0.1142 -0.0946 0.0004, -0.1677 -0.0946 0.0, -0.1142 -0.0946 0.0, -0.1142 0.1022 0.0004, -0.1142 0.1022 0.0, -0.1698 0.1022 0.0004, -0.1698 0.1022 0.0, -0.2727 0.0063 0.0004, -0.2727 0.0063 0.0, -0.2712 0.0248 0.0, -0.2712 0.0248 0.0004, -0.2659 0.0442 0.0, -0.2659 0.0442 0.0004, -0.2568 0.0611 0.0, -0.2568 0.0611 0.0004, -0.2429 0.0766 0.0, -0.2429 0.0766 0.0004, -0.2427 0.0768 0.0, -0.2427 0.0768 0.0004, -0.2212 0.0911 0.0, -0.2212 0.0911 0.0004, -0.1982 0.0992 0.0, -0.1982 0.0992 0.0004, -0.1921 -0.0925 0.0, -0.1921 -0.0925 0.0004, -0.2148 -0.0857 0.0, -0.2148 -0.0857 0.0004, -0.2353 -0.0738 0.0, -0.2353 -0.0738 0.0004, -0.2515 -0.0583 0.0, -0.2515 -0.0583 0.0004, -0.2628 -0.0406 0.0, -0.2628 -0.0406 0.0004, -0.2699 -0.02 0.0, -0.2699 -0.02 0.0004, -0.2331 0.053 0.0004, -0.2236 0.0632 0.0004, -0.2092 0.0725 0.0004, -0.193 0.0782 0.0004, -0.1697 0.0806 0.0004, -0.1406 0.0806 0.0004, -0.1406 -0.073 0.0004, -0.1686 -0.073 0.0004, -0.1893 -0.0711 0.0004, -0.2059 -0.0659 0.0004, -0.2193 -0.0579 0.0004, -0.2304 -0.047 0.0004, -0.2387 -0.0334 0.0004, -0.2444 -0.0149 0.0004, -0.2463 0.0057 0.0004, -0.2446 0.0253 0.0004, -0.24 0.0409 0.0004, -0.1697 0.0806 0.0, -0.1406 0.0806 0.0, -0.193 0.0782 -0.0, -0.2092 0.0725 -0.0, -0.2236 0.0632 0.0, -0.2331 0.053 0.0, -0.24 0.0409 -0.0, -0.2446 0.0253 -0.0, -0.2463 0.0057 -0.0, -0.2444 -0.0149 0.0, -0.2387 -0.0334 0.0, -0.2304 -0.047 0.0, -0.2193 -0.0579 0.0, -0.2059 -0.0659 0.0, -0.1893 -0.0711 0.0, -0.1686 -0.073 0.0, -0.1406 -0.073 0.0, -0.0758 -0.073 0.0004, -0.0758 -0.0946 0.0004, -0.0758 -0.073 0.0, -0.0758 -0.0946 0.0, 0.0298 -0.0946 0.0004, 0.0298 -0.0946 0.0, 0.0298 0.1022 0.0004, 0.0298 0.1022 0.0, -0.071 0.1022 0.0004, -0.071 0.1022 0.0, -0.071 0.0806 0.0004, -0.071 0.0806 0.0, 0.0034 0.0806 0.0004, 0.0034 0.0806 0.0, 0.0034 0.0158 0.0004, 0.0034 0.0158 0.0, -0.0662 0.0158 0.0004, -0.0662 0.0158 0.0, -0.0662 -0.0058 0.0004, -0.0662 -0.0058 0.0, 0.0034 -0.0058 0.0004, 0.0034 -0.0058 0.0, 0.0034 -0.073 0.0004, 0.0034 -0.073 0.0, 0.0682 -0.0628 0.0004, 0.0682 -0.0844 0.0004, 0.0682 -0.0628 0.0, 0.0682 -0.0844 0.0, 0.0892 -0.093 0.0004, 0.1224 -0.097 0.0004, 0.1224 -0.097 0.0, 0.117 -0.0969 0.0, 0.117 -0.0969 0.0004, 0.1091 -0.0958 0.0, 0.0892 -0.093 0.0, 0.134 -0.0958 0.0, 0.1466 -0.0945 0.0004, 0.1466 -0.0945 0.0, 0.1657 -0.0879 0.0004, 0.1657 -0.0879 0.0, 0.1816 -0.0778 0.0004, 0.1816 -0.0778 0.0, 0.1963 -0.0622 0.0004, 0.1963 -0.0622 0.0, 0.2068 -0.0435 0.0004, 0.2068 -0.0435 0.0, 0.2128 -0.0227 0.0004, 0.2128 -0.0227 0.0, 0.2147 0.0001 0.0004, 0.2147 0.0001 0.0, 0.1146 0.1046 0.0004, 0.1146 0.1046 0.0, 0.1343 0.103 0.0, 0.1343 0.103 0.0004, 0.1563 0.0967 0.0, 0.1563 0.0967 0.0004, 0.175 0.0859 0.0, 0.175 0.0859 0.0004, 0.1927 0.0688 0.0, 0.1927 0.0688 0.0004, 0.2043 0.0504 0.0, 0.2043 0.0504 0.0004, 0.2118 0.0281 0.0, 0.2118 0.0281 0.0004, 0.0682 0.0968 0.0004, 0.0682 0.0968 0.0, 0.091 0.103 0.0, 0.091 0.103 0.0004, 0.0682 0.0704 0.0004, 0.0682 0.0704 0.0, 0.1143 0.083 0.0004, 0.1143 0.083 0.0, 0.0904 0.0799 0.0, 0.0904 0.0799 0.0004, 0.1883 0.0017 0.0004, 0.1883 0.0017 0.0, 0.1873 0.017 0.0, 0.1873 0.017 0.0004, 0.1821 0.0381 0.0, 0.1821 0.0381 0.0004, 0.174 0.0533 0.0, 0.174 0.0533 0.0004, 0.1621 0.0664 0.0, 0.1621 0.0664 0.0004, 0.1484 0.0755 0.0, 0.1484 0.0755 0.0004, 0.1337 0.0809 0.0, 0.1337 0.0809 0.0004, 0.1188 -0.0754 0.0004, 0.1188 -0.0754 0.0, 0.1371 -0.0733 0.0, 0.1371 -0.0733 0.0004, 0.1515 -0.0681 0.0, 0.1515 -0.0681 0.0004, 0.1635 -0.0599 0.0, 0.1635 -0.0599 0.0004, 0.1728 -0.0502 0.0, 0.1728 -0.0502 0.0004, 0.1809 -0.0365 0.0, 0.1809 -0.0365 0.0004, 0.1863 -0.0196 0.0, 0.1863 -0.0196 0.0004, 0.0718 -0.0647 0.0, 0.0718 -0.0647 0.0004, 0.0926 -0.0725 0.0, 0.0926 -0.0725 0.0004, 0.2315 -0.073 0.0004, 0.2315 -0.0946 0.0004, 0.2315 -0.073 0.0, 0.2315 -0.0946 0.0, 0.3323 -0.0946 0.0004, 0.3323 -0.0946 0.0, 0.3323 0.1022 0.0004, 0.3323 0.1022 0.0, 0.3059 0.1022 0.0004, 0.3059 0.1022 0.0, 0.3059 -0.073 0.0004, 0.3059 -0.073 0.0, 0.3059 -0.073 0.0
            ]
        }
        coordIndex [
            0,1,2,-1,2,1,3,-1,1,4,3,-1,3,4,5,-1,4,6,5,-1,5,6,7,-1,6,8,7,-1,7,8,9,-1,8,10,9,-1,9,10,11,-1,10,12,11,-1,11,12,13,-1,12,14,13,-1,13,14,15,-1,14,0,15,-1,15,0,2,-1,16,8,17,-1,17,8,6,-1,18,14,16,-1,16,14,12,-1,16,12,8,-1,8,12,10,-1,18,19,14,-1,14,19,20,-1,14,20,0,-1,0,20,21,-1,0,21,22,-1,22,23,0,-1,0,23,17,-1,0,17,1,-1,1,17,6,-1,1,6,4,-1,16,17,24,-1,24,17,25,-1,18,16,26,-1,26,16,24,-1,18,26,27,-1,18,27,19,-1,19,27,28,-1,19,28,20,-1,21,20,29,-1,29,20,28,-1,21,29,30,-1,21,30,22,-1,22,30,31,-1,22,31,23,-1,17,23,25,-1,25,23,31,-1,32,33,34,-1,34,33,35,-1,33,36,35,-1,35,36,37,-1,36,38,37,-1,37,38,39,-1,40,41,42,-1,40,42,43,-1,43,42,44,-1,43,44,45,-1,45,44,46,-1,45,46,47,-1,47,46,48,-1,47,48,49,-1,49,48,50,-1,49,50,51,-1,51,50,52,-1,51,52,53,-1,53,52,54,-1,53,54,55,-1,55,54,39,-1,55,39,38,-1,32,34,56,-1,32,56,57,-1,57,56,58,-1,57,58,59,-1,59,58,60,-1,59,60,61,-1,61,60,62,-1,61,62,63,-1,63,62,64,-1,63,64,65,-1,65,64,66,-1,65,66,67,-1,67,66,41,-1,67,41,40,-1,45,47,68,-1,68,47,49,-1,68,49,69,-1,69,49,51,-1,69,51,70,-1,70,51,53,-1,70,53,71,-1,71,53,55,-1,71,55,72,-1,72,55,38,-1,72,38,73,-1,73,38,36,-1,73,36,74,-1,74,36,33,-1,74,33,75,-1,75,33,32,-1,75,32,76,-1,76,32,57,-1,76,57,77,-1,77,57,59,-1,77,59,78,-1,78,59,61,-1,78,61,79,-1,79,61,63,-1,79,63,80,-1,80,63,65,-1,80,65,81,-1,81,65,67,-1,81,67,82,-1,82,67,40,-1,82,40,83,-1,83,40,43,-1,83,43,84,-1,84,43,45,-1,84,45,68,-1,72,73,85,-1,85,73,86,-1,72,85,87,-1,72,87,71,-1,71,87,88,-1,71,88,70,-1,70,88,89,-1,70,89,69,-1,69,89,90,-1,69,90,68,-1,68,90,91,-1,68,91,84,-1,84,91,92,-1,84,92,83,-1,83,92,93,-1,83,93,82,-1,82,93,94,-1,82,94,81,-1,81,94,95,-1,81,95,80,-1,80,95,96,-1,80,96,79,-1,79,96,97,-1,79,97,78,-1,78,97,98,-1,78,98,77,-1,77,98,99,-1,77,99,76,-1,76,99,100,-1,76,100,75,-1,74,75,101,-1,101,75,100,-1,73,74,86,-1,86,74,101,-1,102,103,104,-1,104,103,105,-1,103,106,105,-1,105,106,107,-1,106,108,107,-1,107,108,109,-1,108,110,109,-1,109,110,111,-1,110,112,111,-1,111,112,113,-1,112,114,113,-1,113,114,115,-1,114,116,115,-1,115,116,117,-1,116,118,117,-1,117,118,119,-1,118,120,119,-1,119,120,121,-1,120,122,121,-1,121,122,123,-1,122,124,123,-1,123,124,125,-1,124,102,125,-1,125,102,104,-1,106,103,102,-1,102,124,106,-1,106,124,122,-1,106,122,108,-1,112,110,114,-1,114,110,108,-1,114,108,116,-1,116,108,122,-1,116,122,118,-1,118,122,120,-1,126,127,128,-1,128,127,129,-1,129,127,130,-1,131,132,133,-1,131,133,134,-1,134,133,135,-1,134,135,130,-1,130,135,136,-1,130,136,129,-1,132,131,137,-1,137,131,138,-1,137,138,139,-1,139,138,140,-1,139,140,141,-1,141,140,142,-1,141,142,143,-1,143,142,144,-1,143,144,145,-1,145,144,146,-1,145,146,147,-1,147,146,148,-1,147,148,149,-1,149,148,150,-1,149,150,151,-1,152,153,154,-1,152,154,155,-1,155,154,156,-1,155,156,157,-1,157,156,158,-1,157,158,159,-1,159,158,160,-1,159,160,161,-1,161,160,162,-1,161,162,163,-1,163,162,164,-1,163,164,165,-1,165,164,151,-1,165,151,150,-1,166,167,168,-1,166,168,169,-1,169,168,153,-1,169,153,152,-1,166,170,167,-1,167,170,171,-1,172,173,174,-1,172,174,175,-1,175,174,171,-1,175,171,170,-1,176,177,178,-1,176,178,179,-1,179,178,180,-1,179,180,181,-1,181,180,182,-1,181,182,183,-1,183,182,184,-1,183,184,185,-1,185,184,186,-1,185,186,187,-1,187,186,188,-1,187,188,189,-1,189,188,173,-1,189,173,172,-1,190,191,192,-1,190,192,193,-1,193,192,194,-1,193,194,195,-1,195,194,196,-1,195,196,197,-1,197,196,198,-1,197,198,199,-1,199,198,200,-1,199,200,201,-1,201,200,202,-1,201,202,203,-1,203,202,177,-1,203,177,176,-1,126,128,204,-1,126,204,205,-1,205,204,206,-1,205,206,207,-1,207,206,191,-1,207,191,190,-1,193,131,190,-1,190,131,134,-1,190,134,207,-1,207,134,130,-1,207,130,205,-1,205,130,127,-1,205,127,126,-1,170,166,175,-1,175,166,169,-1,175,169,172,-1,172,169,152,-1,172,152,189,-1,189,152,155,-1,189,155,187,-1,187,155,157,-1,187,157,185,-1,185,157,159,-1,185,159,183,-1,183,159,161,-1,183,161,181,-1,181,161,163,-1,181,163,179,-1,179,163,165,-1,179,165,176,-1,176,165,150,-1,176,150,203,-1,203,150,148,-1,203,148,201,-1,201,148,146,-1,201,146,199,-1,199,146,144,-1,199,144,197,-1,197,144,142,-1,197,142,195,-1,195,142,140,-1,195,140,193,-1,193,140,138,-1,193,138,131,-1,208,209,210,-1,210,209,211,-1,209,212,211,-1,211,212,213,-1,212,214,213,-1,213,214,215,-1,214,216,215,-1,215,216,217,-1,216,218,217,-1,217,218,219,-1,218,208,219,-1,219,208,210,-1,216,214,218,-1,218,214,212,-1,218,212,208,-1,208,212,209,-1,
        ]
    }
}
Shape{
    appearance Appearance {
        material  Material 	{
            diffuseColor 0.7529411764705882 1.0 0.7529411764705882
            specularColor 0.3764705882352941 0.5019607843137255 0.3764705882352941
            ambientIntensity 0.2
            transparency 0
            shininess 0.5
        }
    }
    geometry IndexedFaceSet {
        ccw TRUE
        solid FALSE
        coord DEF co Coordinate {
            point [
                -0.3413 -0.0178 0.0, -0.4071 -0.0178 0.0, -0.3707 0.0644 0.0, -0.3775 0.0644 0.0, -0.3726 0.0713 0.0, -0.3757 0.0713 0.0, -0.3738 0.0782 0.0, -0.3745 0.0782 0.0, -0.1406 0.0806 0.0, -0.1406 -0.073 0.0, -0.1697 0.0806 0.0, -0.1686 -0.073 0.0, -0.1893 -0.0711 0.0, -0.2463 0.0057 -0.0, -0.2446 0.0253 -0.0, -0.24 0.0409 -0.0, -0.193 0.0782 -0.0, -0.2059 -0.0659 0.0, -0.2193 -0.0579 0.0, -0.2304 -0.047 0.0, -0.2387 -0.0334 0.0, -0.2444 -0.0149 0.0, -0.2331 0.053 0.0, -0.2236 0.0632 0.0, -0.2092 0.0725 -0.0, -1.1063 0.1378 0.6299, -1.5 0.1378 0.6299, -1.5 0.1378 0.315, -0.9094 0.1378 0.6299, -0.8937 0.1378 0.6299, -0.8937 0.1378 2.4803, -0.9094 0.1378 0.315, -1.1063 0.1378 2.4803, 0.1063 0.1378 0.6299, 0.1063 0.1378 2.4803, -0.1063 0.1378 0.6299, -0.1063 0.1378 2.4803, 1.5 0.1378 0.315, 1.5 0.1378 0.6299, 0.9094 0.1378 0.315, 1.1063 0.1378 0.6299, 0.9094 0.1378 0.6299, 1.1063 0.1378 2.4803, 0.8937 0.1378 0.6299, 0.8937 0.1378 2.4803, 1.5 -1.9739 0.6299, 1.5 -1.9739 0.315, 0.9094 -1.9739 0.315, 0.9094 -1.9739 0.6299, -1.5 -1.9739 0.315, -1.5 -1.9739 0.6299, -0.9094 -1.9739 0.6299, -0.9094 -1.9739 0.315, -1.5394 -1.9882 0.5906, -1.8937 -1.9882 0.5906, -1.8937 -1.9739 0.6299, -1.5394 -1.9882 0.2756, -0.8701 -1.9882 0.2756, -0.8701 -1.9882 0.5906, 0.8701 -1.9882 0.5906, 0.8701 -1.9882 0.2756, 1.5394 -1.9882 0.2756, 1.5394 -1.9882 0.5906, 1.8937 -1.9882 0.5906, 1.8937 -1.9739 0.6299, 2.3661 1.5694 0.4331, 2.3661 1.9882 0.4331, 2.1693 1.5694 0.4331, 2.1693 1.9882 0.4331, 2.1693 1.5694 2.4803, 2.1693 1.9882 2.4803, 2.3661 1.5694 2.4803, 2.3661 1.9882 2.4803, -2.1693 1.5694 0.4331, -2.1693 1.5694 2.4803, -2.1693 1.9882 0.4331, -2.1693 1.9882 2.4803, -2.3661 1.5694 0.4331, -2.3661 1.9882 0.4331, -2.3661 1.5694 2.4803, -2.3661 1.9882 2.4803, -2.3661 1.9882 2.4803
            ]
        }
        coordIndex [
            0,1,2,-1,2,1,3,-1,2,3,4,-1,4,3,5,-1,4,5,6,-1,6,5,7,-1,8,9,10,-1,10,9,11,-1,10,11,12,-1,13,14,10,-1,10,14,15,-1,10,15,16,-1,12,17,10,-1,10,17,18,-1,10,18,19,-1,19,20,10,-1,10,20,21,-1,10,21,13,-1,22,23,15,-1,15,23,24,-1,15,24,16,-1,25,26,27,-1,28,29,30,-1,27,31,25,-1,25,31,28,-1,25,28,32,-1,32,28,30,-1,33,34,35,-1,35,34,36,-1,37,38,39,-1,39,38,40,-1,39,40,41,-1,41,40,42,-1,41,42,43,-1,43,42,44,-1,45,38,46,-1,46,38,37,-1,46,37,47,-1,47,37,39,-1,47,39,48,-1,48,39,41,-1,49,27,50,-1,50,27,26,-1,51,28,52,-1,52,28,31,-1,52,31,49,-1,49,31,27,-1,53,50,54,-1,54,50,55,-1,56,49,53,-1,53,49,50,-1,57,52,56,-1,56,52,49,-1,58,51,57,-1,57,51,52,-1,59,48,58,-1,58,48,51,-1,60,47,59,-1,59,47,48,-1,61,46,60,-1,60,46,47,-1,62,45,61,-1,61,45,46,-1,63,64,62,-1,62,64,45,-1,65,66,67,-1,67,66,68,-1,69,70,71,-1,71,70,72,-1,69,67,70,-1,70,67,68,-1,67,69,65,-1,65,69,71,-1,73,74,75,-1,75,74,76,-1,77,73,78,-1,78,73,75,-1,74,79,76,-1,76,79,80,-1,74,73,79,-1,79,73,77,-1,
        ]
    }
}