#VRML V2.0 utf8
# 3D model generated by easyeda2kicad.py (https://github.com/uPesy/easyeda2kicad.py)

Shape{
    appearance Appearance {
        material  Material 	{
            diffuseColor 1.0 1.0 1.0
            specularColor 0.8784313725490196 0.8784313725490196 0.8784313725490196
            ambientIntensity 0.2
            transparency 0
            shininess 0.5
        }
    }
    geometry IndexedFaceSet {
        ccw TRUE
        solid FALSE
        coord DEF co Coordinate {
            point [
                -1.3478 0.2953 0.3184, -1.2923 0.2953 0.0427, -1.3478 -0.2953 0.3184, -1.2923 -0.2953 0.0427, -1.29 0.2953 0.33, -1.29 -0.2953 0.33, -1.2354 0.2953 0.0591, -1.2354 -0.2953 0.0591, -0.6102 0.2953 0.0591, -0.6102 -0.2953 0.0591, -0.6102 0.2953 0.0, -0.6102 -0.2953 0.0, -1.2402 0.2953 0.0, -1.2402 -0.2953 0.0, -1.2523 -0.2953 0.0014, -1.2523 0.2953 0.0014, -1.2637 -0.2953 0.0055, -1.2637 0.2953 0.0055, -1.2739 -0.2953 0.012, -1.2739 0.2953 0.012, -1.2823 -0.2953 0.0207, -1.2823 0.2953 0.0207, -1.2886 -0.2953 0.0311, -1.2886 0.2953 0.0311, 1.29 0.2953 0.33, 1.2354 0.2953 0.0591, 1.29 -0.2953 0.33, 1.2354 -0.2953 0.0591, 1.3478 0.2953 0.3184, 1.3478 -0.2953 0.3184, 1.2923 0.2953 0.0427, 1.2923 -0.2953 0.0427, 1.2886 -0.2953 0.0311, 1.2886 0.2953 0.0311, 1.2823 -0.2953 0.0207, 1.2823 0.2953 0.0207, 1.2739 -0.2953 0.012, 1.2739 0.2953 0.012, 1.2637 -0.2953 0.0055, 1.2637 0.2953 0.0055, 1.2523 -0.2953 0.0014, 1.2523 0.2953 0.0014, 1.2402 -0.2953 0.0, 1.2402 0.2953 0.0, 0.6102 0.2953 0.0, 0.6102 -0.2953 0.0, 0.6102 0.2953 0.0591, 0.6102 -0.2953 0.0591, 0.6102 -0.2953 0.0591
            ]
        }
        coordIndex [
            0,1,2,-1,2,1,3,-1,4,0,5,-1,5,0,2,-1,6,4,7,-1,7,4,5,-1,8,6,9,-1,9,6,7,-1,10,8,11,-1,11,8,9,-1,12,10,13,-1,13,10,11,-1,12,13,14,-1,12,14,15,-1,15,14,16,-1,15,16,17,-1,17,16,18,-1,17,18,19,-1,19,18,20,-1,19,20,21,-1,21,20,22,-1,21,22,23,-1,23,22,3,-1,23,3,1,-1,6,19,21,-1,8,10,6,-1,6,10,12,-1,0,4,1,-1,1,4,6,-1,1,6,23,-1,23,6,21,-1,12,15,6,-1,6,15,17,-1,6,17,19,-1,7,18,16,-1,5,2,7,-1,7,2,3,-1,11,9,13,-1,13,9,7,-1,13,7,14,-1,14,7,16,-1,3,22,7,-1,7,22,20,-1,7,20,18,-1,24,25,26,-1,26,25,27,-1,28,24,29,-1,29,24,26,-1,30,28,31,-1,31,28,29,-1,30,31,32,-1,30,32,33,-1,33,32,34,-1,33,34,35,-1,35,34,36,-1,35,36,37,-1,37,36,38,-1,37,38,39,-1,39,38,40,-1,39,40,41,-1,41,40,42,-1,41,42,43,-1,44,43,45,-1,45,43,42,-1,46,44,47,-1,47,44,45,-1,25,46,27,-1,27,46,47,-1,25,37,39,-1,24,28,25,-1,25,28,30,-1,44,46,43,-1,43,46,25,-1,43,25,41,-1,41,25,39,-1,30,33,25,-1,25,33,35,-1,25,35,37,-1,27,36,34,-1,47,45,27,-1,27,45,42,-1,29,26,31,-1,31,26,27,-1,31,27,32,-1,32,27,34,-1,42,40,27,-1,27,40,38,-1,27,38,36,-1,
        ]
    }
}
Shape{
    appearance Appearance {
        material  Material 	{
            diffuseColor 0.25098039215686274 0.25098039215686274 0.25098039215686274
            specularColor 0.25098039215686274 0.25098039215686274 0.25098039215686274
            ambientIntensity 0.2
            transparency 0
            shininess 0.5
        }
    }
    geometry IndexedFaceSet {
        ccw TRUE
        solid FALSE
        coord DEF co Coordinate {
            point [
                1.2008 0.0579 0.9327, 1.2008 0.0579 0.8854, 1.2008 0.0792 0.8854, 1.2008 0.2158 0.8632, 1.2008 0.2326 0.8632, 1.2008 0.2326 0.8788, 1.2008 0.5696 0.0, 1.2008 0.8071 0.0, 1.2008 0.8071 0.773, 1.2008 0.0846 0.8908, 1.2008 0.0838 0.8929, 1.2008 0.0838 0.8788, 1.2008 -0.0171 0.8911, 1.2008 -0.0068 0.8824, 1.2008 0.0292 0.9331, 1.2008 0.0292 0.8788, 1.2008 -0.0668 0.9382, 1.2008 -0.0593 0.9331, 1.2008 -0.0507 0.9273, 1.2008 -0.0381 0.9127, 1.2008 -0.0302 0.8973, 1.2008 -0.0284 0.8967, 1.2008 -0.0858 0.9452, 1.2008 0.0292 1.378, 1.2008 -0.1023 0.947, 1.2008 -0.1208 0.9448, 1.2008 -0.1384 0.9381, 1.2008 -0.8071 1.378, 1.2008 -0.1464 0.9331, 1.2008 -0.8071 0.9331, 1.2008 -0.1479 0.9322, 1.2008 -0.1883 0.9144, 1.2008 -0.1733 0.9163, 1.2008 -0.1568 0.9246, 1.2008 -0.169 0.916, 1.2008 -0.1646 0.9155, 1.2008 -0.217 0.898, 1.2008 -0.2144 0.9005, 1.2008 -0.2023 0.909, 1.2008 -0.8071 0.8788, 1.2008 -0.8071 0.8632, 1.2008 -0.2338 0.8632, 1.2008 -0.2321 0.8727, 1.2008 -0.2294 0.8788, 1.2008 -0.2261 0.8863, 1.2008 -0.1933 0.7966, 1.2008 -0.207 0.8033, 1.2008 -0.8071 0.7942, 1.2008 -0.2189 0.8134, 1.2008 -0.2275 0.8258, 1.2008 -0.233 0.8399, 1.2008 -0.2348 0.8548, 1.2008 -0.2347 0.8584, 1.2008 -0.1885 0.7952, 1.2008 -0.188 0.7942, 1.2008 -0.1847 0.787, 1.2008 -0.179 0.7801, 1.2008 -0.8071 0.0, 1.2008 -0.2953 0.0, 1.2008 -0.8071 0.773, 1.2008 -0.2953 0.063, 1.2008 0.0292 0.063, 1.2008 0.0292 0.773, 1.2008 -0.1367 0.773, 1.2008 -0.1432 0.7705, 1.2008 -0.1524 0.7694, 1.2008 -0.1539 0.7694, 1.2008 -0.1629 0.7708, 1.2008 -0.1681 0.773, 1.2008 -0.1716 0.7745, 1.2008 0.0292 0.7942, 1.2008 -0.1169 0.7942, 1.2008 -0.1169 0.794, 1.2008 -0.1214 0.7855, 1.2008 -0.1272 0.779, 1.2008 -0.1348 0.7738, 1.2008 0.0056 0.86, 1.2008 0.0073 0.8476, 1.2008 0.0292 0.8632, 1.2008 -0.0684 0.8166, 1.2008 -0.0658 0.8176, 1.2008 -0.0614 0.8392, 1.2008 -0.0067 0.8115, 1.2008 -0.017 0.8028, 1.2008 -0.124 0.8328, 1.2008 -0.0731 0.8593, 1.2008 -0.1306 0.8388, 1.2008 -0.1387 0.8431, 1.2008 -0.0708 0.8149, 1.2008 0.0008 0.822, 1.2008 -0.0164 0.8505, 1.2008 -0.0182 0.8578, 1.2008 -0.0211 0.8632, 1.2008 -0.2099 0.8632, 1.2008 0.0056 0.834, 1.2008 -0.0629 0.818, 1.2008 -0.0625 0.8179, 1.2008 -0.0614 0.8177, 1.2008 -0.2077 0.8404, 1.2008 -0.2032 0.8327, 1.2008 -0.1839 0.8288, 1.2008 -0.1964 0.8257, 1.2008 -0.1881 0.8206, 1.2008 -0.1699 0.8413, 1.2008 -0.1777 0.8359, 1.2008 -0.2109 0.8555, 1.2008 -0.2104 0.8497, 1.2008 -0.1615 0.8445, 1.2008 -0.1524 0.8457, 1.2008 -0.1478 0.8454, 1.2008 -0.0746 0.8062, 1.2008 -0.0745 0.8077, 1.2008 -0.1145 0.8111, 1.2008 -0.0738 0.8106, 1.2008 -0.0723 0.8132, 1.2008 -0.0239 0.8271, 1.2008 -0.0197 0.833, 1.2008 -0.0171 0.8398, 1.2008 -0.0162 0.8472, 1.2008 -0.0658 0.7948, 1.2008 -0.0683 0.7958, 1.2008 -0.0707 0.7975, 1.2008 -0.0716 0.7984, 1.2008 -0.0733 0.8008, 1.2008 -0.0743 0.8034, 1.2008 -0.1147 0.8034, 1.2008 -0.1145 0.8073, 1.2008 -0.0286 0.7971, 1.2008 -0.0412 0.7944, 1.2008 -0.0636 0.7944, 1.2008 -0.0606 0.8176, 1.2008 -0.0435 0.8176, 1.2008 -0.0367 0.8189, 1.2008 -0.03 0.822, 1.2008 -0.0244 0.8266, 1.2008 -0.0488 0.8768, 1.2008 -0.2065 0.8732, 1.2008 -0.2098 0.8647, 1.2008 -0.0458 0.8768, 1.2008 -0.0217 0.8644, 1.2008 -0.0261 0.8692, 1.2008 -0.0319 0.8733, 1.2008 -0.0386 0.8759, 1.2008 -0.057 0.8996, 1.2008 -0.0656 0.9098, 1.2008 -0.1528 0.8878, 1.2008 -0.0665 0.9107, 1.2008 -0.0772 0.9181, 1.2008 -0.147 0.8998, 1.2008 -0.2026 0.8788, 1.2008 -0.1555 0.8893, 1.2008 -0.0493 0.8788, 1.2008 -0.0512 0.8874, 1.2008 -0.164 0.8924, 1.2008 -0.1729 0.8935, 1.2008 -0.1769 0.8933, 1.2008 -0.1385 0.91, 1.2008 -0.0891 0.9226, 1.2008 -0.1283 0.9174, 1.2008 -0.102 0.9242, 1.2008 -0.1159 0.9224, 1.2008 -0.1863 0.8911, 1.2008 -0.1947 0.8866, 1.2008 -0.2012 0.8808, 1.2008 -0.0043 0.8788, 1.2008 0.001 0.8716, 1.2008 0.0043 0.8632, 1.2008 0.2264 0.848, 1.2008 0.2158 0.848, 1.2008 0.1989 0.848, 1.2008 0.2058 0.8187, 1.2008 0.2058 0.8007, 1.2008 0.2158 0.8187, 1.2008 0.2158 0.8007, 1.2008 0.2249 0.8187, 1.2008 0.2276 0.8007, 1.2008 0.2249 0.8248, 1.2008 0.2264 0.8419, 1.2008 0.2158 0.8248, 1.2008 0.2158 0.8419, 1.2008 0.2058 0.8248, 1.2008 0.2058 0.8419, 1.2008 0.1848 0.8327, 1.2008 0.1917 0.8327, 1.2008 0.1658 0.8632, 1.2008 0.1658 0.8235, 1.2008 0.1725 0.8041, 1.2008 0.1743 0.804, 1.2008 0.2326 0.7942, 1.2008 0.2276 0.7946, 1.2008 0.2158 0.7942, 1.2008 0.2158 0.7946, 1.2008 0.1989 0.7946, 1.2008 0.1733 0.8009, 1.2008 0.1735 0.8009, 1.2008 0.1738 0.8023, 1.2008 0.1259 0.8029, 1.2008 0.1191 0.8632, 1.2008 0.1191 0.7942, 1.2008 0.1282 0.8014, 1.2008 0.1289 0.8011, 1.2008 0.1289 0.8152, 1.2008 0.1278 0.8164, 1.2008 0.1269 0.8178, 1.2008 0.1262 0.8199, 1.2008 0.1259 0.8225, 1.2008 0.1262 0.8248, 1.2008 0.1289 0.8153, 1.2008 0.1321 0.7942, 1.2008 0.1303 0.7944, 1.2008 0.1289 0.7942, 1.2008 0.1289 0.7948, 1.2008 0.1259 0.796, 1.2008 0.1362 0.7937, 1.2008 0.1289 0.773, 1.2008 0.1405 0.7942, 1.2008 0.1533 0.773, 1.2008 0.1494 0.8113, 1.2008 0.1506 0.8094, 1.2008 0.1498 0.8254, 1.2008 0.1302 0.8306, 1.2008 0.1321 0.8317, 1.2008 0.1289 0.8632, 1.2008 0.1533 0.7942, 1.2008 0.1505 0.8002, 1.2008 0.1492 0.7984, 1.2008 0.127 0.827, 1.2008 0.1282 0.8288, 1.2008 0.1289 0.8295, 1.2008 0.1513 0.8075, 1.2008 0.1516 0.805, 1.2008 0.1513 0.8023, 1.2008 0.1357 0.8331, 1.2008 0.1407 0.8336, 1.2008 0.1533 0.8632, 1.2008 0.1498 0.8319, 1.2008 0.1451 0.8333, 1.2008 0.1473 0.7967, 1.2008 0.1453 0.7956, 1.2008 0.1416 0.7943, 1.2008 0.1401 0.8282, 1.2008 0.1381 0.828, 1.2008 0.1328 0.8231, 1.2008 0.1363 0.8276, 1.2008 0.1348 0.8268, 1.2008 0.1329 0.8222, 1.2008 0.1331 0.8211, 1.2008 0.1336 0.8202, 1.2008 0.1343 0.8195, 1.2008 0.1366 0.818, 1.2008 0.1447 0.8276, 1.2008 0.1407 0.8162, 1.2008 0.1485 0.8262, 1.2008 0.1433 0.8152, 1.2008 0.1478 0.8127, 1.2008 0.1338 0.8259, 1.2008 0.1332 0.825, 1.2008 0.1329 0.8241, 1.2008 0.1324 0.7997, 1.2008 0.136 0.8114, 1.2008 0.132 0.8132, 1.2008 0.1369 0.7992, 1.2008 0.1372 0.7992, 1.2008 0.1404 0.8095, 1.2008 0.1406 0.7996, 1.2008 0.1447 0.8043, 1.2008 0.1447 0.8052, 1.2008 0.1423 0.8002, 1.2008 0.1429 0.8006, 1.2008 0.1437 0.8012, 1.2008 0.1443 0.8021, 1.2008 0.1446 0.8031, 1.2008 0.1444 0.8062, 1.2008 0.1439 0.8071, 1.2008 0.143 0.808, 1.2008 0.2826 0.8788, 1.2008 0.2653 0.8793, 1.2008 0.2577 0.8793, 1.2008 0.245 0.9327, 1.2008 0.2826 0.9331, 1.2008 0.2326 0.9331, 1.2008 0.2249 0.8793, 1.2008 0.2173 0.8793, 1.2008 0.2158 0.8788, 1.2008 0.2326 0.8939, 1.2008 0.23 0.8939, 1.2008 0.2158 0.9331, 1.2008 0.2326 0.9197, 1.2008 0.2376 0.9327, 1.2008 0.1607 0.8854, 1.2008 0.1607 0.8793, 1.2008 0.1658 0.8788, 1.2008 0.1533 0.9331, 1.2008 0.1595 0.9327, 1.2008 0.1658 0.9331, 1.2008 0.1595 0.9265, 1.2008 0.1389 0.9033, 1.2008 0.1389 0.8854, 1.2008 0.1533 0.9033, 1.2008 0.1533 0.8854, 1.2008 0.158 0.9033, 1.2008 0.158 0.9095, 1.2008 0.1389 0.9265, 1.2008 0.1389 0.9095, 1.2008 0.1533 0.9265, 1.2008 0.1533 0.9095, 1.2008 0.132 0.8793, 1.2008 0.1289 0.8788, 1.2008 0.1533 0.8788, 1.2008 0.1533 0.8793, 1.2008 0.1289 0.9331, 1.2008 0.132 0.9327, 1.2008 0.1533 0.9327, 1.2008 0.2953 0.0, 1.2008 0.2953 0.063, 1.2008 0.5696 0.773, 1.2008 0.2826 0.063, 1.2008 0.2826 0.773, 1.2008 0.2326 0.063, 1.2008 0.2326 0.773, 1.2008 0.2158 0.063, 1.2008 0.2158 0.773, 1.2008 0.1658 0.063, 1.2008 0.1658 0.773, 1.2008 0.1533 0.063, 1.2008 0.1289 0.063, 1.2008 0.1191 0.063, 1.2008 0.1191 0.773, 1.2008 0.1191 0.9252, 1.2008 0.1076 0.8845, 1.2008 0.1108 0.8847, 1.2008 0.1168 0.886, 1.2008 0.1191 0.8871, 1.2008 0.1208 0.9245, 1.2008 0.1214 0.8881, 1.2008 0.1214 0.9242, 1.2008 0.1088 0.9274, 1.2008 0.1066 0.9273, 1.2008 0.0942 0.9214, 1.2008 0.102 0.9264, 1.2008 0.0978 0.9244, 1.2008 0.0938 0.921, 1.2008 0.0913 0.9173, 1.2008 0.0895 0.9127, 1.2008 0.0886 0.9054, 1.2008 0.0887 0.9034, 1.2008 0.0895 0.8981, 1.2008 0.0951 0.8889, 1.2008 0.0987 0.8865, 1.2008 0.1026 0.8851, 1.2008 0.1153 0.9266, 1.2008 0.0913 0.8938, 1.2008 0.0939 0.8902, 1.2008 0.1144 0.9331, 1.2008 0.1157 0.933, 1.2008 0.1191 0.9331, 1.2008 0.1191 0.9321, 1.2008 0.1214 0.9314, 1.2008 0.0954 0.9305, 1.2008 0.101 0.9327, 1.2008 0.0838 0.9331, 1.2008 0.0857 0.9215, 1.2008 0.0891 0.9257, 1.2008 0.0903 0.9269, 1.2008 0.0806 0.9331, 1.2008 0.083 0.9157, 1.2008 0.0838 0.9174, 1.2008 0.0824 0.8964, 1.2008 0.0806 0.8788, 1.2008 0.0814 0.905, 1.2008 0.0816 0.909, 1.2008 0.0971 0.8799, 1.2008 0.0921 0.8824, 1.2008 0.0882 0.8857, 1.2008 0.0878 0.8862, 1.2008 0.1017 0.8788, 1.2008 0.0838 0.8632, 1.2008 0.1027 0.8786, 1.2008 0.1066 0.8784, 1.2008 0.1113 0.8788, 1.2008 0.1214 0.8815, 1.2008 0.1204 0.8811, 1.2008 0.1191 0.8788, 1.2008 0.1191 0.8806, 1.2008 0.1147 0.8792, 1.2008 0.0888 0.8127, 1.2008 0.0899 0.8236, 1.2008 0.0875 0.8108, 1.2008 0.0866 0.8084, 1.2008 0.0908 0.8145, 1.2008 0.0936 0.816, 1.2008 0.0941 0.8263, 1.2008 0.0988 0.8173, 1.2008 0.1047 0.8279, 1.2008 0.1024 0.8282, 1.2008 0.0983 0.8278, 1.2008 0.0917 0.7951, 1.2008 0.0894 0.7967, 1.2008 0.0838 0.7942, 1.2008 0.0887 0.7975, 1.2008 0.0873 0.7995, 1.2008 0.1069 0.8333, 1.2008 0.1097 0.8324, 1.2008 0.112 0.8312, 1.2008 0.1138 0.8295, 1.2008 0.1152 0.8274, 1.2008 0.1101 0.8005, 1.2008 0.1099 0.8005, 1.2008 0.1101 0.7946, 1.2008 0.1089 0.7989, 1.2008 0.1068 0.7966, 1.2008 0.0865 0.8018, 1.2008 0.0862 0.8048, 1.2008 0.0899 0.8301, 1.2008 0.1162 0.8244, 1.2008 0.1168 0.8192, 1.2008 0.1168 0.7946, 1.2008 0.0913 0.8309, 1.2008 0.0963 0.8328, 1.2008 0.103 0.8336, 1.2008 0.1101 0.8189, 1.2008 0.1099 0.8218, 1.2008 0.1092 0.8242, 1.2008 0.1084 0.8256, 1.2008 0.1074 0.8266, 1.2008 0.1062 0.8274, 1.2008 0.1019 0.7942, 1.2008 0.1017 0.7941, 1.2008 0.0838 0.773, 1.2008 0.0838 0.063, 1.2008 0.0983 0.7937, 1.2008 0.0944 0.7942, 1.2008 0.0943 0.7942, 1.2008 0.1626 0.8327, 1.2008 0.1551 0.8327, 1.2008 0.1698 0.7942, 1.2008 0.17 0.7947, 1.2008 0.1658 0.8055, 1.2008 0.1671 0.7878, 1.2008 0.1658 0.7942, 1.2008 0.1658 0.7854, 1.2008 0.1658 0.7854, 1.2008 0.1565 0.7832, 1.2008 0.1565 0.7772, 1.2008 0.1578 0.7827, 1.2008 0.1603 0.7824, 1.2008 0.1619 0.7826, 1.2008 0.1658 0.7779, 1.2008 0.1635 0.777, 1.2008 0.1608 0.7767, 1.2008 0.1593 0.7767, 1.2008 0.1633 0.7831, 1.2008 0.1646 0.784, 1.2008 0.1744 0.7889, 1.2008 0.1714 0.783, 1.2008 0.1765 0.7942, 1.2008 0.1689 0.78, 1.2008 0.1685 0.7796, 1.2008 0.1661 0.778, 1.2008 0.1044 0.7951, 1.2008 0.0511 0.848, 1.2008 0.0511 0.7946, 1.2008 0.0806 0.7942, 1.2008 0.0806 0.773, 1.2008 0.0806 0.063, 1.2008 0.0786 0.848, 1.2008 0.0806 0.8632, 1.2008 0.0786 0.8419, 1.2008 0.0798 0.8007, 1.2008 0.0798 0.7946, 1.2008 0.0579 0.8187, 1.2008 0.0579 0.8007, 1.2008 0.077 0.8187, 1.2008 0.077 0.8248, 1.2008 0.0579 0.8248, 1.2008 0.0579 0.8419, 1.2008 0.2611 0.8471, 1.2008 0.2675 0.8447, 1.2008 0.2826 0.8632, 1.2008 0.2783 0.8344, 1.2008 0.2803 0.8293, 1.2008 0.2811 0.822, 1.2008 0.2826 0.7942, 1.2008 0.2809 0.8176, 1.2008 0.2794 0.8115, 1.2008 0.2766 0.8061, 1.2008 0.2731 0.8021, 1.2008 0.2675 0.7981, 1.2008 0.2614 0.7957, 1.2008 0.2524 0.7946, 1.2008 0.2377 0.7946, 1.2008 0.2377 0.848, 1.2008 0.2529 0.848, 1.2008 0.2731 0.8409, 1.2008 0.275 0.8391, 1.2008 0.2917 0.7946, 1.2008 0.2841 0.7946, 1.2008 0.3245 0.7946, 1.2008 0.3191 0.8092, 1.2008 0.2968 0.8092, 1.2008 0.3044 0.848, 1.2008 0.3118 0.848, 1.2008 0.5696 0.7942, 1.2008 0.2522 0.8939, 1.2008 0.0511 0.8793, 1.2008 0.0511 0.9327, 1.2008 0.0792 0.8793, 1.2008 0.1855 0.8793, 1.2008 0.1708 0.8793, 1.2008 0.2126 0.8962, 1.2008 0.2097 0.8908, 1.2008 0.1708 0.9327, 1.2008 0.1861 0.9327, 1.2008 0.1942 0.9318, 1.2008 0.2007 0.9294, 1.2008 0.2114 0.9191, 1.2008 0.2134 0.914, 1.2008 0.2143 0.9067, 1.2008 0.214 0.9023, 1.2008 0.2062 0.8868, 1.2008 0.2006 0.8828, 1.2008 0.1945 0.8804, 1.2008 0.2062 0.9256, 1.2008 0.2082 0.9237, 1.2008 0.3321 0.7946, 1.2008 0.5696 0.8632, 1.2008 0.5696 0.8788, 1.2008 0.5696 0.9331, 1.2008 0.8071 0.7942, 1.2008 0.8071 0.8632, 1.2008 0.8071 0.8788, 1.2008 0.8071 0.9331, 1.2008 0.105 0.9331, 1.2008 0.0838 1.378, 1.2008 0.0806 1.378, 1.2008 0.8071 1.378, 1.2008 0.5696 1.378, 1.2008 0.2826 1.378, 1.2008 0.2326 1.378, 1.2008 0.2158 1.378, 1.2008 0.1658 1.378, 1.2008 0.1533 1.378, 1.2008 0.1289 1.378, 1.2008 0.1191 1.378, 1.2008 0.1087 0.9336, 0.8071 1.2008 0.0, 0.6102 0.2953 0.0, 0.6102 -0.2953 0.0, 0.8071 -1.2008 0.0, 0.4921 -1.2008 0.0, 0.4921 1.2008 0.0, 0.9843 0.748 1.6142, 1.0039 0.748 1.6142, 1.0039 0.8071 1.6142, 0.748 0.9843 1.6142, -0.0 0.9843 1.6142, 0.0672 0.982 1.6142, 0.841 0.5114 1.6142, 0.9028 0.3921 1.6142, 0.8071 1.0039 1.6142, 0.748 1.0039 1.6142, 0.2003 0.9637 1.6142, 0.3296 0.9274 1.6142, 0.4528 0.8739 1.6142, 0.5676 0.8041 1.6142, 0.6718 0.7193 1.6142, 0.7635 0.6211 1.6142, 0.9478 0.2655 1.6142, 0.9751 0.134 1.6142, 0.9843 -0.0 1.6142, -1.0039 0.8071 1.6142, -1.0039 0.748 1.6142, -0.9843 0.748 1.6142, -0.8071 1.0039 1.6142, -0.748 0.9843 1.6142, -0.748 1.0039 1.6142, -0.5676 0.8041 1.6142, -0.4528 0.8739 1.6142, -0.3296 0.9274 1.6142, -0.2003 0.9637 1.6142, -0.0672 0.982 1.6142, -0.9843 -0.0 1.6142, -0.9751 0.134 1.6142, -0.9478 0.2655 1.6142, -0.9028 0.3921 1.6142, -0.841 0.5114 1.6142, -0.7635 0.6211 1.6142, -0.6718 0.7193 1.6142, -0.9751 -0.134 1.6142, -0.9843 -0.748 1.6142, -1.0039 -0.748 1.6142, -1.0039 -0.8071 1.6142, -0.8071 -1.0039 1.6142, -0.748 -0.9843 1.6142, -0.748 -1.0039 1.6142, -0.0 -0.9843 1.6142, -0.0672 -0.982 1.6142, -0.2003 -0.9637 1.6142, -0.3296 -0.9274 1.6142, -0.4528 -0.8739 1.6142, -0.841 -0.5114 1.6142, -0.9028 -0.3921 1.6142, -0.9478 -0.2655 1.6142, -0.5676 -0.8041 1.6142, -0.6718 -0.7193 1.6142, -0.7635 -0.6211 1.6142, 1.0039 -0.748 1.6142, 1.0039 -0.8071 1.6142, 1.0039 -0.748 0.9843, 1.0039 -0.8071 0.9843, 0.748 -1.0039 0.9843, 0.8071 -1.0039 0.9843, 0.748 -1.0039 1.6142, 0.8071 -1.0039 1.6142, 0.748 1.0039 0.9843, 0.8071 1.0039 0.9843, -1.0039 -0.748 0.9843, -1.0039 -0.8071 0.9843, -0.8071 -1.0827 0.9843, 0.8071 -1.0827 0.9843, 1.0827 -0.8071 0.9843, 1.0827 0.8071 0.9843, 1.0039 0.748 0.9843, 1.0039 0.8071 0.9843, -0.9843 -0.748 0.9843, -0.9843 0.748 0.9843, -1.0039 0.748 0.9843, -0.748 0.9843 0.9843, 0.748 0.9843 0.9843, -0.748 1.0039 0.9843, 0.8071 1.0827 0.9843, -0.7677 1.0827 0.9843, 0.9843 0.748 0.9843, 0.9843 -0.748 0.9843, -1.0827 -0.8071 0.9843, -0.8071 -1.0039 0.9843, -0.748 -1.0039 0.9843, -0.748 -0.9843 0.9843, 0.748 -0.9843 0.9843, -1.0827 0.7677 0.9843, -1.0039 0.8071 0.9843, -0.8071 1.0039 0.9843, -1.2008 -0.2953 0.0, -1.2008 -0.8071 0.0, -1.2008 -0.2953 0.063, -1.2008 -0.8071 1.378, -1.2008 0.2953 0.063, -1.2008 0.8071 1.378, -1.2008 0.2953 0.0, -1.2008 0.8071 0.0, -0.8071 -1.2008 1.378, -0.8071 -1.2008 0.0, -0.4921 -1.2008 0.0, -0.4921 -1.2008 0.0394, 0.4921 -1.2008 0.0394, 0.8071 -1.2008 1.378, 0.8071 1.2008 1.378, 0.4921 1.2008 0.0394, -0.4921 1.2008 0.0, -0.8071 1.2008 0.0, -0.4921 1.2008 0.0394, -0.8071 1.2008 1.378, -0.8071 -1.0827 1.378, 0.8071 -1.0827 1.378, 1.0827 -0.8071 1.378, 1.0827 0.8071 1.378, 0.8071 1.0827 1.378, -0.7677 1.0827 1.378, -1.0827 0.7677 1.378, -1.0827 -0.8071 1.378, -0.6102 -0.2953 0.0, -0.6102 0.2953 0.0, 0.748 -0.9843 1.6142, 0.4528 -0.8739 1.6142, 0.3296 -0.9274 1.6142, 0.9843 -0.748 1.6142, 0.9751 -0.134 1.6142, 0.9478 -0.2655 1.6142, 0.9028 -0.3921 1.6142, 0.5676 -0.8041 1.6142, 0.2003 -0.9637 1.6142, 0.0672 -0.982 1.6142, 0.841 -0.5114 1.6142, 0.7635 -0.6211 1.6142, 0.6718 -0.7193 1.6142, 0.2003 0.9637 1.6929, 0.3296 0.9274 1.6929, 0.4528 0.8739 1.6929, 0.5676 0.8041 1.6929, 0.6718 0.7193 1.6929, 0.7635 0.6211 1.6929, 0.841 0.5114 1.6929, 0.9028 0.3921 1.6929, 0.9478 0.2655 1.6929, 0.9751 0.134 1.6929, 0.9843 0.0 1.6929, 0.9751 -0.134 1.6929, 0.9478 -0.2655 1.6929, 0.9028 -0.3921 1.6929, 0.841 -0.5114 1.6929, 0.7635 -0.6211 1.6929, 0.6718 -0.7193 1.6929, 0.5676 -0.8041 1.6929, 0.4528 -0.8739 1.6929, 0.3296 -0.9274 1.6929, 0.2003 -0.9637 1.6929, 0.0672 -0.982 1.6929, -0.0672 0.982 1.6929, 0.0672 0.982 1.6929, -0.2003 0.9637 1.6929, -0.3296 0.9274 1.6929, -0.4528 0.8739 1.6929, -0.5676 0.8041 1.6929, -0.6718 0.7193 1.6929, -0.7635 0.6211 1.6929, -0.841 0.5114 1.6929, -0.9028 0.3921 1.6929, -0.9478 0.2655 1.6929, -0.9751 0.134 1.6929, -0.9843 0.0 1.6929, -0.9751 -0.134 1.6929, -0.9478 -0.2655 1.6929, -0.9028 -0.3921 1.6929, -0.841 -0.5114 1.6929, -0.7635 -0.6211 1.6929, -0.6718 -0.7193 1.6929, -0.5676 -0.8041 1.6929, -0.4528 -0.8739 1.6929, -0.3296 -0.9274 1.6929, -0.2003 -0.9637 1.6929, -0.0672 -0.982 1.6929, 0.0 0.0 1.6929, 0.0 0.0 1.6929
            ]
        }
        coordIndex [
            0,1,2,-1,3,4,5,-1,6,7,8,-1,9,10,11,-1,12,13,14,-1,14,13,15,-1,16,17,14,-1,14,17,18,-1,14,18,19,-1,19,20,14,-1,14,20,21,-1,14,21,12,-1,22,23,24,-1,24,23,25,-1,25,23,26,-1,26,23,27,-1,26,27,28,-1,28,27,29,-1,28,29,30,-1,29,31,30,-1,30,31,32,-1,30,32,33,-1,33,32,34,-1,33,34,35,-1,36,37,29,-1,29,37,38,-1,29,38,31,-1,39,40,41,-1,41,42,39,-1,39,42,43,-1,39,43,29,-1,29,43,44,-1,29,44,36,-1,45,46,47,-1,47,46,48,-1,47,48,49,-1,49,50,47,-1,47,50,51,-1,47,51,40,-1,40,51,52,-1,40,52,41,-1,53,45,54,-1,54,45,47,-1,54,47,55,-1,55,47,56,-1,57,58,59,-1,59,58,60,-1,61,62,63,-1,63,64,61,-1,61,64,65,-1,61,65,60,-1,65,66,60,-1,60,66,67,-1,60,67,59,-1,59,67,68,-1,59,68,47,-1,47,68,69,-1,47,69,56,-1,70,71,62,-1,62,71,72,-1,62,72,73,-1,73,74,62,-1,62,74,75,-1,62,75,63,-1,76,77,78,-1,79,80,81,-1,82,83,70,-1,84,85,86,-1,86,85,87,-1,79,81,88,-1,82,70,89,-1,90,91,85,-1,85,91,92,-1,85,92,93,-1,78,77,70,-1,70,77,94,-1,70,94,89,-1,80,95,81,-1,81,95,96,-1,81,96,97,-1,98,99,100,-1,100,99,101,-1,100,101,102,-1,103,93,104,-1,104,93,105,-1,104,105,100,-1,100,105,106,-1,100,106,98,-1,103,107,93,-1,93,107,108,-1,93,108,85,-1,85,108,109,-1,85,109,87,-1,110,111,112,-1,112,111,113,-1,112,113,81,-1,81,113,114,-1,81,114,88,-1,115,116,81,-1,81,116,117,-1,81,117,85,-1,85,117,118,-1,85,118,90,-1,119,120,71,-1,71,120,121,-1,71,121,122,-1,122,123,71,-1,71,123,124,-1,71,124,125,-1,125,124,110,-1,125,110,126,-1,126,110,112,-1,83,127,70,-1,70,127,128,-1,70,128,71,-1,71,128,129,-1,71,129,119,-1,97,130,81,-1,81,130,131,-1,81,131,132,-1,132,133,81,-1,81,133,134,-1,81,134,115,-1,135,136,137,-1,137,93,135,-1,135,93,92,-1,135,92,138,-1,138,92,139,-1,139,140,138,-1,138,140,141,-1,138,141,142,-1,143,144,145,-1,144,146,145,-1,145,146,147,-1,145,147,148,-1,149,145,150,-1,136,135,149,-1,149,135,151,-1,149,151,145,-1,145,151,152,-1,145,152,143,-1,150,153,149,-1,149,153,154,-1,149,154,155,-1,148,147,156,-1,156,147,157,-1,156,157,158,-1,158,157,159,-1,158,159,160,-1,161,162,155,-1,155,162,163,-1,155,163,149,-1,13,164,15,-1,15,164,165,-1,15,165,78,-1,78,165,166,-1,78,166,76,-1,167,4,168,-1,168,4,3,-1,168,3,169,-1,170,171,172,-1,172,171,173,-1,172,173,174,-1,174,173,175,-1,174,175,176,-1,176,175,177,-1,176,177,178,-1,178,177,179,-1,178,179,180,-1,180,179,181,-1,182,183,184,-1,185,186,187,-1,167,177,4,-1,4,177,175,-1,4,175,188,-1,188,175,189,-1,188,189,190,-1,190,189,191,-1,190,191,192,-1,193,194,186,-1,186,194,195,-1,186,195,187,-1,196,197,198,-1,199,200,201,-1,202,203,196,-1,203,204,196,-1,196,204,205,-1,196,205,197,-1,197,205,206,-1,199,201,196,-1,196,201,207,-1,196,207,202,-1,208,209,210,-1,210,209,211,-1,210,211,198,-1,198,211,212,-1,198,212,196,-1,213,214,215,-1,215,214,216,-1,217,218,219,-1,220,221,222,-1,223,224,225,-1,206,226,197,-1,197,226,227,-1,197,227,222,-1,222,227,228,-1,222,228,220,-1,229,230,223,-1,223,230,231,-1,223,231,224,-1,221,232,222,-1,222,232,233,-1,222,233,234,-1,218,229,219,-1,219,229,223,-1,219,223,235,-1,235,223,234,-1,235,234,236,-1,236,234,233,-1,225,237,223,-1,223,237,238,-1,223,238,239,-1,240,241,242,-1,242,241,243,-1,242,243,244,-1,242,245,240,-1,240,245,246,-1,240,246,247,-1,247,248,240,-1,240,248,249,-1,240,249,250,-1,250,249,251,-1,250,251,252,-1,252,251,253,-1,252,253,219,-1,219,253,254,-1,219,254,217,-1,255,256,244,-1,244,256,257,-1,244,257,242,-1,258,259,200,-1,200,259,260,-1,200,260,201,-1,258,261,259,-1,259,261,262,-1,259,262,263,-1,263,262,264,-1,263,265,266,-1,264,267,263,-1,263,267,268,-1,263,268,269,-1,269,270,263,-1,263,270,271,-1,263,271,265,-1,266,272,263,-1,263,272,273,-1,263,273,274,-1,275,276,277,-1,276,275,278,-1,278,275,279,-1,278,279,280,-1,281,282,283,-1,5,284,285,-1,283,282,286,-1,286,282,287,-1,286,287,280,-1,280,287,288,-1,280,288,278,-1,289,290,291,-1,292,293,294,-1,294,293,295,-1,296,297,298,-1,298,297,299,-1,298,299,300,-1,300,299,289,-1,300,289,301,-1,302,303,304,-1,304,303,305,-1,304,305,295,-1,306,307,308,-1,291,290,308,-1,308,290,309,-1,308,309,306,-1,310,311,292,-1,292,311,312,-1,292,312,293,-1,313,6,314,-1,314,6,315,-1,314,315,316,-1,316,315,317,-1,316,317,318,-1,318,317,319,-1,318,319,320,-1,320,319,321,-1,320,321,322,-1,322,321,323,-1,322,323,324,-1,324,323,216,-1,324,216,325,-1,325,216,214,-1,325,214,326,-1,326,214,327,-1,328,329,330,-1,330,331,328,-1,328,331,332,-1,328,332,333,-1,333,332,334,-1,333,334,335,-1,335,334,307,-1,335,307,310,-1,310,307,306,-1,310,306,311,-1,336,337,338,-1,338,337,339,-1,338,339,340,-1,341,342,328,-1,328,342,343,-1,343,344,328,-1,328,344,345,-1,328,345,346,-1,347,348,328,-1,328,348,349,-1,328,349,329,-1,341,328,338,-1,338,328,350,-1,338,350,336,-1,346,351,328,-1,328,351,352,-1,328,352,347,-1,353,354,355,-1,355,354,356,-1,355,356,310,-1,310,356,357,-1,310,357,335,-1,358,359,360,-1,361,362,360,-1,360,362,363,-1,360,363,358,-1,364,365,360,-1,360,365,366,-1,360,366,361,-1,10,367,368,-1,368,367,369,-1,368,369,364,-1,364,369,370,-1,364,370,365,-1,371,372,11,-1,372,373,11,-1,11,373,374,-1,11,374,9,-1,371,11,375,-1,375,11,376,-1,375,376,377,-1,377,376,378,-1,378,376,197,-1,378,197,379,-1,334,380,307,-1,307,380,381,-1,307,381,382,-1,382,381,383,-1,382,383,384,-1,385,386,387,-1,387,386,388,-1,385,389,386,-1,386,389,390,-1,386,390,391,-1,391,390,392,-1,393,394,392,-1,392,394,395,-1,392,395,391,-1,396,397,398,-1,398,397,399,-1,398,399,400,-1,401,402,197,-1,402,403,197,-1,197,403,404,-1,197,404,405,-1,406,407,408,-1,408,407,409,-1,408,409,410,-1,400,411,398,-1,398,411,412,-1,398,412,376,-1,376,412,388,-1,376,388,413,-1,413,388,386,-1,405,414,197,-1,197,414,415,-1,197,415,198,-1,198,415,416,-1,198,416,408,-1,413,417,376,-1,376,417,418,-1,376,418,197,-1,197,418,419,-1,197,419,401,-1,420,421,392,-1,392,421,422,-1,392,422,423,-1,423,424,392,-1,392,424,425,-1,392,425,393,-1,426,427,327,-1,427,428,327,-1,327,428,429,-1,327,429,326,-1,427,430,428,-1,428,430,431,-1,428,431,398,-1,398,431,432,-1,398,432,396,-1,187,182,185,-1,185,182,184,-1,185,184,433,-1,433,184,434,-1,435,436,437,-1,438,439,440,-1,440,439,441,-1,439,223,442,-1,239,215,223,-1,223,215,216,-1,223,216,442,-1,442,216,443,-1,442,444,439,-1,439,444,445,-1,439,445,446,-1,447,448,323,-1,323,448,449,-1,323,449,216,-1,216,449,450,-1,216,450,443,-1,446,451,439,-1,439,451,452,-1,439,452,441,-1,453,454,321,-1,453,321,455,-1,454,456,321,-1,321,456,457,-1,321,457,323,-1,323,457,458,-1,323,458,447,-1,213,208,214,-1,214,208,210,-1,214,210,327,-1,327,210,198,-1,327,198,426,-1,426,198,408,-1,426,408,459,-1,459,408,410,-1,460,78,461,-1,461,78,70,-1,461,70,462,-1,462,70,62,-1,462,62,463,-1,463,62,61,-1,463,61,464,-1,460,465,466,-1,465,467,466,-1,466,467,468,-1,466,468,462,-1,462,468,469,-1,462,469,461,-1,470,471,472,-1,472,471,468,-1,472,468,473,-1,473,468,467,-1,473,467,474,-1,474,467,475,-1,476,477,478,-1,479,480,478,-1,478,480,481,-1,478,481,482,-1,482,481,483,-1,482,483,484,-1,484,485,482,-1,482,485,486,-1,482,486,487,-1,487,488,482,-1,482,488,489,-1,482,489,188,-1,188,489,490,-1,188,490,4,-1,4,490,491,-1,4,491,492,-1,477,493,478,-1,478,493,494,-1,478,494,479,-1,495,496,482,-1,497,498,499,-1,482,496,478,-1,478,496,500,-1,478,500,501,-1,10,368,11,-1,11,368,466,-1,11,466,376,-1,376,466,462,-1,376,462,398,-1,398,462,463,-1,398,463,428,-1,428,463,464,-1,428,464,429,-1,384,379,382,-1,382,379,197,-1,382,197,307,-1,307,197,222,-1,307,222,308,-1,308,222,234,-1,308,234,291,-1,315,502,317,-1,317,502,482,-1,317,482,319,-1,319,482,188,-1,319,188,321,-1,321,188,190,-1,321,190,455,-1,455,190,192,-1,455,192,183,-1,183,192,169,-1,183,169,184,-1,184,169,3,-1,184,3,283,-1,283,3,5,-1,283,5,281,-1,281,5,285,-1,503,284,277,-1,277,284,5,-1,277,5,275,-1,275,5,4,-1,275,4,478,-1,478,4,492,-1,478,492,476,-1,460,466,78,-1,78,466,368,-1,78,368,15,-1,15,368,504,-1,15,504,14,-1,504,505,14,-1,14,505,0,-1,14,0,364,-1,364,0,2,-1,364,2,368,-1,368,2,506,-1,368,506,504,-1,507,508,291,-1,291,508,294,-1,291,294,289,-1,289,294,295,-1,289,295,301,-1,301,295,305,-1,283,509,510,-1,508,511,294,-1,294,511,512,-1,294,512,286,-1,286,512,513,-1,286,513,514,-1,515,516,286,-1,286,516,517,-1,286,517,283,-1,283,517,518,-1,283,518,509,-1,510,519,283,-1,283,519,520,-1,283,520,521,-1,521,507,283,-1,283,507,291,-1,283,291,184,-1,184,291,234,-1,184,234,434,-1,434,234,223,-1,434,223,437,-1,437,223,439,-1,437,439,435,-1,435,439,438,-1,514,522,286,-1,286,522,523,-1,286,523,515,-1,499,495,497,-1,497,495,482,-1,497,482,524,-1,524,482,502,-1,524,502,501,-1,501,502,525,-1,501,525,478,-1,478,525,526,-1,478,526,275,-1,275,526,527,-1,275,527,279,-1,6,8,315,-1,315,8,528,-1,315,528,502,-1,502,528,529,-1,502,529,525,-1,525,529,530,-1,525,530,526,-1,526,530,531,-1,526,531,527,-1,359,532,360,-1,360,532,533,-1,360,533,364,-1,364,533,534,-1,364,534,14,-1,14,534,23,-1,14,23,16,-1,16,23,22,-1,531,535,527,-1,527,535,536,-1,527,536,279,-1,279,536,537,-1,279,537,280,-1,280,537,538,-1,280,538,286,-1,286,538,539,-1,286,539,294,-1,294,539,540,-1,294,540,292,-1,292,540,541,-1,292,541,310,-1,310,541,542,-1,310,542,355,-1,355,542,543,-1,355,543,353,-1,353,543,533,-1,353,533,544,-1,544,533,532,-1,7,313,545,-1,545,313,546,-1,547,58,57,-1,57,548,547,-1,547,548,549,-1,547,549,546,-1,546,549,550,-1,546,550,545,-1,551,552,553,-1,554,555,556,-1,557,558,551,-1,551,553,554,-1,554,553,559,-1,554,559,560,-1,556,561,554,-1,554,561,562,-1,554,562,563,-1,563,564,554,-1,554,564,565,-1,554,565,551,-1,551,565,566,-1,551,566,557,-1,558,567,551,-1,551,567,568,-1,551,568,569,-1,570,571,572,-1,570,572,573,-1,573,572,574,-1,573,574,575,-1,576,577,574,-1,574,577,578,-1,578,579,574,-1,574,579,580,-1,574,580,555,-1,581,582,572,-1,572,582,583,-1,572,583,584,-1,584,585,572,-1,572,585,586,-1,572,586,574,-1,574,586,587,-1,574,587,576,-1,588,581,589,-1,590,591,589,-1,589,591,592,-1,589,592,593,-1,593,592,594,-1,593,595,596,-1,596,597,593,-1,593,597,598,-1,593,598,599,-1,600,601,589,-1,589,601,602,-1,589,602,588,-1,599,603,593,-1,593,603,604,-1,593,604,589,-1,589,604,605,-1,589,605,600,-1,606,607,608,-1,608,607,609,-1,610,611,612,-1,612,611,613,-1,560,559,614,-1,614,559,615,-1,616,617,590,-1,590,617,591,-1,610,618,619,-1,620,621,622,-1,622,621,623,-1,624,625,616,-1,616,625,626,-1,627,628,629,-1,629,628,614,-1,623,621,615,-1,615,621,630,-1,615,630,614,-1,614,630,631,-1,614,631,629,-1,632,633,622,-1,622,633,608,-1,622,608,620,-1,620,608,609,-1,620,609,619,-1,619,609,611,-1,619,611,610,-1,617,634,635,-1,635,634,618,-1,635,618,636,-1,636,618,610,-1,636,610,637,-1,637,610,638,-1,617,616,634,-1,634,616,626,-1,634,626,639,-1,639,626,640,-1,639,640,631,-1,631,640,641,-1,631,641,629,-1,642,643,644,-1,644,643,645,-1,644,645,646,-1,646,645,647,-1,646,647,648,-1,648,647,649,-1,650,645,651,-1,651,645,643,-1,651,652,653,-1,549,548,654,-1,654,548,655,-1,654,655,653,-1,653,655,650,-1,653,650,651,-1,27,655,57,-1,57,655,548,-1,656,535,545,-1,545,535,7,-1,545,550,657,-1,658,659,660,-1,660,659,661,-1,660,661,657,-1,657,661,656,-1,657,656,545,-1,647,661,649,-1,649,661,659,-1,662,650,663,-1,663,650,655,-1,663,655,664,-1,664,655,27,-1,664,27,665,-1,665,27,535,-1,665,535,666,-1,666,535,656,-1,666,656,667,-1,667,656,661,-1,667,661,668,-1,668,661,647,-1,668,647,669,-1,669,647,645,-1,669,645,662,-1,662,645,650,-1,649,659,658,-1,643,642,651,-1,651,642,670,-1,648,649,671,-1,671,649,658,-1,671,658,670,-1,670,658,652,-1,670,652,651,-1,639,631,668,-1,668,631,667,-1,631,630,667,-1,667,630,666,-1,630,621,666,-1,666,621,665,-1,621,620,665,-1,665,620,664,-1,620,619,664,-1,664,619,663,-1,619,618,663,-1,663,618,662,-1,618,634,662,-1,662,634,669,-1,634,639,669,-1,669,639,668,-1,570,573,640,-1,640,573,641,-1,571,570,626,-1,626,570,640,-1,592,591,635,-1,635,591,617,-1,594,592,636,-1,636,592,635,-1,607,613,609,-1,609,613,611,-1,622,623,552,-1,552,623,553,-1,559,553,615,-1,615,553,623,-1,629,641,575,-1,575,641,573,-1,672,612,613,-1,673,674,672,-1,672,613,675,-1,675,613,607,-1,675,607,606,-1,569,676,675,-1,675,676,677,-1,675,677,678,-1,673,672,679,-1,674,680,672,-1,672,680,681,-1,672,681,595,-1,678,682,675,-1,675,682,683,-1,675,683,672,-1,672,683,684,-1,672,684,679,-1,589,624,590,-1,590,624,616,-1,572,625,581,-1,581,625,624,-1,581,624,589,-1,571,626,572,-1,572,626,625,-1,554,628,555,-1,555,628,627,-1,555,627,574,-1,560,614,554,-1,554,614,628,-1,574,627,575,-1,575,627,629,-1,672,638,612,-1,612,638,610,-1,593,637,595,-1,595,637,638,-1,595,638,672,-1,594,636,593,-1,593,636,637,-1,675,633,569,-1,569,633,632,-1,569,632,551,-1,606,608,675,-1,675,608,633,-1,551,632,552,-1,552,632,622,-1,556,685,561,-1,561,685,686,-1,561,686,562,-1,562,686,687,-1,562,687,563,-1,563,687,688,-1,563,688,564,-1,564,688,689,-1,564,689,565,-1,565,689,690,-1,565,690,566,-1,566,690,691,-1,566,691,557,-1,557,691,692,-1,557,692,558,-1,558,692,693,-1,558,693,567,-1,567,693,694,-1,567,694,568,-1,568,694,695,-1,568,695,569,-1,569,695,696,-1,569,696,676,-1,676,696,697,-1,676,697,677,-1,677,697,698,-1,677,698,678,-1,678,698,699,-1,678,699,682,-1,682,699,700,-1,682,700,683,-1,683,700,701,-1,683,701,684,-1,684,701,702,-1,684,702,679,-1,679,702,703,-1,679,703,673,-1,673,703,704,-1,673,704,674,-1,674,704,705,-1,674,705,680,-1,680,705,706,-1,555,707,556,-1,556,707,708,-1,556,708,685,-1,555,580,707,-1,707,580,579,-1,707,579,709,-1,709,579,578,-1,709,578,710,-1,710,578,577,-1,710,577,711,-1,711,577,576,-1,711,576,712,-1,712,576,587,-1,712,587,713,-1,713,587,586,-1,713,586,714,-1,714,586,585,-1,714,585,715,-1,715,585,584,-1,715,584,716,-1,716,584,583,-1,716,583,717,-1,717,583,582,-1,717,582,718,-1,718,582,581,-1,718,581,719,-1,719,581,588,-1,719,588,720,-1,720,588,602,-1,720,602,721,-1,721,602,601,-1,721,601,722,-1,722,601,600,-1,722,600,723,-1,723,600,605,-1,723,605,724,-1,724,605,604,-1,724,604,725,-1,725,604,603,-1,725,603,726,-1,726,603,599,-1,726,599,727,-1,727,599,598,-1,727,598,728,-1,728,598,597,-1,728,597,729,-1,729,597,596,-1,729,596,730,-1,730,596,595,-1,730,595,706,-1,706,595,681,-1,706,681,680,-1,695,694,731,-1,698,697,731,-1,731,697,696,-1,731,696,695,-1,701,700,731,-1,731,700,699,-1,731,699,698,-1,704,703,731,-1,731,703,702,-1,731,702,701,-1,730,706,731,-1,731,706,705,-1,731,705,704,-1,727,728,731,-1,731,728,729,-1,731,729,730,-1,724,725,731,-1,731,725,726,-1,731,726,727,-1,721,722,731,-1,731,722,723,-1,731,723,724,-1,718,719,731,-1,731,719,720,-1,731,720,721,-1,715,716,731,-1,731,716,717,-1,731,717,718,-1,712,713,731,-1,731,713,714,-1,731,714,715,-1,709,710,731,-1,731,710,711,-1,731,711,712,-1,685,708,731,-1,731,708,707,-1,731,707,709,-1,688,687,731,-1,731,687,686,-1,731,686,685,-1,691,690,731,-1,731,690,689,-1,731,689,688,-1,694,693,731,-1,731,693,692,-1,731,692,691,-1,
        ]
    }
}
Shape{
    appearance Appearance {
        material  Material 	{
            diffuseColor 1.0 1.0 1.0
            specularColor 0.8784313725490196 0.8784313725490196 0.8784313725490196
            ambientIntensity 0.2
            transparency 0
            shininess 0.5
        }
    }
    geometry IndexedFaceSet {
        ccw TRUE
        solid FALSE
        coord DEF co Coordinate {
            point [
                1.2008 0.2953 0.063, 0.6102 0.2953 0.063, 1.2008 0.2953 0.0, 0.6102 0.2953 0.0, 0.6102 -0.2953 0.063, 0.6102 -0.2953 0.0, 1.2008 -0.2953 0.063, 1.2008 -0.2953 0.0, -0.6102 0.2953 0.063, -1.2008 0.2953 0.063, -0.6102 0.2953 0.0, -1.2008 0.2953 0.0, -1.2008 -0.2953 0.063, -0.6102 -0.2953 0.063, -1.2008 -0.2953 0.0, -0.6102 -0.2953 0.0, -0.6102 -0.2953 0.0
            ]
        }
        coordIndex [
            0,1,2,-1,2,1,3,-1,1,4,3,-1,3,4,5,-1,4,6,5,-1,5,6,7,-1,4,1,6,-1,6,1,0,-1,8,9,10,-1,10,9,11,-1,12,13,14,-1,14,13,15,-1,13,8,15,-1,15,8,10,-1,13,12,8,-1,8,12,9,-1,
        ]
    }
}
Shape{
    appearance Appearance {
        material  Material 	{
            diffuseColor 0.25098039215686274 0.25098039215686274 0.25098039215686274
            specularColor 0.25098039215686274 0.25098039215686274 0.25098039215686274
            ambientIntensity 0.2
            transparency 0
            shininess 0.5
        }
    }
    geometry IndexedFaceSet {
        ccw TRUE
        solid FALSE
        coord DEF co Coordinate {
            point [
                0.4921 -1.2008 0.0394, 0.4921 1.2008 0.0394, 0.4921 -1.2008 0.0, 0.4921 1.2008 0.0, -0.4921 1.2008 0.0394, -0.4921 -1.2008 0.0394, -0.4921 1.2008 0.0, -0.4921 -1.2008 0.0, -0.4921 -1.2008 0.0
            ]
        }
        coordIndex [
            0,1,2,-1,2,1,3,-1,4,5,6,-1,6,5,7,-1,5,4,0,-1,0,4,1,-1,
        ]
    }
}
Shape{
    appearance Appearance {
        material  Material 	{
            diffuseColor 1.0 1.0 1.0
            specularColor 0.5019607843137255 0.5019607843137255 0.5019607843137255
            ambientIntensity 0.2
            transparency 0
            shininess 0.5
        }
    }
    geometry IndexedFaceSet {
        ccw TRUE
        solid FALSE
        coord DEF co Coordinate {
            point [
                1.2012 0.0792 0.8854, 1.2012 0.0792 0.8793, 1.2008 0.0792 0.8854, 1.2008 0.0792 0.8793, 1.2012 0.0579 0.8854, 1.2008 0.0579 0.8854, 1.2012 0.0579 0.9327, 1.2008 0.0579 0.9327, 1.2012 0.0511 0.9327, 1.2008 0.0511 0.9327, 1.2012 0.0511 0.8793, 1.2008 0.0511 0.8793, 1.2008 0.1214 0.8815, 1.2012 0.1214 0.8815, 1.2012 0.1204 0.8811, 1.2012 0.1147 0.8792, 1.2012 0.1066 0.8784, 1.2008 0.1113 0.8788, 1.2008 0.1066 0.8784, 1.2008 0.1147 0.8792, 1.2008 0.1191 0.8806, 1.2008 0.1204 0.8811, 1.2012 0.1214 0.8881, 1.2008 0.1214 0.8881, 1.2008 0.1191 0.8871, 1.2012 0.1168 0.886, 1.2008 0.1168 0.886, 1.2008 0.1108 0.8847, 1.2012 0.1108 0.8847, 1.2008 0.1076 0.8845, 1.2012 0.1076 0.8845, 1.2008 0.1026 0.8851, 1.2012 0.1026 0.8851, 1.2008 0.0987 0.8865, 1.2012 0.0987 0.8865, 1.2008 0.0951 0.8889, 1.2012 0.0951 0.8889, 1.2008 0.0939 0.8902, 1.2012 0.0939 0.8902, 1.2008 0.0913 0.8938, 1.2012 0.0913 0.8938, 1.2008 0.0895 0.8981, 1.2012 0.0895 0.8981, 1.2008 0.0887 0.9034, 1.2012 0.0887 0.9034, 1.2008 0.0886 0.9054, 1.2012 0.0886 0.9054, 1.2008 0.0895 0.9127, 1.2012 0.0895 0.9127, 1.2008 0.0913 0.9173, 1.2012 0.0913 0.9173, 1.2008 0.0938 0.921, 1.2012 0.0938 0.921, 1.2008 0.0942 0.9214, 1.2012 0.0942 0.9214, 1.2008 0.0978 0.9244, 1.2012 0.0978 0.9244, 1.2008 0.102 0.9264, 1.2012 0.102 0.9264, 1.2008 0.1066 0.9273, 1.2012 0.1066 0.9273, 1.2008 0.1088 0.9274, 1.2012 0.1088 0.9274, 1.2008 0.1214 0.9242, 1.2012 0.1214 0.9242, 1.2012 0.1208 0.9245, 1.2008 0.1153 0.9266, 1.2012 0.1153 0.9266, 1.2008 0.1191 0.9252, 1.2008 0.1208 0.9245, 1.2012 0.1214 0.9314, 1.2008 0.1214 0.9314, 1.2008 0.1191 0.9321, 1.2012 0.1157 0.933, 1.2008 0.1087 0.9336, 1.2012 0.1087 0.9336, 1.2008 0.1144 0.9331, 1.2008 0.1157 0.933, 1.2008 0.105 0.9331, 1.2012 0.101 0.9327, 1.2008 0.101 0.9327, 1.2008 0.0954 0.9305, 1.2012 0.0954 0.9305, 1.2008 0.0903 0.9269, 1.2012 0.0903 0.9269, 1.2008 0.0891 0.9257, 1.2012 0.0891 0.9257, 1.2008 0.0857 0.9215, 1.2012 0.0857 0.9215, 1.2008 0.0838 0.9174, 1.2012 0.083 0.9157, 1.2008 0.083 0.9157, 1.2008 0.0816 0.909, 1.2012 0.0816 0.909, 1.2008 0.0814 0.905, 1.2012 0.0814 0.905, 1.2008 0.0824 0.8964, 1.2012 0.0824 0.8964, 1.2008 0.0838 0.8929, 1.2012 0.0846 0.8908, 1.2008 0.0846 0.8908, 1.2008 0.0878 0.8862, 1.2012 0.0878 0.8862, 1.2008 0.0882 0.8857, 1.2012 0.0882 0.8857, 1.2008 0.0971 0.8799, 1.2012 0.0921 0.8824, 1.2008 0.0921 0.8824, 1.2008 0.1017 0.8788, 1.2012 0.1027 0.8786, 1.2012 0.0971 0.8799, 1.2008 0.1027 0.8786, 1.2012 0.1607 0.8854, 1.2012 0.1607 0.8793, 1.2008 0.1607 0.8854, 1.2008 0.1607 0.8793, 1.2008 0.1389 0.8854, 1.2012 0.1389 0.8854, 1.2008 0.1533 0.8854, 1.2012 0.1389 0.9033, 1.2008 0.1389 0.9033, 1.2008 0.158 0.9033, 1.2012 0.158 0.9033, 1.2008 0.1533 0.9033, 1.2012 0.158 0.9095, 1.2008 0.158 0.9095, 1.2008 0.1389 0.9095, 1.2012 0.1389 0.9095, 1.2008 0.1533 0.9095, 1.2012 0.1389 0.9265, 1.2008 0.1389 0.9265, 1.2008 0.1595 0.9265, 1.2012 0.1595 0.9265, 1.2008 0.1533 0.9265, 1.2012 0.1595 0.9327, 1.2008 0.1595 0.9327, 1.2008 0.132 0.9327, 1.2012 0.132 0.9327, 1.2008 0.1533 0.9327, 1.2012 0.132 0.8793, 1.2008 0.132 0.8793, 1.2008 0.1533 0.8793, 1.2012 0.2041 0.8943, 1.2012 0.2013 0.891, 1.2012 0.2062 0.8868, 1.2012 0.2007 0.8903, 1.2012 0.2006 0.8828, 1.2012 0.1972 0.888, 1.2012 0.1945 0.8804, 1.2012 0.1928 0.8862, 1.2012 0.1855 0.8793, 1.2012 0.1855 0.8854, 1.2012 0.1708 0.8793, 1.2012 0.1777 0.8854, 1.2012 0.1708 0.9327, 1.2012 0.1777 0.9265, 1.2012 0.1861 0.9327, 1.2012 0.1858 0.9265, 1.2012 0.1942 0.9318, 1.2012 0.1928 0.9257, 1.2012 0.2007 0.9294, 1.2012 0.1974 0.9241, 1.2012 0.2062 0.9256, 1.2012 0.2012 0.9215, 1.2012 0.2082 0.9237, 1.2012 0.2031 0.9195, 1.2012 0.2114 0.9191, 1.2012 0.2051 0.9164, 1.2012 0.2134 0.914, 1.2012 0.2065 0.9122, 1.2012 0.2143 0.9067, 1.2012 0.207 0.9065, 1.2012 0.214 0.9023, 1.2012 0.2069 0.9032, 1.2012 0.2126 0.8962, 1.2012 0.2059 0.8983, 1.2012 0.2097 0.8908, 1.2008 0.1855 0.8793, 1.2008 0.1708 0.8793, 1.2008 0.1945 0.8804, 1.2008 0.2006 0.8828, 1.2008 0.2062 0.8868, 1.2008 0.2097 0.8908, 1.2008 0.2126 0.8962, 1.2008 0.214 0.9023, 1.2008 0.2143 0.9067, 1.2008 0.2134 0.914, 1.2008 0.2114 0.9191, 1.2008 0.2082 0.9237, 1.2008 0.2062 0.9256, 1.2008 0.2007 0.9294, 1.2008 0.1942 0.9318, 1.2008 0.1861 0.9327, 1.2008 0.1708 0.9327, 1.2008 0.1858 0.9265, 1.2008 0.1777 0.9265, 1.2008 0.1777 0.8854, 1.2008 0.1855 0.8854, 1.2008 0.2013 0.891, 1.2008 0.2007 0.8903, 1.2008 0.1972 0.888, 1.2008 0.1928 0.8862, 1.2008 0.207 0.9065, 1.2008 0.2069 0.9032, 1.2008 0.2059 0.8983, 1.2008 0.2041 0.8943, 1.2008 0.2012 0.9215, 1.2008 0.2031 0.9195, 1.2008 0.2051 0.9164, 1.2008 0.2065 0.9122, 1.2008 0.1928 0.9257, 1.2008 0.1974 0.9241, 1.2008 0.1974 0.9241
            ]
        }
        coordIndex [
            0,1,2,-1,2,1,3,-1,4,0,5,-1,5,0,2,-1,6,4,7,-1,7,4,5,-1,8,6,9,-1,9,6,7,-1,10,8,11,-1,11,8,9,-1,1,10,3,-1,3,10,11,-1,6,8,4,-1,4,8,10,-1,4,10,0,-1,0,10,1,-1,12,13,14,-1,15,16,17,-1,17,16,18,-1,17,19,15,-1,15,19,20,-1,15,20,14,-1,14,20,21,-1,14,21,12,-1,22,13,23,-1,23,13,12,-1,22,23,24,-1,22,24,25,-1,24,26,25,-1,25,26,27,-1,25,27,28,-1,28,27,29,-1,28,29,30,-1,30,29,31,-1,30,31,32,-1,32,31,33,-1,32,33,34,-1,34,33,35,-1,34,35,36,-1,36,35,37,-1,36,37,38,-1,38,37,39,-1,38,39,40,-1,40,39,41,-1,40,41,42,-1,42,41,43,-1,42,43,44,-1,44,43,45,-1,44,45,46,-1,46,45,47,-1,46,47,48,-1,48,47,49,-1,48,49,50,-1,50,49,51,-1,50,51,52,-1,52,51,53,-1,52,53,54,-1,54,53,55,-1,54,55,56,-1,56,55,57,-1,56,57,58,-1,58,57,59,-1,58,59,60,-1,60,59,61,-1,60,61,62,-1,63,64,65,-1,62,61,66,-1,62,66,67,-1,67,66,68,-1,67,68,65,-1,65,68,69,-1,65,69,63,-1,70,64,71,-1,71,64,63,-1,70,71,72,-1,70,72,73,-1,74,75,76,-1,76,75,73,-1,76,73,77,-1,77,73,72,-1,75,74,78,-1,75,78,79,-1,78,80,79,-1,79,80,81,-1,79,81,82,-1,82,81,83,-1,82,83,84,-1,84,83,85,-1,84,85,86,-1,86,85,87,-1,86,87,88,-1,88,87,89,-1,88,89,90,-1,89,91,90,-1,90,91,92,-1,90,92,93,-1,93,92,94,-1,93,94,95,-1,95,94,96,-1,95,96,97,-1,97,96,98,-1,97,98,99,-1,98,100,99,-1,99,100,101,-1,99,101,102,-1,102,101,103,-1,102,103,104,-1,105,106,107,-1,107,106,104,-1,107,104,103,-1,108,109,105,-1,105,109,110,-1,105,110,106,-1,108,111,109,-1,109,111,18,-1,109,18,16,-1,48,50,88,-1,56,58,79,-1,88,50,86,-1,79,58,75,-1,79,82,56,-1,56,82,84,-1,56,84,54,-1,54,84,86,-1,54,86,52,-1,52,86,50,-1,58,60,75,-1,75,60,62,-1,75,62,73,-1,73,62,67,-1,73,67,70,-1,70,67,65,-1,70,65,64,-1,95,46,93,-1,93,46,48,-1,93,48,90,-1,90,48,88,-1,13,22,14,-1,14,22,25,-1,14,25,15,-1,15,25,28,-1,15,28,16,-1,16,28,30,-1,16,30,109,-1,109,30,32,-1,109,32,110,-1,110,32,34,-1,110,34,106,-1,106,34,36,-1,106,36,104,-1,104,36,38,-1,104,38,102,-1,102,38,40,-1,102,40,99,-1,99,40,97,-1,97,40,42,-1,97,42,95,-1,95,42,44,-1,95,44,46,-1,112,113,114,-1,114,113,115,-1,116,117,118,-1,118,117,112,-1,118,112,114,-1,119,117,120,-1,120,117,116,-1,121,122,123,-1,123,122,119,-1,123,119,120,-1,124,122,125,-1,125,122,121,-1,126,127,128,-1,128,127,124,-1,128,124,125,-1,129,127,130,-1,130,127,126,-1,131,132,133,-1,133,132,129,-1,133,129,130,-1,134,132,135,-1,135,132,131,-1,136,137,138,-1,138,137,134,-1,138,134,135,-1,139,137,140,-1,140,137,136,-1,115,113,141,-1,141,113,139,-1,141,139,140,-1,139,113,112,-1,112,117,139,-1,139,117,119,-1,139,119,137,-1,132,134,129,-1,129,134,137,-1,129,137,127,-1,127,137,119,-1,127,119,124,-1,124,119,122,-1,142,143,144,-1,144,143,145,-1,144,145,146,-1,146,145,147,-1,146,147,148,-1,148,147,149,-1,148,149,150,-1,150,149,151,-1,150,151,152,-1,152,151,153,-1,152,153,154,-1,154,153,155,-1,154,155,156,-1,156,155,157,-1,156,157,158,-1,158,157,159,-1,158,159,160,-1,160,159,161,-1,160,161,162,-1,162,161,163,-1,162,163,164,-1,164,163,165,-1,164,165,166,-1,166,165,167,-1,166,167,168,-1,168,167,169,-1,168,169,170,-1,170,169,171,-1,170,171,172,-1,172,171,173,-1,172,173,174,-1,174,173,175,-1,174,175,176,-1,176,175,142,-1,176,142,144,-1,150,152,177,-1,177,152,178,-1,150,177,179,-1,150,179,148,-1,148,179,180,-1,148,180,146,-1,146,180,181,-1,146,181,144,-1,144,181,182,-1,144,182,176,-1,176,182,183,-1,176,183,174,-1,174,183,184,-1,174,184,172,-1,172,184,185,-1,172,185,170,-1,170,185,186,-1,170,186,168,-1,168,186,187,-1,168,187,166,-1,166,187,188,-1,166,188,164,-1,164,188,189,-1,164,189,162,-1,162,189,190,-1,162,190,160,-1,160,190,191,-1,160,191,158,-1,158,191,192,-1,158,192,156,-1,154,156,193,-1,193,156,192,-1,152,154,178,-1,178,154,193,-1,157,155,194,-1,194,155,195,-1,155,153,195,-1,195,153,196,-1,153,151,196,-1,196,151,197,-1,143,198,199,-1,143,199,145,-1,145,199,200,-1,145,200,147,-1,147,200,201,-1,147,201,149,-1,149,201,197,-1,149,197,151,-1,171,202,203,-1,171,203,173,-1,173,203,204,-1,173,204,175,-1,175,204,205,-1,175,205,142,-1,142,205,198,-1,142,198,143,-1,163,206,207,-1,163,207,165,-1,165,207,208,-1,165,208,167,-1,167,208,209,-1,167,209,169,-1,169,209,202,-1,169,202,171,-1,157,194,210,-1,157,210,159,-1,159,210,211,-1,159,211,161,-1,161,211,206,-1,161,206,163,-1,
        ]
    }
}
Shape{
    appearance Appearance {
        material  Material 	{
            diffuseColor 0.25098039215686274 0.25098039215686274 0.25098039215686274
            specularColor 0.25098039215686274 0.25098039215686274 0.25098039215686274
            ambientIntensity 0.2
            transparency 0
            shininess 0.5
        }
    }
    geometry IndexedFaceSet {
        ccw TRUE
        solid FALSE
        coord DEF co Coordinate {
            point [
                1.2008 0.1777 0.9265, 1.2008 0.1777 0.8854, 1.2008 0.1858 0.9265, 1.2008 0.1855 0.8854, 1.2008 0.2007 0.8903, 1.2008 0.2013 0.891, 1.2008 0.1928 0.8862, 1.2008 0.1972 0.888, 1.2008 0.2069 0.9032, 1.2008 0.207 0.9065, 1.2008 0.2041 0.8943, 1.2008 0.2059 0.8983, 1.2008 0.2065 0.9122, 1.2008 0.2051 0.9164, 1.2008 0.2031 0.9195, 1.2008 0.2012 0.9215, 1.2008 0.1974 0.9241, 1.2008 0.1928 0.9257, 1.2008 0.1928 0.9257
            ]
        }
        coordIndex [
            0,1,2,-1,2,1,3,-1,2,4,5,-1,3,6,2,-1,2,6,7,-1,2,7,4,-1,8,9,2,-1,5,10,2,-1,2,10,11,-1,2,11,8,-1,9,12,2,-1,2,12,13,-1,2,13,14,-1,14,15,2,-1,2,15,16,-1,2,16,17,-1,
        ]
    }
}
Shape{
    appearance Appearance {
        material  Material 	{
            diffuseColor 1.0 1.0 1.0
            specularColor 0.5019607843137255 0.5019607843137255 0.5019607843137255
            ambientIntensity 0.2
            transparency 0
            shininess 0.5
        }
    }
    geometry IndexedFaceSet {
        ccw TRUE
        solid FALSE
        coord DEF co Coordinate {
            point [
                1.2012 0.2322 0.8999, 1.2012 0.23 0.8939, 1.2012 0.2501 0.8999, 1.2012 0.2522 0.8939, 1.2012 0.2402 0.9221, 1.2012 0.2376 0.9327, 1.2012 0.2173 0.8793, 1.2012 0.2249 0.8793, 1.2012 0.2406 0.9237, 1.2012 0.241 0.9259, 1.2012 0.245 0.9327, 1.2012 0.2412 0.9259, 1.2012 0.2416 0.9236, 1.2012 0.242 0.9221, 1.2012 0.2653 0.8793, 1.2012 0.2577 0.8793, 1.2008 0.245 0.9327, 1.2008 0.2653 0.8793, 1.2008 0.2376 0.9327, 1.2008 0.2173 0.8793, 1.2008 0.2326 0.9197, 1.2008 0.2249 0.8793, 1.2008 0.23 0.8939, 1.2008 0.2522 0.8939, 1.2008 0.2326 0.8939, 1.2008 0.2577 0.8793, 1.2008 0.2322 0.8999, 1.2008 0.2501 0.8999, 1.2008 0.242 0.9221, 1.2008 0.2412 0.9259, 1.2008 0.2416 0.9236, 1.2008 0.241 0.9259, 1.2008 0.2402 0.9221, 1.2008 0.2406 0.9237, 1.2008 0.2406 0.9237
            ]
        }
        coordIndex [
            0,1,2,-1,2,1,3,-1,4,5,0,-1,0,5,6,-1,0,6,1,-1,1,6,7,-1,4,8,5,-1,5,8,9,-1,5,9,10,-1,10,9,11,-1,10,11,12,-1,12,13,10,-1,10,13,2,-1,10,2,14,-1,14,2,3,-1,14,3,15,-1,10,14,16,-1,16,14,17,-1,5,10,18,-1,18,10,16,-1,19,6,20,-1,20,6,5,-1,20,5,18,-1,7,6,21,-1,21,6,19,-1,1,7,22,-1,22,7,21,-1,23,3,24,-1,24,3,1,-1,24,1,22,-1,15,3,25,-1,25,3,23,-1,14,15,17,-1,17,15,25,-1,0,2,26,-1,26,2,27,-1,2,13,27,-1,27,13,28,-1,11,29,30,-1,11,30,12,-1,12,30,28,-1,12,28,13,-1,11,9,29,-1,29,9,31,-1,4,32,33,-1,4,33,8,-1,8,33,31,-1,8,31,9,-1,4,0,32,-1,32,0,26,-1,
        ]
    }
}
Shape{
    appearance Appearance {
        material  Material 	{
            diffuseColor 0.25098039215686274 0.25098039215686274 0.25098039215686274
            specularColor 0.25098039215686274 0.25098039215686274 0.25098039215686274
            ambientIntensity 0.2
            transparency 0
            shininess 0.5
        }
    }
    geometry IndexedFaceSet {
        ccw TRUE
        solid FALSE
        coord DEF co Coordinate {
            point [
                1.2008 0.2412 0.9259, 1.2008 0.241 0.9259, 1.2008 0.2416 0.9236, 1.2008 0.2406 0.9237, 1.2008 0.242 0.9221, 1.2008 0.2402 0.9221, 1.2008 0.2501 0.8999, 1.2008 0.2322 0.8999, 1.2008 0.2322 0.8999
            ]
        }
        coordIndex [
            0,1,2,-1,2,1,3,-1,2,3,4,-1,4,3,5,-1,4,5,6,-1,6,5,7,-1,
        ]
    }
}
Shape{
    appearance Appearance {
        material  Material 	{
            diffuseColor 1.0 1.0 1.0
            specularColor 0.5019607843137255 0.5019607843137255 0.5019607843137255
            ambientIntensity 0.2
            transparency 0
            shininess 0.5
        }
    }
    geometry IndexedFaceSet {
        ccw TRUE
        solid FALSE
        coord DEF co Coordinate {
            point [
                1.2012 0.0798 0.8007, 1.2012 0.0798 0.7946, 1.2008 0.0798 0.8007, 1.2008 0.0798 0.7946, 1.2012 0.0579 0.8007, 1.2008 0.0579 0.8007, 1.2012 0.0579 0.8187, 1.2008 0.0579 0.8187, 1.2012 0.077 0.8187, 1.2008 0.077 0.8187, 1.2012 0.077 0.8248, 1.2008 0.077 0.8248, 1.2012 0.0579 0.8248, 1.2008 0.0579 0.8248, 1.2012 0.0579 0.8419, 1.2008 0.0579 0.8419, 1.2012 0.0786 0.8419, 1.2008 0.0786 0.8419, 1.2012 0.0786 0.848, 1.2008 0.0786 0.848, 1.2012 0.0511 0.848, 1.2008 0.0511 0.848, 1.2012 0.0511 0.7946, 1.2008 0.0511 0.7946, 1.2012 0.1099 0.8005, 1.2012 0.1101 0.8005, 1.2012 0.1097 0.8067, 1.2012 0.1101 0.8096, 1.2012 0.1168 0.8192, 1.2012 0.1101 0.8101, 1.2012 0.1101 0.8137, 1.2012 0.1101 0.7946, 1.2012 0.1168 0.7946, 1.2012 0.0956 0.8109, 1.2012 0.0972 0.8116, 1.2012 0.0936 0.816, 1.2012 0.1087 0.8043, 1.2012 0.1072 0.8023, 1.2012 0.1089 0.7989, 1.2012 0.1064 0.8015, 1.2012 0.1068 0.7966, 1.2012 0.1045 0.8002, 1.2012 0.1044 0.7951, 1.2012 0.1025 0.7995, 1.2012 0.1017 0.7941, 1.2012 0.1 0.7992, 1.2012 0.0983 0.7937, 1.2012 0.0977 0.7995, 1.2012 0.0943 0.7942, 1.2012 0.0962 0.8, 1.2012 0.0917 0.7951, 1.2012 0.0949 0.8009, 1.2012 0.0894 0.7967, 1.2012 0.0943 0.8015, 1.2012 0.0988 0.8173, 1.2012 0.1012 0.8125, 1.2012 0.1101 0.8189, 1.2012 0.0947 0.8102, 1.2012 0.0908 0.8145, 1.2012 0.0939 0.8092, 1.2012 0.0888 0.8127, 1.2012 0.0933 0.808, 1.2012 0.0875 0.8108, 1.2012 0.093 0.8064, 1.2012 0.0866 0.8084, 1.2012 0.0929 0.8054, 1.2012 0.0862 0.8048, 1.2012 0.0931 0.8038, 1.2012 0.0865 0.8018, 1.2012 0.0936 0.8026, 1.2012 0.0873 0.7995, 1.2012 0.0887 0.7975, 1.2012 0.0899 0.8301, 1.2012 0.0899 0.8236, 1.2012 0.0913 0.8309, 1.2012 0.0941 0.8263, 1.2012 0.0963 0.8328, 1.2012 0.0983 0.8278, 1.2012 0.103 0.8336, 1.2012 0.1024 0.8282, 1.2012 0.1069 0.8333, 1.2012 0.1047 0.8279, 1.2012 0.1097 0.8324, 1.2012 0.1062 0.8274, 1.2012 0.112 0.8312, 1.2012 0.1074 0.8266, 1.2012 0.1138 0.8295, 1.2012 0.1084 0.8256, 1.2012 0.1152 0.8274, 1.2012 0.1092 0.8242, 1.2012 0.1162 0.8244, 1.2012 0.1099 0.8218, 1.2008 0.103 0.8336, 1.2008 0.0963 0.8328, 1.2008 0.0913 0.8309, 1.2008 0.0899 0.8301, 1.2008 0.0899 0.8236, 1.2008 0.0941 0.8263, 1.2008 0.0983 0.8278, 1.2008 0.1024 0.8282, 1.2008 0.1047 0.8279, 1.2008 0.1062 0.8274, 1.2008 0.1074 0.8266, 1.2008 0.1084 0.8256, 1.2008 0.1092 0.8242, 1.2008 0.1099 0.8218, 1.2008 0.1101 0.8189, 1.2008 0.0988 0.8173, 1.2008 0.0936 0.816, 1.2008 0.0908 0.8145, 1.2008 0.0888 0.8127, 1.2008 0.0875 0.8108, 1.2008 0.0866 0.8084, 1.2008 0.0862 0.8048, 1.2008 0.0865 0.8018, 1.2008 0.0873 0.7995, 1.2008 0.0887 0.7975, 1.2008 0.0894 0.7967, 1.2008 0.0983 0.7937, 1.2008 0.0944 0.7942, 1.2008 0.0943 0.7942, 1.2008 0.0917 0.7951, 1.2008 0.1017 0.7941, 1.2008 0.1019 0.7942, 1.2008 0.1044 0.7951, 1.2008 0.1068 0.7966, 1.2008 0.1089 0.7989, 1.2008 0.1099 0.8005, 1.2008 0.1101 0.8005, 1.2008 0.1101 0.7946, 1.2008 0.1168 0.7946, 1.2008 0.1168 0.8192, 1.2008 0.1162 0.8244, 1.2008 0.1152 0.8274, 1.2008 0.1138 0.8295, 1.2008 0.112 0.8312, 1.2008 0.1097 0.8324, 1.2008 0.1069 0.8333, 1.2008 0.0947 0.8102, 1.2008 0.0956 0.8109, 1.2008 0.0972 0.8116, 1.2008 0.1012 0.8125, 1.2008 0.0929 0.8054, 1.2008 0.093 0.8064, 1.2008 0.0933 0.808, 1.2008 0.0939 0.8092, 1.2008 0.0949 0.8009, 1.2008 0.0943 0.8015, 1.2008 0.0936 0.8026, 1.2008 0.0931 0.8038, 1.2008 0.1 0.7992, 1.2008 0.0977 0.7995, 1.2008 0.0962 0.8, 1.2008 0.1072 0.8023, 1.2008 0.1064 0.8015, 1.2008 0.1045 0.8002, 1.2008 0.1025 0.7995, 1.2008 0.1101 0.8101, 1.2008 0.1101 0.8096, 1.2008 0.1097 0.8067, 1.2008 0.1087 0.8043, 1.2008 0.1101 0.8137, 1.2008 0.1101 0.8137
            ]
        }
        coordIndex [
            0,1,2,-1,2,1,3,-1,4,0,5,-1,5,0,2,-1,6,4,7,-1,7,4,5,-1,8,6,9,-1,9,6,7,-1,10,8,11,-1,11,8,9,-1,12,10,13,-1,13,10,11,-1,14,12,15,-1,15,12,13,-1,16,14,17,-1,17,14,15,-1,18,16,19,-1,19,16,17,-1,20,18,21,-1,21,18,19,-1,22,20,23,-1,23,20,21,-1,1,22,3,-1,3,22,23,-1,16,18,14,-1,14,18,20,-1,14,20,12,-1,1,0,22,-1,22,0,4,-1,22,4,6,-1,8,10,6,-1,6,10,12,-1,6,12,22,-1,22,12,20,-1,24,25,26,-1,27,28,29,-1,29,28,30,-1,31,32,25,-1,25,32,28,-1,25,28,26,-1,26,28,27,-1,33,34,35,-1,26,36,24,-1,24,36,37,-1,24,37,38,-1,38,37,39,-1,38,39,40,-1,40,39,41,-1,40,41,42,-1,42,41,43,-1,42,43,44,-1,44,43,45,-1,44,45,46,-1,46,45,47,-1,46,47,48,-1,48,47,49,-1,48,49,50,-1,50,49,51,-1,50,51,52,-1,52,51,53,-1,35,34,54,-1,54,34,55,-1,54,55,56,-1,33,35,57,-1,57,35,58,-1,57,58,59,-1,59,58,60,-1,59,60,61,-1,61,60,62,-1,61,62,63,-1,63,62,64,-1,63,64,65,-1,65,64,66,-1,65,66,67,-1,67,66,68,-1,67,68,69,-1,69,68,70,-1,69,70,53,-1,53,70,71,-1,53,71,52,-1,72,73,74,-1,74,73,75,-1,74,75,76,-1,76,75,77,-1,76,77,78,-1,78,77,79,-1,78,79,80,-1,80,79,81,-1,80,81,82,-1,82,81,83,-1,82,83,84,-1,84,83,85,-1,84,85,86,-1,86,85,87,-1,86,87,88,-1,88,87,89,-1,88,89,90,-1,90,89,91,-1,90,91,28,-1,28,91,56,-1,28,56,30,-1,30,56,55,-1,78,92,93,-1,78,93,76,-1,76,93,94,-1,76,94,74,-1,74,94,95,-1,74,95,72,-1,73,72,96,-1,96,72,95,-1,73,96,97,-1,73,97,75,-1,75,97,98,-1,75,98,77,-1,77,98,99,-1,77,99,79,-1,79,99,100,-1,79,100,81,-1,81,100,101,-1,81,101,83,-1,83,101,102,-1,83,102,85,-1,85,102,103,-1,85,103,87,-1,87,103,104,-1,87,104,89,-1,89,104,105,-1,89,105,91,-1,91,105,106,-1,91,106,56,-1,54,56,107,-1,107,56,106,-1,54,107,108,-1,54,108,35,-1,35,108,109,-1,35,109,58,-1,58,109,110,-1,58,110,60,-1,60,110,111,-1,60,111,62,-1,62,111,112,-1,62,112,64,-1,64,112,113,-1,64,113,66,-1,66,113,114,-1,66,114,68,-1,68,114,115,-1,68,115,70,-1,70,115,116,-1,70,116,71,-1,71,116,117,-1,71,117,52,-1,118,46,119,-1,119,46,48,-1,119,48,120,-1,120,48,50,-1,120,50,121,-1,121,50,52,-1,121,52,117,-1,46,118,122,-1,46,122,44,-1,44,122,123,-1,44,123,42,-1,123,124,42,-1,42,124,125,-1,42,125,40,-1,40,125,126,-1,40,126,38,-1,38,126,127,-1,38,127,24,-1,25,24,128,-1,128,24,127,-1,31,25,129,-1,129,25,128,-1,32,31,130,-1,130,31,129,-1,28,32,131,-1,131,32,130,-1,28,131,132,-1,28,132,90,-1,90,132,133,-1,90,133,88,-1,88,133,134,-1,88,134,86,-1,86,134,135,-1,86,135,84,-1,84,135,136,-1,84,136,82,-1,82,136,137,-1,82,137,80,-1,80,137,92,-1,80,92,78,-1,57,138,139,-1,57,139,33,-1,33,139,140,-1,33,140,34,-1,34,140,141,-1,34,141,55,-1,65,142,143,-1,65,143,63,-1,63,143,144,-1,63,144,61,-1,61,144,145,-1,61,145,59,-1,59,145,138,-1,59,138,57,-1,51,146,147,-1,51,147,53,-1,53,147,148,-1,53,148,69,-1,69,148,149,-1,69,149,67,-1,67,149,142,-1,67,142,65,-1,45,150,151,-1,45,151,47,-1,47,151,152,-1,47,152,49,-1,49,152,146,-1,49,146,51,-1,37,153,154,-1,37,154,39,-1,39,154,155,-1,39,155,41,-1,41,155,156,-1,41,156,43,-1,43,156,150,-1,43,150,45,-1,29,157,158,-1,29,158,27,-1,27,158,159,-1,27,159,26,-1,26,159,160,-1,26,160,36,-1,36,160,153,-1,36,153,37,-1,29,30,157,-1,157,30,161,-1,30,55,161,-1,161,55,141,-1,
        ]
    }
}
Shape{
    appearance Appearance {
        material  Material 	{
            diffuseColor 0.25098039215686274 0.25098039215686274 0.25098039215686274
            specularColor 0.25098039215686274 0.25098039215686274 0.25098039215686274
            ambientIntensity 0.2
            transparency 0
            shininess 0.5
        }
    }
    geometry IndexedFaceSet {
        ccw TRUE
        solid FALSE
        coord DEF co Coordinate {
            point [
                1.2008 0.1101 0.8096, 1.2008 0.1101 0.8101, 1.2008 0.0947 0.8102, 1.2008 0.1101 0.8137, 1.2008 0.1012 0.8125, 1.2008 0.0972 0.8116, 1.2008 0.0956 0.8109, 1.2008 0.1097 0.8067, 1.2008 0.0939 0.8092, 1.2008 0.1087 0.8043, 1.2008 0.0943 0.8015, 1.2008 0.0949 0.8009, 1.2008 0.1064 0.8015, 1.2008 0.0936 0.8026, 1.2008 0.1045 0.8002, 1.2008 0.1025 0.7995, 1.2008 0.1 0.7992, 1.2008 0.0933 0.808, 1.2008 0.093 0.8064, 1.2008 0.1072 0.8023, 1.2008 0.0929 0.8054, 1.2008 0.0931 0.8038, 1.2008 0.0962 0.8, 1.2008 0.0977 0.7995, 1.2008 0.0977 0.7995
            ]
        }
        coordIndex [
            0,1,2,-1,1,3,4,-1,4,5,1,-1,1,5,6,-1,1,6,2,-1,0,2,7,-1,7,2,8,-1,7,8,9,-1,10,11,12,-1,10,12,13,-1,14,12,15,-1,15,12,16,-1,8,17,9,-1,9,17,18,-1,9,18,19,-1,19,18,20,-1,19,20,12,-1,12,20,21,-1,12,21,13,-1,11,22,12,-1,12,22,23,-1,12,23,16,-1,
        ]
    }
}
Shape{
    appearance Appearance {
        material  Material 	{
            diffuseColor 1.0 1.0 1.0
            specularColor 0.5019607843137255 0.5019607843137255 0.5019607843137255
            ambientIntensity 0.2
            transparency 0
            shininess 0.5
        }
    }
    geometry IndexedFaceSet {
        ccw TRUE
        solid FALSE
        coord DEF co Coordinate {
            point [
                1.2012 0.1369 0.7992, 1.2008 0.1369 0.7992, 1.2008 0.1324 0.7997, 1.2008 0.1289 0.8011, 1.2012 0.1282 0.8014, 1.2012 0.1324 0.7997, 1.2008 0.1282 0.8014, 1.2008 0.1259 0.8029, 1.2012 0.1259 0.8029, 1.2012 0.1259 0.796, 1.2008 0.1259 0.796, 1.2012 0.1303 0.7944, 1.2008 0.1289 0.7948, 1.2008 0.1362 0.7937, 1.2012 0.1362 0.7937, 1.2008 0.1321 0.7942, 1.2008 0.1303 0.7944, 1.2012 0.1416 0.7943, 1.2008 0.1405 0.7942, 1.2008 0.1416 0.7943, 1.2008 0.1453 0.7956, 1.2012 0.1453 0.7956, 1.2008 0.1473 0.7967, 1.2012 0.1473 0.7967, 1.2008 0.1492 0.7984, 1.2012 0.1492 0.7984, 1.2008 0.1505 0.8002, 1.2012 0.1505 0.8002, 1.2008 0.1513 0.8023, 1.2012 0.1513 0.8023, 1.2008 0.1516 0.805, 1.2012 0.1516 0.805, 1.2008 0.1513 0.8075, 1.2012 0.1513 0.8075, 1.2008 0.1506 0.8094, 1.2012 0.1506 0.8094, 1.2008 0.1494 0.8113, 1.2012 0.1494 0.8113, 1.2008 0.1478 0.8127, 1.2012 0.1478 0.8127, 1.2008 0.1433 0.8152, 1.2012 0.1433 0.8152, 1.2008 0.1407 0.8162, 1.2012 0.1407 0.8162, 1.2008 0.1366 0.818, 1.2012 0.1366 0.818, 1.2008 0.1343 0.8195, 1.2012 0.1343 0.8195, 1.2008 0.1336 0.8202, 1.2012 0.1336 0.8202, 1.2008 0.1331 0.8211, 1.2012 0.1331 0.8211, 1.2008 0.1329 0.8222, 1.2012 0.1329 0.8222, 1.2008 0.1328 0.8231, 1.2012 0.1328 0.8231, 1.2008 0.1329 0.8241, 1.2012 0.1329 0.8241, 1.2008 0.1332 0.825, 1.2012 0.1332 0.825, 1.2008 0.1338 0.8259, 1.2012 0.1338 0.8259, 1.2008 0.1348 0.8268, 1.2012 0.1348 0.8268, 1.2008 0.1363 0.8276, 1.2012 0.1363 0.8276, 1.2008 0.1381 0.828, 1.2012 0.1381 0.828, 1.2008 0.1401 0.8282, 1.2012 0.1401 0.8282, 1.2008 0.1447 0.8276, 1.2012 0.1447 0.8276, 1.2008 0.1485 0.8262, 1.2012 0.1485 0.8262, 1.2008 0.1498 0.8254, 1.2012 0.1498 0.8254, 1.2012 0.1498 0.8319, 1.2008 0.1498 0.8319, 1.2008 0.1451 0.8333, 1.2012 0.1451 0.8333, 1.2008 0.1407 0.8336, 1.2012 0.1407 0.8336, 1.2008 0.1357 0.8331, 1.2012 0.1357 0.8331, 1.2008 0.1321 0.8317, 1.2012 0.1321 0.8317, 1.2008 0.1302 0.8306, 1.2012 0.1302 0.8306, 1.2012 0.1282 0.8288, 1.2008 0.1289 0.8295, 1.2008 0.1282 0.8288, 1.2008 0.127 0.827, 1.2012 0.127 0.827, 1.2008 0.1262 0.8248, 1.2012 0.1262 0.8248, 1.2008 0.1259 0.8225, 1.2012 0.1259 0.8225, 1.2008 0.1262 0.8199, 1.2012 0.1262 0.8199, 1.2008 0.1269 0.8178, 1.2012 0.1269 0.8178, 1.2008 0.1278 0.8164, 1.2012 0.1278 0.8164, 1.2008 0.136 0.8114, 1.2012 0.136 0.8114, 1.2012 0.132 0.8132, 1.2008 0.1289 0.8153, 1.2012 0.1289 0.8153, 1.2008 0.1289 0.8152, 1.2008 0.132 0.8132, 1.2008 0.1404 0.8095, 1.2012 0.1404 0.8095, 1.2008 0.143 0.808, 1.2012 0.143 0.808, 1.2008 0.1439 0.8071, 1.2012 0.1439 0.8071, 1.2008 0.1444 0.8062, 1.2012 0.1444 0.8062, 1.2008 0.1447 0.8052, 1.2012 0.1447 0.8052, 1.2008 0.1447 0.8043, 1.2012 0.1447 0.8043, 1.2008 0.1446 0.8031, 1.2012 0.1446 0.8031, 1.2008 0.1443 0.8021, 1.2012 0.1443 0.8021, 1.2008 0.1437 0.8012, 1.2012 0.1437 0.8012, 1.2008 0.1429 0.8006, 1.2012 0.1429 0.8006, 1.2008 0.1423 0.8002, 1.2012 0.1423 0.8002, 1.2008 0.1406 0.7996, 1.2012 0.1406 0.7996, 1.2008 0.1372 0.7992, 1.2012 0.1372 0.7992, 1.2012 0.1848 0.8327, 1.2012 0.1917 0.8327, 1.2008 0.1848 0.8327, 1.2008 0.1917 0.8327, 1.2012 0.1743 0.804, 1.2008 0.1743 0.804, 1.2008 0.1738 0.8023, 1.2012 0.1738 0.8023, 1.2008 0.1735 0.8009, 1.2012 0.1735 0.8009, 1.2012 0.1733 0.8009, 1.2008 0.1733 0.8009, 1.2012 0.1725 0.8041, 1.2008 0.1725 0.8041, 1.2008 0.1626 0.8327, 1.2012 0.1626 0.8327, 1.2008 0.1658 0.8235, 1.2012 0.1551 0.8327, 1.2008 0.1551 0.8327, 1.2008 0.17 0.7947, 1.2012 0.17 0.7947, 1.2008 0.1658 0.8055, 1.2008 0.1671 0.7878, 1.2012 0.1671 0.7878, 1.2008 0.1698 0.7942, 1.2008 0.1658 0.7854, 1.2012 0.1658 0.7854, 1.2008 0.1658 0.7854, 1.2012 0.1646 0.784, 1.2008 0.1646 0.784, 1.2008 0.1633 0.7831, 1.2012 0.1633 0.7831, 1.2008 0.1619 0.7826, 1.2012 0.1619 0.7826, 1.2008 0.1603 0.7824, 1.2012 0.1603 0.7824, 1.2008 0.1578 0.7827, 1.2012 0.1578 0.7827, 1.2008 0.1565 0.7832, 1.2012 0.1565 0.7832, 1.2012 0.1565 0.7772, 1.2008 0.1565 0.7772, 1.2008 0.1593 0.7767, 1.2012 0.1593 0.7767, 1.2008 0.1608 0.7767, 1.2012 0.1608 0.7767, 1.2008 0.1635 0.777, 1.2008 0.1658 0.7779, 1.2012 0.1661 0.778, 1.2012 0.1635 0.777, 1.2008 0.1661 0.778, 1.2008 0.1685 0.7796, 1.2012 0.1685 0.7796, 1.2008 0.1689 0.78, 1.2012 0.1689 0.78, 1.2008 0.1714 0.783, 1.2012 0.1714 0.783, 1.2008 0.1744 0.7889, 1.2012 0.1744 0.7889, 1.2008 0.1765 0.7942, 1.2012 0.2276 0.8007, 1.2012 0.2276 0.7946, 1.2008 0.2276 0.8007, 1.2008 0.2276 0.7946, 1.2008 0.2058 0.8007, 1.2012 0.2058 0.8007, 1.2008 0.2158 0.8007, 1.2012 0.2058 0.8187, 1.2008 0.2058 0.8187, 1.2008 0.2249 0.8187, 1.2012 0.2249 0.8187, 1.2008 0.2158 0.8187, 1.2012 0.2249 0.8248, 1.2008 0.2249 0.8248, 1.2008 0.2058 0.8248, 1.2012 0.2058 0.8248, 1.2008 0.2158 0.8248, 1.2012 0.2058 0.8419, 1.2008 0.2058 0.8419, 1.2008 0.2264 0.8419, 1.2012 0.2264 0.8419, 1.2008 0.2158 0.8419, 1.2012 0.2264 0.848, 1.2008 0.2264 0.848, 1.2008 0.1989 0.848, 1.2012 0.1989 0.848, 1.2008 0.2158 0.848, 1.2012 0.1989 0.7946, 1.2008 0.1989 0.7946, 1.2008 0.2158 0.7946, 1.2012 0.2709 0.8097, 1.2012 0.2682 0.8063, 1.2012 0.2731 0.8021, 1.2012 0.2675 0.8057, 1.2012 0.2675 0.7981, 1.2012 0.2641 0.8033, 1.2012 0.2614 0.7957, 1.2012 0.2596 0.8016, 1.2012 0.2524 0.7946, 1.2012 0.2523 0.8007, 1.2012 0.2377 0.7946, 1.2012 0.2446 0.8007, 1.2012 0.2377 0.848, 1.2012 0.2446 0.8419, 1.2012 0.2529 0.848, 1.2012 0.2526 0.8419, 1.2012 0.2611 0.8471, 1.2012 0.2596 0.8411, 1.2012 0.2675 0.8447, 1.2012 0.2643 0.8394, 1.2012 0.2731 0.8409, 1.2012 0.268 0.8368, 1.2012 0.275 0.8391, 1.2012 0.27 0.8348, 1.2012 0.2783 0.8344, 1.2012 0.2719 0.8317, 1.2012 0.2803 0.8293, 1.2012 0.2733 0.8275, 1.2012 0.2811 0.822, 1.2012 0.2739 0.8218, 1.2012 0.2809 0.8176, 1.2012 0.2737 0.8186, 1.2012 0.2794 0.8115, 1.2012 0.2727 0.8136, 1.2012 0.2766 0.8061, 1.2008 0.2524 0.7946, 1.2008 0.2377 0.7946, 1.2008 0.2614 0.7957, 1.2008 0.2675 0.7981, 1.2008 0.2731 0.8021, 1.2008 0.2766 0.8061, 1.2008 0.2794 0.8115, 1.2008 0.2809 0.8176, 1.2008 0.2811 0.822, 1.2008 0.2803 0.8293, 1.2008 0.2783 0.8344, 1.2008 0.275 0.8391, 1.2008 0.2731 0.8409, 1.2008 0.2675 0.8447, 1.2008 0.2611 0.8471, 1.2008 0.2529 0.848, 1.2008 0.2377 0.848, 1.2008 0.2526 0.8419, 1.2008 0.2446 0.8419, 1.2008 0.2446 0.8007, 1.2008 0.2523 0.8007, 1.2008 0.2682 0.8063, 1.2008 0.2675 0.8057, 1.2008 0.2641 0.8033, 1.2008 0.2596 0.8016, 1.2008 0.2739 0.8218, 1.2008 0.2737 0.8186, 1.2008 0.2727 0.8136, 1.2008 0.2709 0.8097, 1.2008 0.268 0.8368, 1.2008 0.27 0.8348, 1.2008 0.2719 0.8317, 1.2008 0.2733 0.8275, 1.2008 0.2596 0.8411, 1.2008 0.2643 0.8394, 1.2008 0.2643 0.8394
            ]
        }
        coordIndex [
            0,1,2,-1,3,4,2,-1,2,4,5,-1,2,5,0,-1,3,6,4,-1,4,6,7,-1,4,7,8,-1,9,8,10,-1,10,8,7,-1,11,9,12,-1,12,9,10,-1,13,14,15,-1,15,14,11,-1,15,11,16,-1,16,11,12,-1,14,13,17,-1,17,13,18,-1,18,19,17,-1,17,19,20,-1,17,20,21,-1,21,20,22,-1,21,22,23,-1,23,22,24,-1,23,24,25,-1,25,24,26,-1,25,26,27,-1,27,26,28,-1,27,28,29,-1,29,28,30,-1,29,30,31,-1,31,30,32,-1,31,32,33,-1,33,32,34,-1,33,34,35,-1,35,34,36,-1,35,36,37,-1,37,36,38,-1,37,38,39,-1,39,38,40,-1,39,40,41,-1,41,40,42,-1,41,42,43,-1,43,42,44,-1,43,44,45,-1,45,44,46,-1,45,46,47,-1,47,46,48,-1,47,48,49,-1,49,48,50,-1,49,50,51,-1,51,50,52,-1,51,52,53,-1,53,52,54,-1,53,54,55,-1,55,54,56,-1,55,56,57,-1,57,56,58,-1,57,58,59,-1,59,58,60,-1,59,60,61,-1,61,60,62,-1,61,62,63,-1,63,62,64,-1,63,64,65,-1,65,64,66,-1,65,66,67,-1,67,66,68,-1,67,68,69,-1,69,68,70,-1,69,70,71,-1,71,70,72,-1,71,72,73,-1,73,72,74,-1,73,74,75,-1,76,75,77,-1,77,75,74,-1,76,77,78,-1,76,78,79,-1,79,78,80,-1,79,80,81,-1,81,80,82,-1,81,82,83,-1,83,82,84,-1,83,84,85,-1,85,84,86,-1,85,86,87,-1,87,86,88,-1,88,86,89,-1,89,90,88,-1,88,90,91,-1,88,91,92,-1,92,91,93,-1,92,93,94,-1,94,93,95,-1,94,95,96,-1,96,95,97,-1,96,97,98,-1,98,97,99,-1,98,99,100,-1,100,99,101,-1,100,101,102,-1,103,104,105,-1,102,101,106,-1,102,106,107,-1,107,106,108,-1,107,108,105,-1,105,108,109,-1,105,109,103,-1,104,103,110,-1,104,110,111,-1,111,110,112,-1,111,112,113,-1,113,112,114,-1,113,114,115,-1,115,114,116,-1,115,116,117,-1,117,116,118,-1,117,118,119,-1,119,118,120,-1,119,120,121,-1,121,120,122,-1,121,122,123,-1,123,122,124,-1,123,124,125,-1,125,124,126,-1,125,126,127,-1,127,126,128,-1,127,128,129,-1,129,128,130,-1,129,130,131,-1,131,130,132,-1,131,132,133,-1,133,132,134,-1,133,134,135,-1,135,134,1,-1,135,1,0,-1,61,63,85,-1,85,63,83,-1,111,43,104,-1,104,43,45,-1,21,23,127,-1,127,23,25,-1,127,25,125,-1,125,25,27,-1,125,27,123,-1,123,27,29,-1,123,29,121,-1,121,29,31,-1,121,31,119,-1,119,31,33,-1,119,33,117,-1,117,33,35,-1,117,35,115,-1,115,35,37,-1,115,37,113,-1,113,37,39,-1,113,39,111,-1,111,39,41,-1,111,41,43,-1,14,0,11,-1,11,0,5,-1,11,5,9,-1,9,5,4,-1,9,4,8,-1,63,65,83,-1,83,65,67,-1,83,67,81,-1,81,67,69,-1,81,69,79,-1,79,69,71,-1,79,71,76,-1,76,71,73,-1,76,73,75,-1,127,129,21,-1,21,129,131,-1,21,131,17,-1,17,131,133,-1,17,133,14,-1,14,133,135,-1,14,135,0,-1,85,87,61,-1,61,87,88,-1,61,88,59,-1,59,88,92,-1,59,92,57,-1,57,92,94,-1,57,94,55,-1,55,94,96,-1,55,96,53,-1,53,96,98,-1,53,98,51,-1,51,98,100,-1,51,100,49,-1,49,100,102,-1,49,102,47,-1,47,102,107,-1,47,107,45,-1,45,107,105,-1,45,105,104,-1,136,137,138,-1,138,137,139,-1,140,136,141,-1,141,136,138,-1,140,141,142,-1,140,142,143,-1,143,142,144,-1,143,144,145,-1,146,145,147,-1,147,145,144,-1,148,146,149,-1,149,146,147,-1,150,151,152,-1,152,151,148,-1,152,148,149,-1,153,151,154,-1,154,151,150,-1,155,156,157,-1,157,156,153,-1,157,153,154,-1,158,159,160,-1,160,159,156,-1,160,156,155,-1,159,158,161,-1,159,161,162,-1,162,161,163,-1,162,163,164,-1,163,165,164,-1,164,165,166,-1,164,166,167,-1,167,166,168,-1,167,168,169,-1,169,168,170,-1,169,170,171,-1,171,170,172,-1,171,172,173,-1,173,172,174,-1,173,174,175,-1,176,175,177,-1,177,175,174,-1,176,177,178,-1,176,178,179,-1,179,178,180,-1,179,180,181,-1,181,180,182,-1,183,184,182,-1,182,184,185,-1,182,185,181,-1,183,186,184,-1,184,186,187,-1,184,187,188,-1,188,187,189,-1,188,189,190,-1,190,189,191,-1,190,191,192,-1,192,191,193,-1,192,193,194,-1,139,137,195,-1,195,137,194,-1,195,194,193,-1,143,145,194,-1,137,136,194,-1,194,136,140,-1,194,140,143,-1,151,153,148,-1,148,153,156,-1,148,156,146,-1,192,162,190,-1,190,162,164,-1,175,176,173,-1,173,176,179,-1,173,179,171,-1,171,179,181,-1,171,181,169,-1,169,181,185,-1,169,185,167,-1,167,185,184,-1,167,184,164,-1,164,184,188,-1,164,188,190,-1,145,146,194,-1,194,146,156,-1,194,156,192,-1,192,156,159,-1,192,159,162,-1,196,197,198,-1,198,197,199,-1,200,201,202,-1,202,201,196,-1,202,196,198,-1,203,201,204,-1,204,201,200,-1,205,206,207,-1,207,206,203,-1,207,203,204,-1,208,206,209,-1,209,206,205,-1,210,211,212,-1,212,211,208,-1,212,208,209,-1,213,211,214,-1,214,211,210,-1,215,216,217,-1,217,216,213,-1,217,213,214,-1,218,216,219,-1,219,216,215,-1,220,221,222,-1,222,221,218,-1,222,218,219,-1,223,221,224,-1,224,221,220,-1,199,197,225,-1,225,197,223,-1,225,223,224,-1,223,197,196,-1,196,201,223,-1,223,201,203,-1,223,203,221,-1,216,218,213,-1,213,218,221,-1,213,221,211,-1,211,221,203,-1,211,203,208,-1,208,203,206,-1,226,227,228,-1,228,227,229,-1,228,229,230,-1,230,229,231,-1,230,231,232,-1,232,231,233,-1,232,233,234,-1,234,233,235,-1,234,235,236,-1,236,235,237,-1,236,237,238,-1,238,237,239,-1,238,239,240,-1,240,239,241,-1,240,241,242,-1,242,241,243,-1,242,243,244,-1,244,243,245,-1,244,245,246,-1,246,245,247,-1,246,247,248,-1,248,247,249,-1,248,249,250,-1,250,249,251,-1,250,251,252,-1,252,251,253,-1,252,253,254,-1,254,253,255,-1,254,255,256,-1,256,255,257,-1,256,257,258,-1,258,257,259,-1,258,259,260,-1,260,259,226,-1,260,226,228,-1,234,236,261,-1,261,236,262,-1,234,261,263,-1,234,263,232,-1,232,263,264,-1,232,264,230,-1,230,264,265,-1,230,265,228,-1,228,265,266,-1,228,266,260,-1,260,266,267,-1,260,267,258,-1,258,267,268,-1,258,268,256,-1,256,268,269,-1,256,269,254,-1,254,269,270,-1,254,270,252,-1,252,270,271,-1,252,271,250,-1,250,271,272,-1,250,272,248,-1,248,272,273,-1,248,273,246,-1,246,273,274,-1,246,274,244,-1,244,274,275,-1,244,275,242,-1,242,275,276,-1,242,276,240,-1,238,240,277,-1,277,240,276,-1,236,238,262,-1,262,238,277,-1,241,239,278,-1,278,239,279,-1,239,237,279,-1,279,237,280,-1,237,235,280,-1,280,235,281,-1,227,282,283,-1,227,283,229,-1,229,283,284,-1,229,284,231,-1,231,284,285,-1,231,285,233,-1,233,285,281,-1,233,281,235,-1,255,286,287,-1,255,287,257,-1,257,287,288,-1,257,288,259,-1,259,288,289,-1,259,289,226,-1,226,289,282,-1,226,282,227,-1,247,290,291,-1,247,291,249,-1,249,291,292,-1,249,292,251,-1,251,292,293,-1,251,293,253,-1,253,293,286,-1,253,286,255,-1,241,278,294,-1,241,294,243,-1,243,294,295,-1,243,295,245,-1,245,295,290,-1,245,290,247,-1,
        ]
    }
}
Shape{
    appearance Appearance {
        material  Material 	{
            diffuseColor 0.25098039215686274 0.25098039215686274 0.25098039215686274
            specularColor 0.25098039215686274 0.25098039215686274 0.25098039215686274
            ambientIntensity 0.2
            transparency 0
            shininess 0.5
        }
    }
    geometry IndexedFaceSet {
        ccw TRUE
        solid FALSE
        coord DEF co Coordinate {
            point [
                1.2008 0.2446 0.8419, 1.2008 0.2446 0.8007, 1.2008 0.2526 0.8419, 1.2008 0.2523 0.8007, 1.2008 0.2675 0.8057, 1.2008 0.2682 0.8063, 1.2008 0.2596 0.8016, 1.2008 0.2641 0.8033, 1.2008 0.2737 0.8186, 1.2008 0.2739 0.8218, 1.2008 0.2709 0.8097, 1.2008 0.2727 0.8136, 1.2008 0.2733 0.8275, 1.2008 0.2719 0.8317, 1.2008 0.27 0.8348, 1.2008 0.268 0.8368, 1.2008 0.2643 0.8394, 1.2008 0.2596 0.8411, 1.2008 0.2596 0.8411
            ]
        }
        coordIndex [
            0,1,2,-1,2,1,3,-1,2,4,5,-1,3,6,2,-1,2,6,7,-1,2,7,4,-1,8,9,2,-1,5,10,2,-1,2,10,11,-1,2,11,8,-1,9,12,2,-1,2,12,13,-1,2,13,14,-1,14,15,2,-1,2,15,16,-1,2,16,17,-1,
        ]
    }
}
Shape{
    appearance Appearance {
        material  Material 	{
            diffuseColor 1.0 1.0 1.0
            specularColor 0.5019607843137255 0.5019607843137255 0.5019607843137255
            ambientIntensity 0.2
            transparency 0
            shininess 0.5
        }
    }
    geometry IndexedFaceSet {
        ccw TRUE
        solid FALSE
        coord DEF co Coordinate {
            point [
                1.2012 0.299 0.8152, 1.2012 0.2968 0.8092, 1.2012 0.3169 0.8152, 1.2012 0.3191 0.8092, 1.2012 0.307 0.8374, 1.2012 0.3044 0.848, 1.2012 0.2841 0.7946, 1.2012 0.2917 0.7946, 1.2012 0.3075 0.839, 1.2012 0.3079 0.8412, 1.2012 0.3118 0.848, 1.2012 0.308 0.8412, 1.2012 0.3085 0.8389, 1.2012 0.3089 0.8374, 1.2012 0.3321 0.7946, 1.2012 0.3245 0.7946, 1.2008 0.3118 0.848, 1.2008 0.3321 0.7946, 1.2008 0.3044 0.848, 1.2008 0.2841 0.7946, 1.2008 0.2917 0.7946, 1.2008 0.2968 0.8092, 1.2008 0.3191 0.8092, 1.2008 0.3245 0.7946, 1.2008 0.299 0.8152, 1.2008 0.3169 0.8152, 1.2008 0.3089 0.8374, 1.2008 0.308 0.8412, 1.2008 0.3085 0.8389, 1.2008 0.3079 0.8412, 1.2008 0.307 0.8374, 1.2008 0.3075 0.839, 1.2008 0.3075 0.839
            ]
        }
        coordIndex [
            0,1,2,-1,2,1,3,-1,4,5,0,-1,0,5,6,-1,0,6,1,-1,1,6,7,-1,4,8,5,-1,5,8,9,-1,5,9,10,-1,10,9,11,-1,10,11,12,-1,12,13,10,-1,10,13,2,-1,10,2,14,-1,14,2,3,-1,14,3,15,-1,10,14,16,-1,16,14,17,-1,5,10,18,-1,18,10,16,-1,6,5,19,-1,19,5,18,-1,7,6,20,-1,20,6,19,-1,1,7,21,-1,21,7,20,-1,3,1,22,-1,22,1,21,-1,15,3,23,-1,23,3,22,-1,14,15,17,-1,17,15,23,-1,0,2,24,-1,24,2,25,-1,2,13,25,-1,25,13,26,-1,11,27,28,-1,11,28,12,-1,12,28,26,-1,12,26,13,-1,11,9,27,-1,27,9,29,-1,4,30,31,-1,4,31,8,-1,8,31,29,-1,8,29,9,-1,4,0,30,-1,30,0,24,-1,
        ]
    }
}
Shape{
    appearance Appearance {
        material  Material 	{
            diffuseColor 0.25098039215686274 0.25098039215686274 0.25098039215686274
            specularColor 0.25098039215686274 0.25098039215686274 0.25098039215686274
            ambientIntensity 0.2
            transparency 0
            shininess 0.5
        }
    }
    geometry IndexedFaceSet {
        ccw TRUE
        solid FALSE
        coord DEF co Coordinate {
            point [
                1.2008 0.308 0.8412, 1.2008 0.3079 0.8412, 1.2008 0.3085 0.8389, 1.2008 0.3075 0.839, 1.2008 0.3089 0.8374, 1.2008 0.307 0.8374, 1.2008 0.3169 0.8152, 1.2008 0.299 0.8152, 1.2008 0.299 0.8152
            ]
        }
        coordIndex [
            0,1,2,-1,2,1,3,-1,2,3,4,-1,4,3,5,-1,4,5,6,-1,6,5,7,-1,
        ]
    }
}
Shape{
    appearance Appearance {
        material  Material 	{
            diffuseColor 1.0 1.0 1.0
            specularColor 0.5019607843137255 0.5019607843137255 0.5019607843137255
            ambientIntensity 0.2
            transparency 0
            shininess 0.5
        }
    }
    geometry IndexedFaceSet {
        ccw TRUE
        solid FALSE
        coord DEF co Coordinate {
            point [
                1.2012 -0.1947 0.8866, 1.2012 -0.1863 0.8911, 1.2012 -0.1883 0.9144, 1.2012 -0.1214 0.7855, 1.2012 -0.1169 0.794, 1.2012 -0.1147 0.8034, 1.2012 -0.1646 0.9155, 1.2012 -0.1528 0.8878, 1.2012 -0.147 0.8998, 1.2012 -0.1669 0.8023, 1.2012 -0.1676 0.8059, 1.2012 -0.1881 0.8206, 1.2012 -0.1885 0.7952, 1.2012 -0.1933 0.7966, 1.2012 -0.1964 0.8257, 1.2012 -0.1733 0.9163, 1.2012 -0.0614 0.8392, 1.2012 -0.0731 0.8593, 1.2012 -0.1145 0.8111, 1.2012 -0.124 0.8328, 1.2012 -0.1145 0.8073, 1.2012 -0.1348 0.7738, 1.2012 -0.1272 0.779, 1.2012 -0.1654 0.7991, 1.2012 -0.179 0.7801, 1.2012 -0.1847 0.787, 1.2012 -0.0488 0.8768, 1.2012 -0.0458 0.8768, 1.2012 -0.0302 0.8973, 1.2012 -0.0386 0.8759, 1.2012 -0.0284 0.8967, 1.2012 -0.0319 0.8733, 1.2012 -0.0171 0.8911, 1.2012 -0.0068 0.8824, 1.2012 -0.1568 0.9246, 1.2012 -0.1385 0.91, 1.2012 -0.1479 0.9322, 1.2012 -0.1283 0.9174, 1.2012 -0.1384 0.9381, 1.2012 -0.1769 0.8933, 1.2012 -0.1729 0.8935, 1.2012 -0.169 0.916, 1.2012 -0.164 0.8924, 1.2012 -0.1555 0.8893, 1.2012 -0.1408 0.7984, 1.2012 -0.1428 0.796, 1.2012 -0.1457 0.794, 1.2012 -0.1432 0.7705, 1.2012 -0.149 0.7926, 1.2012 -0.1524 0.7694, 1.2012 -0.1528 0.7922, 1.2012 -0.1539 0.7694, 1.2012 -0.1535 0.7922, 1.2012 -0.1629 0.7708, 1.2012 -0.1569 0.7927, 1.2012 -0.1716 0.7745, 1.2012 -0.1603 0.7942, 1.2012 -0.1632 0.7964, 1.2012 -0.139 0.8122, 1.2012 -0.1381 0.8087, 1.2012 -0.1381 0.8053, 1.2012 -0.139 0.8016, 1.2012 -0.0067 0.8115, 1.2012 -0.0244 0.8266, 1.2012 -0.017 0.8028, 1.2012 -0.03 0.822, 1.2012 -0.0286 0.7971, 1.2012 -0.0367 0.8189, 1.2012 -0.0412 0.7944, 1.2012 -0.0435 0.8176, 1.2012 -0.0636 0.7944, 1.2012 -0.0606 0.8176, 1.2012 -0.0658 0.7948, 1.2012 -0.1674 0.8096, 1.2012 -0.1663 0.8131, 1.2012 -0.1839 0.8288, 1.2012 -0.1643 0.8163, 1.2012 -0.1777 0.8359, 1.2012 -0.1628 0.8179, 1.2012 -0.1699 0.8413, 1.2012 -0.1598 0.82, 1.2012 -0.1615 0.8445, 1.2012 -0.1565 0.8213, 1.2012 -0.1524 0.8457, 1.2012 -0.1528 0.8218, 1.2012 -0.1478 0.8454, 1.2012 -0.1497 0.8214, 1.2012 -0.1387 0.8431, 1.2012 -0.1461 0.8202, 1.2012 -0.1306 0.8388, 1.2012 -0.1431 0.8181, 1.2012 -0.1406 0.8154, 1.2012 -0.0261 0.8692, 1.2012 -0.0217 0.8644, 1.2012 0.001 0.8716, 1.2012 -0.0182 0.8578, 1.2012 0.0056 0.86, 1.2012 -0.0164 0.8505, 1.2012 0.0073 0.8476, 1.2012 -0.0162 0.8472, 1.2012 0.0056 0.834, 1.2012 -0.0171 0.8398, 1.2012 0.0008 0.822, 1.2012 -0.0197 0.833, 1.2012 -0.0239 0.8271, 1.2012 -0.0507 0.9273, 1.2012 -0.0656 0.9098, 1.2012 -0.0381 0.9127, 1.2012 -0.057 0.8996, 1.2012 -0.0512 0.8874, 1.2012 -0.2098 0.8647, 1.2012 -0.2347 0.8584, 1.2012 -0.2109 0.8555, 1.2012 -0.2348 0.8548, 1.2012 -0.2104 0.8497, 1.2012 -0.233 0.8399, 1.2012 -0.2077 0.8404, 1.2012 -0.2275 0.8258, 1.2012 -0.2032 0.8327, 1.2012 -0.2189 0.8134, 1.2012 -0.207 0.8033, 1.2012 -0.1208 0.9448, 1.2012 -0.1159 0.9224, 1.2012 -0.1023 0.947, 1.2012 -0.102 0.9242, 1.2012 -0.0858 0.9452, 1.2012 -0.0891 0.9226, 1.2012 -0.0668 0.9382, 1.2012 -0.0772 0.9181, 1.2012 -0.0665 0.9107, 1.2012 -0.2023 0.909, 1.2012 -0.2144 0.9005, 1.2012 -0.2012 0.8808, 1.2012 -0.217 0.898, 1.2012 -0.2065 0.8732, 1.2012 -0.2261 0.8863, 1.2012 -0.2321 0.8727, 1.2012 -0.0625 0.8179, 1.2012 -0.0716 0.7984, 1.2012 -0.0707 0.7975, 1.2012 -0.0614 0.8177, 1.2012 -0.0683 0.7958, 1.2012 -0.0746 0.8062, 1.2012 -0.0743 0.8034, 1.2012 -0.0733 0.8008, 1.2012 -0.0658 0.8176, 1.2012 -0.0684 0.8166, 1.2012 -0.0745 0.8077, 1.2012 -0.0708 0.8149, 1.2012 -0.0723 0.8132, 1.2012 -0.0738 0.8106, 1.2012 -0.0629 0.818, 1.2008 0.0073 0.8476, 1.2008 0.0056 0.86, 1.2008 -0.0043 0.8788, 1.2008 0.0043 0.8632, 1.2008 0.001 0.8716, 1.2008 -0.0068 0.8824, 1.2008 -0.0171 0.8911, 1.2008 -0.0284 0.8967, 1.2008 -0.0302 0.8973, 1.2008 -0.0381 0.9127, 1.2008 -0.0507 0.9273, 1.2008 -0.0593 0.9331, 1.2008 -0.0668 0.9382, 1.2008 -0.0858 0.9452, 1.2008 -0.1023 0.947, 1.2008 -0.1479 0.9322, 1.2008 -0.1464 0.9331, 1.2008 -0.1384 0.9381, 1.2008 -0.1208 0.9448, 1.2008 -0.1568 0.9246, 1.2008 -0.1646 0.9155, 1.2008 -0.169 0.916, 1.2008 -0.1733 0.9163, 1.2008 -0.1883 0.9144, 1.2008 -0.2023 0.909, 1.2008 -0.2144 0.9005, 1.2008 -0.217 0.898, 1.2008 -0.2348 0.8548, 1.2008 -0.2261 0.8863, 1.2008 -0.2294 0.8788, 1.2008 -0.2321 0.8727, 1.2008 -0.2338 0.8632, 1.2008 -0.2347 0.8584, 1.2008 -0.233 0.8399, 1.2008 -0.2275 0.8258, 1.2008 -0.2189 0.8134, 1.2008 -0.207 0.8033, 1.2008 -0.1933 0.7966, 1.2008 -0.1885 0.7952, 1.2008 -0.188 0.7942, 1.2008 -0.1847 0.787, 1.2008 -0.179 0.7801, 1.2008 -0.1716 0.7745, 1.2008 -0.1681 0.773, 1.2008 -0.1629 0.7708, 1.2008 -0.1539 0.7694, 1.2008 -0.1524 0.7694, 1.2008 -0.1145 0.8073, 1.2008 -0.1432 0.7705, 1.2008 -0.1367 0.773, 1.2008 -0.1348 0.7738, 1.2008 -0.1272 0.779, 1.2008 -0.1214 0.7855, 1.2008 -0.1169 0.794, 1.2008 -0.1169 0.7942, 1.2008 -0.1147 0.8034, 1.2008 -0.1145 0.8111, 1.2008 -0.0614 0.8392, 1.2008 -0.0731 0.8593, 1.2008 -0.124 0.8328, 1.2008 -0.1306 0.8388, 1.2008 -0.1387 0.8431, 1.2008 -0.1478 0.8454, 1.2008 -0.1524 0.8457, 1.2008 -0.1615 0.8445, 1.2008 -0.1699 0.8413, 1.2008 -0.1777 0.8359, 1.2008 -0.1839 0.8288, 1.2008 -0.1881 0.8206, 1.2008 -0.1964 0.8257, 1.2008 -0.2032 0.8327, 1.2008 -0.2077 0.8404, 1.2008 -0.2104 0.8497, 1.2008 -0.2109 0.8555, 1.2008 -0.2099 0.8632, 1.2008 -0.2098 0.8647, 1.2008 -0.2065 0.8732, 1.2008 -0.2026 0.8788, 1.2008 -0.2012 0.8808, 1.2008 -0.1947 0.8866, 1.2008 -0.1863 0.8911, 1.2008 -0.1769 0.8933, 1.2008 -0.1729 0.8935, 1.2008 -0.164 0.8924, 1.2008 -0.1555 0.8893, 1.2008 -0.1528 0.8878, 1.2008 -0.147 0.8998, 1.2008 -0.1385 0.91, 1.2008 -0.1283 0.9174, 1.2008 -0.1159 0.9224, 1.2008 -0.102 0.9242, 1.2008 -0.0488 0.8768, 1.2008 -0.0493 0.8788, 1.2008 -0.0512 0.8874, 1.2008 -0.057 0.8996, 1.2008 -0.0656 0.9098, 1.2008 -0.0665 0.9107, 1.2008 -0.0772 0.9181, 1.2008 -0.0891 0.9226, 1.2008 -0.0458 0.8768, 1.2008 -0.0386 0.8759, 1.2008 -0.0319 0.8733, 1.2008 -0.0261 0.8692, 1.2008 -0.0217 0.8644, 1.2008 -0.0211 0.8632, 1.2008 -0.0182 0.8578, 1.2008 -0.0164 0.8505, 1.2008 -0.0162 0.8472, 1.2008 -0.0171 0.8398, 1.2008 -0.0197 0.833, 1.2008 -0.0239 0.8271, 1.2008 -0.0244 0.8266, 1.2008 -0.03 0.822, 1.2008 -0.0367 0.8189, 1.2008 -0.0435 0.8176, 1.2008 -0.0606 0.8176, 1.2008 -0.0614 0.8177, 1.2008 -0.0625 0.8179, 1.2008 -0.0629 0.818, 1.2008 -0.0658 0.8176, 1.2008 -0.0684 0.8166, 1.2008 -0.0708 0.8149, 1.2008 -0.0723 0.8132, 1.2008 -0.0738 0.8106, 1.2008 -0.0745 0.8077, 1.2008 -0.0746 0.8062, 1.2008 -0.0743 0.8034, 1.2008 -0.0733 0.8008, 1.2008 -0.0716 0.7984, 1.2008 -0.0707 0.7975, 1.2008 -0.0683 0.7958, 1.2008 -0.0658 0.7948, 1.2008 -0.0636 0.7944, 1.2008 -0.0412 0.7944, 1.2008 -0.0286 0.7971, 1.2008 -0.017 0.8028, 1.2008 -0.0067 0.8115, 1.2008 0.0008 0.822, 1.2008 0.0056 0.834, 1.2008 -0.1528 0.8218, 1.2008 -0.1497 0.8214, 1.2008 -0.1461 0.8202, 1.2008 -0.1431 0.8181, 1.2008 -0.1406 0.8154, 1.2008 -0.139 0.8122, 1.2008 -0.1381 0.8087, 1.2008 -0.1381 0.8053, 1.2008 -0.139 0.8016, 1.2008 -0.1408 0.7984, 1.2008 -0.1428 0.796, 1.2008 -0.1457 0.794, 1.2008 -0.149 0.7926, 1.2008 -0.1528 0.7922, 1.2008 -0.1535 0.7922, 1.2008 -0.1569 0.7927, 1.2008 -0.1603 0.7942, 1.2008 -0.1632 0.7964, 1.2008 -0.1654 0.7991, 1.2008 -0.1669 0.8023, 1.2008 -0.1676 0.8059, 1.2008 -0.1674 0.8096, 1.2008 -0.1663 0.8131, 1.2008 -0.1643 0.8163, 1.2008 -0.1628 0.8179, 1.2008 -0.1598 0.82, 1.2008 -0.1565 0.8213, 1.2008 -0.1565 0.8213
            ]
        }
        coordIndex [
            0,1,2,-1,3,4,5,-1,6,7,8,-1,9,10,11,-1,12,11,13,-1,13,11,14,-1,2,1,15,-1,16,17,18,-1,18,17,19,-1,18,19,20,-1,20,19,21,-1,20,21,5,-1,5,21,22,-1,5,22,3,-1,23,9,24,-1,24,9,11,-1,24,11,25,-1,25,11,12,-1,26,27,28,-1,28,27,29,-1,28,29,30,-1,30,29,31,-1,30,31,32,-1,32,31,33,-1,6,8,34,-1,34,8,35,-1,34,35,36,-1,36,35,37,-1,36,37,38,-1,1,39,15,-1,15,39,40,-1,15,40,41,-1,41,40,42,-1,41,42,6,-1,6,42,43,-1,6,43,7,-1,44,45,21,-1,21,45,46,-1,21,46,47,-1,47,46,48,-1,47,48,49,-1,49,48,50,-1,49,50,51,-1,51,50,52,-1,51,52,53,-1,53,52,54,-1,53,54,55,-1,55,54,56,-1,55,56,24,-1,24,56,57,-1,24,57,23,-1,58,59,19,-1,19,59,60,-1,19,60,21,-1,21,60,61,-1,21,61,44,-1,62,63,64,-1,64,63,65,-1,64,65,66,-1,66,65,67,-1,66,67,68,-1,68,67,69,-1,68,69,70,-1,70,69,71,-1,70,71,72,-1,10,73,11,-1,11,73,74,-1,11,74,75,-1,75,74,76,-1,75,76,77,-1,77,76,78,-1,77,78,79,-1,79,78,80,-1,79,80,81,-1,81,80,82,-1,81,82,83,-1,83,82,84,-1,83,84,85,-1,85,84,86,-1,85,86,87,-1,87,86,88,-1,87,88,89,-1,89,88,90,-1,89,90,19,-1,19,90,91,-1,19,91,58,-1,31,92,33,-1,33,92,93,-1,33,93,94,-1,94,93,95,-1,94,95,96,-1,96,95,97,-1,96,97,98,-1,98,97,99,-1,98,99,100,-1,100,99,101,-1,100,101,102,-1,102,101,103,-1,102,103,62,-1,62,103,104,-1,62,104,63,-1,105,106,107,-1,107,106,108,-1,107,108,28,-1,28,108,109,-1,28,109,26,-1,110,111,112,-1,112,111,113,-1,112,113,114,-1,114,113,115,-1,114,115,116,-1,116,115,117,-1,116,117,118,-1,118,117,119,-1,118,119,14,-1,14,119,120,-1,14,120,13,-1,38,37,121,-1,121,37,122,-1,121,122,123,-1,123,122,124,-1,123,124,125,-1,125,124,126,-1,125,126,127,-1,127,126,128,-1,127,128,105,-1,105,128,129,-1,105,129,106,-1,2,130,0,-1,0,130,131,-1,0,131,132,-1,132,131,133,-1,132,133,134,-1,134,133,135,-1,134,135,110,-1,110,135,136,-1,110,136,111,-1,137,138,139,-1,71,140,72,-1,72,140,137,-1,72,137,141,-1,141,137,139,-1,142,143,137,-1,137,143,144,-1,137,144,138,-1,145,146,147,-1,146,148,147,-1,147,148,149,-1,147,149,150,-1,142,137,147,-1,147,137,151,-1,147,151,145,-1,98,152,153,-1,154,33,94,-1,98,153,96,-1,96,153,155,-1,96,155,94,-1,94,155,156,-1,94,156,154,-1,154,157,33,-1,33,157,158,-1,33,158,32,-1,32,158,159,-1,32,159,30,-1,30,159,160,-1,30,160,28,-1,28,160,161,-1,28,161,107,-1,107,161,162,-1,107,162,105,-1,127,105,163,-1,163,105,162,-1,163,164,127,-1,127,164,165,-1,127,165,125,-1,125,165,166,-1,125,166,123,-1,167,36,168,-1,168,36,38,-1,168,38,169,-1,169,38,121,-1,169,121,170,-1,170,121,123,-1,170,123,166,-1,36,167,171,-1,36,171,34,-1,34,171,172,-1,34,172,6,-1,6,172,173,-1,6,173,41,-1,41,173,174,-1,41,174,15,-1,15,174,175,-1,15,175,2,-1,2,175,176,-1,2,176,130,-1,130,176,177,-1,130,177,131,-1,131,177,178,-1,131,178,133,-1,179,113,111,-1,133,178,180,-1,133,180,135,-1,135,180,181,-1,135,181,136,-1,181,182,136,-1,136,182,183,-1,136,183,111,-1,111,183,184,-1,111,184,179,-1,113,179,185,-1,113,185,115,-1,115,185,186,-1,115,186,117,-1,117,186,187,-1,117,187,119,-1,119,187,188,-1,119,188,120,-1,120,188,189,-1,120,189,13,-1,13,189,190,-1,13,190,12,-1,12,190,191,-1,12,191,25,-1,191,192,25,-1,25,192,193,-1,25,193,24,-1,24,193,194,-1,24,194,55,-1,55,194,195,-1,55,195,53,-1,195,196,53,-1,53,196,197,-1,53,197,51,-1,51,197,198,-1,51,198,49,-1,199,20,5,-1,49,198,200,-1,49,200,47,-1,47,200,201,-1,47,201,21,-1,201,202,21,-1,21,202,203,-1,21,203,22,-1,22,203,204,-1,22,204,3,-1,3,204,205,-1,3,205,4,-1,4,205,206,-1,4,206,5,-1,5,206,207,-1,5,207,199,-1,18,20,208,-1,208,20,199,-1,16,18,209,-1,209,18,208,-1,17,16,210,-1,210,16,209,-1,19,17,211,-1,211,17,210,-1,19,211,212,-1,19,212,89,-1,89,212,213,-1,89,213,87,-1,87,213,214,-1,87,214,85,-1,85,214,215,-1,85,215,83,-1,83,215,216,-1,83,216,81,-1,81,216,217,-1,81,217,79,-1,79,217,218,-1,79,218,77,-1,77,218,219,-1,77,219,75,-1,75,219,220,-1,75,220,11,-1,11,220,221,-1,11,221,14,-1,14,221,222,-1,14,222,118,-1,118,222,223,-1,118,223,116,-1,116,223,224,-1,116,224,114,-1,114,224,225,-1,114,225,112,-1,110,112,226,-1,226,112,225,-1,226,227,110,-1,110,227,228,-1,110,228,134,-1,134,228,229,-1,134,229,132,-1,229,230,132,-1,132,230,231,-1,132,231,0,-1,0,231,232,-1,0,232,1,-1,1,232,233,-1,1,233,39,-1,39,233,234,-1,39,234,40,-1,40,234,235,-1,40,235,42,-1,42,235,236,-1,42,236,43,-1,43,236,237,-1,43,237,7,-1,7,237,238,-1,7,238,8,-1,8,238,239,-1,8,239,35,-1,35,239,240,-1,35,240,37,-1,37,240,241,-1,37,241,122,-1,122,241,242,-1,122,242,124,-1,243,26,244,-1,244,26,109,-1,244,109,245,-1,245,109,108,-1,245,108,246,-1,246,108,106,-1,246,106,247,-1,247,106,129,-1,247,129,248,-1,248,129,128,-1,248,128,249,-1,249,128,126,-1,249,126,250,-1,250,126,124,-1,250,124,242,-1,27,26,251,-1,251,26,243,-1,27,251,252,-1,27,252,29,-1,29,252,253,-1,29,253,31,-1,31,253,254,-1,31,254,92,-1,92,254,255,-1,92,255,93,-1,93,255,256,-1,93,256,95,-1,256,257,95,-1,95,257,258,-1,95,258,97,-1,97,258,259,-1,97,259,99,-1,99,259,260,-1,99,260,101,-1,101,260,261,-1,101,261,103,-1,103,261,262,-1,103,262,104,-1,104,262,263,-1,104,263,63,-1,63,263,264,-1,63,264,65,-1,65,264,265,-1,65,265,67,-1,67,265,266,-1,67,266,69,-1,71,69,267,-1,267,69,266,-1,71,267,268,-1,71,268,140,-1,140,268,269,-1,140,269,137,-1,137,269,270,-1,137,270,151,-1,151,270,271,-1,151,271,145,-1,145,271,272,-1,145,272,146,-1,146,272,273,-1,146,273,148,-1,148,273,274,-1,148,274,149,-1,149,274,275,-1,149,275,150,-1,150,275,276,-1,150,276,147,-1,147,276,277,-1,147,277,142,-1,142,277,278,-1,142,278,143,-1,143,278,279,-1,143,279,144,-1,144,279,280,-1,144,280,138,-1,138,280,281,-1,138,281,139,-1,139,281,282,-1,139,282,141,-1,141,282,283,-1,141,283,72,-1,72,283,284,-1,72,284,70,-1,68,70,285,-1,285,70,284,-1,68,285,286,-1,68,286,66,-1,66,286,287,-1,66,287,64,-1,64,287,288,-1,64,288,62,-1,62,288,289,-1,62,289,102,-1,102,289,290,-1,102,290,100,-1,100,290,152,-1,100,152,98,-1,84,291,292,-1,84,292,86,-1,86,292,293,-1,86,293,88,-1,88,293,294,-1,88,294,90,-1,90,294,295,-1,90,295,91,-1,91,295,296,-1,91,296,58,-1,58,296,297,-1,58,297,59,-1,59,297,298,-1,59,298,60,-1,60,298,299,-1,60,299,61,-1,61,299,300,-1,61,300,44,-1,44,300,301,-1,44,301,45,-1,45,301,302,-1,45,302,46,-1,46,302,303,-1,46,303,48,-1,48,303,304,-1,48,304,50,-1,50,304,305,-1,50,305,52,-1,52,305,306,-1,52,306,54,-1,54,306,307,-1,54,307,56,-1,56,307,308,-1,56,308,57,-1,57,308,309,-1,57,309,23,-1,23,309,310,-1,23,310,9,-1,9,310,311,-1,9,311,10,-1,10,311,312,-1,10,312,73,-1,73,312,313,-1,73,313,74,-1,74,313,314,-1,74,314,76,-1,76,314,315,-1,76,315,78,-1,78,315,316,-1,78,316,80,-1,80,316,317,-1,80,317,82,-1,82,317,291,-1,82,291,84,-1,
        ]
    }
}
Shape{
    appearance Appearance {
        material  Material 	{
            diffuseColor 0.25098039215686274 0.25098039215686274 0.25098039215686274
            specularColor 0.25098039215686274 0.25098039215686274 0.25098039215686274
            ambientIntensity 0.2
            transparency 0
            shininess 0.5
        }
    }
    geometry IndexedFaceSet {
        ccw TRUE
        solid FALSE
        coord DEF co Coordinate {
            point [
                1.2008 -0.1535 0.7922, 1.2008 -0.1628 0.8179, 1.2008 -0.1643 0.8163, 1.2008 -0.149 0.7926, 1.2008 -0.1457 0.794, 1.2008 -0.1497 0.8214, 1.2008 -0.1528 0.8218, 1.2008 -0.1565 0.8213, 1.2008 -0.1598 0.82, 1.2008 -0.1669 0.8023, 1.2008 -0.1654 0.7991, 1.2008 -0.1632 0.7964, 1.2008 -0.1528 0.7922, 1.2008 -0.1663 0.8131, 1.2008 -0.1674 0.8096, 1.2008 -0.1676 0.8059, 1.2008 -0.1603 0.7942, 1.2008 -0.1569 0.7927, 1.2008 -0.1428 0.796, 1.2008 -0.1408 0.7984, 1.2008 -0.139 0.8016, 1.2008 -0.1381 0.8053, 1.2008 -0.1381 0.8087, 1.2008 -0.139 0.8122, 1.2008 -0.1406 0.8154, 1.2008 -0.1431 0.8181, 1.2008 -0.1461 0.8202, 1.2008 -0.1461 0.8202
            ]
        }
        coordIndex [
            0,1,2,-1,3,4,5,-1,6,7,0,-1,0,7,8,-1,0,8,1,-1,9,10,2,-1,2,10,11,-1,6,0,5,-1,5,0,12,-1,5,12,3,-1,13,14,2,-1,2,14,15,-1,2,15,9,-1,11,16,2,-1,2,16,17,-1,2,17,0,-1,4,18,5,-1,5,18,19,-1,5,19,20,-1,20,21,5,-1,5,21,22,-1,5,22,23,-1,23,24,5,-1,5,24,25,-1,5,25,26,-1,
        ]
    }
}