#VRML V2.0 utf8
# 3D model generated by easyeda2kicad.py (https://github.com/uPesy/easyeda2kicad.py)

Shape{
    appearance Appearance {
        material  Material 	{
            diffuseColor 0.11372549019607843 0.11372549019607843 0.11372549019607843
            specularColor 0.058823529411764705 0.058823529411764705 0.058823529411764705
            ambientIntensity 0.2
            transparency 0
            shininess 0.5
        }
    }
    geometry IndexedFaceSet {
        ccw TRUE
        solid FALSE
        coord DEF co Coordinate {
            point [
                0.1922 0.1714 0.4331, 0.2399 0.1776 0.4331, 0.2595 0.172 0.4331, 0.2736 -0.1801 0.4331, 0.4742 -0.1777 0.4331, 0.6759 -0.1777 0.4331, 0.1477 -0.1573 0.4331, 0.1093 -0.1801 0.4331, 0.1477 -0.1141 0.4331, 0.1477 0.1524 0.4331, 0.1964 -0.1335 0.4331, 0.2488 -0.1393 0.4331, 0.3478 0.1306 0.4331, 0.3617 0.1145 0.4331, 0.2929 -0.129 0.4331, 0.3723 0.0937 0.4331, 0.3808 0.0632 0.4331, 0.3878 0.015 0.4331, 0.3786 -0.0328 0.4331, 0.3206 -0.1188 0.4331, 0.3993 -0.1199 0.4331, 0.4196 -0.0876 0.4331, 0.4742 -0.1345 0.4331, 0.4331 -0.0455 0.4331, 0.2975 -0.1768 0.4331, 0.3419 -0.1643 0.4331, 0.3706 -0.1477 0.4331, 0.3996 0.1465 0.4331, 0.3731 0.1747 0.4331, 0.1093 1.752 0.4331, 0.3412 0.1961 0.4331, 0.2983 0.2112 0.4331, 0.2404 0.2208 0.4331, 0.1932 0.2176 0.4331, 0.1477 0.2052 0.4331, 0.3241 0.1473 0.4331, 0.3646 -0.0743 0.4331, 0.3514 -0.0954 0.4331, 0.3392 -0.1073 0.4331, 0.4406 0.0117 0.4331, 0.435 0.057 0.4331, 0.4211 0.1089 0.4331, 0.2004 -0.1769 0.4331, 0.2321 -0.1801 0.4331, 0.1093 -1.752 0.4331, 0.2561 -0.1825 0.4331, 0.6231 -0.1345 0.4331, 0.6231 0.216 0.4331, 0.6759 0.216 0.4331, 1.437 1.752 0.4331, 1.437 -0.1801 0.4331, 1.437 -1.752 0.4331, -0.1211 -0.0001 0.4331, 0.0181 -0.0001 0.4331, 0.0181 -0.1345 0.4331, -0.2172 0.216 0.4331, -0.1403 -0.1345 0.4331, -0.2172 -0.1777 0.4331, -0.1403 -0.1777 0.4331, 0.0709 -0.1777 0.4331, 0.0709 0.216 0.4331, -0.1307 0.216 0.4331, -1.437 1.752 0.4331, -0.5133 -0.0709 0.4331, -0.4947 -0.1024 0.4331, -0.5628 -0.1777 0.4331, -0.4639 -0.1335 0.4331, -0.4226 0.1974 0.4331, -0.7117 0.216 0.4331, -0.367 0.2113 0.4331, -0.3283 0.216 0.4331, -0.5103 0.1209 0.4331, -0.525 0.0795 0.4331, -0.534 0.0241 0.4331, -0.5273 -0.0234 0.4331, -0.4598 0.1774 0.4331, -0.4905 0.1499 0.4331, -0.1211 0.0432 0.4331, -0.1307 0.1728 0.4331, 0.0181 0.0432 0.4331, 0.0181 0.1728 0.4331, -0.4287 -0.1551 0.4331, -0.3839 -0.1693 0.4331, -0.3242 -0.1777 0.4331, -0.7645 0.216 0.4331, -1.437 -0.1801 0.4331, -0.9181 -0.1777 0.4331, -0.8605 -0.1777 0.4331, -0.6205 -0.1777 0.4331, -0.8207 -0.0673 0.4331, -0.658 -0.0673 0.4331, -1.437 -1.752 0.4331, -1.1679 -1.5807 1.2205, -1.1406 -1.5954 1.2205, 1.5157 1.9488 1.2205, -1.2249 -1.8137 1.2205, -1.5157 -1.9488 1.2205, -1.1944 -1.8129 1.2205, 1.5157 -1.9488 1.2205, -1.2513 -1.8077 1.2205, -1.277 -1.7952 1.2205, -1.3008 -1.7752 1.2205, -1.1199 -1.6146 1.2205, -1.104 -1.6387 1.2205, -1.0936 -1.6676 1.2205, -1.0907 -1.6933 1.2205, -1.0942 -1.7214 1.2205, -1.1045 -1.7488 1.2205, -1.122 -1.7743 1.2205, -1.1972 -1.5733 1.2205, -1.5157 1.9488 1.2205, -1.2267 -1.5731 1.2205, -1.1407 -1.7913 1.2205, -1.1657 -1.8051 1.2205, -1.3189 -1.75 1.2205, -1.3293 -1.7223 1.2205, -1.3327 -1.6935 1.2205, -1.3024 -1.6131 1.2205, -1.2805 -1.5938 1.2205, -1.253 -1.5795 1.2205, -1.3327 -1.6928 1.2205, -1.3288 -1.6621 1.2205, -1.3189 -1.6367 1.2205, 1.1811 1.811 0.2362, 1.4173 1.811 0.2362, 1.437 1.752 0.2362, -1.437 1.752 0.2362, -1.4173 1.811 0.2362, -1.1811 1.811 0.2362, -1.1811 1.9291 0.2362, -0.7087 1.9291 0.2362, -0.7087 1.811 0.2362, -0.4724 1.811 0.2362, -1.5157 2.0669 0.2362, 1.5157 2.0669 0.2362, 0.4724 1.9291 0.2362, 0.7087 1.9291 0.2362, 1.1811 1.9291 0.2362, 0.7087 1.811 0.2362, 0.4724 1.811 0.2362, -0.4724 1.9291 0.2362, 1.6339 0.8858 0.2362, 1.437 0.8858 0.2362, 1.6339 1.9488 0.2362, 1.6298 1.9794 0.2362, 1.618 2.0079 0.2362, 1.5993 2.0323 0.2362, 1.4173 1.9291 0.2362, 1.5463 2.0629 0.2362, 1.5748 2.0511 0.2362, -1.5463 2.0629 0.2362, -1.4173 1.9291 0.2362, -1.5748 2.0511 0.2362, -1.5993 2.0323 0.2362, -1.437 0.8858 0.2362, -1.6339 0.8858 0.2362, -1.6339 1.9488 0.2362, -1.6298 1.9794 0.2362, -1.618 2.0079 0.2362, -1.4173 -1.811 0.2362, -1.4173 -1.9291 0.2362, -1.6298 -1.9794 0.2362, 0.7087 -1.811 0.2362, 0.4724 -1.811 0.2362, -1.437 -1.752 0.2362, -1.6339 -0.8858 0.2362, -1.437 -0.8858 0.2362, -1.6339 -1.9488 0.2362, -0.7087 -1.811 0.2362, -0.4724 -1.811 0.2362, -0.4724 -1.9291 0.2362, -1.1811 -1.9291 0.2362, -1.5157 -2.0669 0.2362, -1.5463 -2.0629 0.2362, -1.5748 -2.0511 0.2362, 0.4724 -1.9291 0.2362, 0.7087 -1.9291 0.2362, 1.1811 -1.811 0.2362, 1.1811 -1.9291 0.2362, 1.437 -1.752 0.2362, 1.4173 -1.811 0.2362, -0.7087 -1.9291 0.2362, -1.1811 -1.811 0.2362, -1.5993 -2.0323 0.2362, -1.618 -2.0079 0.2362, 1.437 -0.8858 0.2362, 1.6339 -0.8858 0.2362, 1.6339 -1.9488 0.2362, 1.6298 -1.9794 0.2362, 1.4173 -1.9291 0.2362, 1.618 -2.0079 0.2362, 1.5993 -2.0323 0.2362, 1.5748 -2.0511 0.2362, 1.5463 -2.0629 0.2362, 1.5157 -2.0669 0.2362, -1.6339 -1.9488 1.1024, -1.6339 1.9488 1.1024, -1.6339 -0.6496 0.0, -1.6339 0.6496 0.0, -1.437 0.6496 0.0, -1.437 -0.6496 0.0, 1.6339 0.6496 0.0, 1.6339 -0.6496 0.0, 1.437 0.6496 0.0, 1.437 -0.6496 0.0, 1.6339 1.9488 1.1024, 1.6339 -1.9488 1.1024, 1.5157 2.0669 1.1024, -1.5157 2.0669 1.1024, -1.5157 -2.0669 1.1024, 1.5157 -2.0669 1.1024, 1.5157 -2.0669 1.1024
            ]
        }
        coordIndex [
            0,1,2,-1,3,4,5,-1,6,7,8,-1,8,7,9,-1,9,0,8,-1,8,0,2,-1,8,2,10,-1,10,2,11,-1,12,13,14,-1,14,13,15,-1,14,15,16,-1,16,17,14,-1,14,17,18,-1,14,18,19,-1,20,21,22,-1,22,21,23,-1,3,24,4,-1,4,24,25,-1,4,25,22,-1,22,25,26,-1,22,26,20,-1,27,28,29,-1,29,28,30,-1,29,30,31,-1,31,32,29,-1,29,32,33,-1,29,33,34,-1,11,2,14,-1,14,2,35,-1,14,35,12,-1,36,37,18,-1,18,37,38,-1,18,38,19,-1,23,39,22,-1,22,39,40,-1,22,40,29,-1,29,40,41,-1,29,41,27,-1,6,42,7,-1,7,42,43,-1,7,43,44,-1,44,43,45,-1,44,45,3,-1,46,22,47,-1,47,22,29,-1,47,29,48,-1,48,29,49,-1,48,49,5,-1,5,49,50,-1,5,50,3,-1,3,50,51,-1,3,51,44,-1,52,53,54,-1,55,56,57,-1,57,56,58,-1,57,58,7,-1,7,58,59,-1,7,59,60,-1,61,62,60,-1,60,62,29,-1,60,29,7,-1,7,29,34,-1,7,34,9,-1,63,64,65,-1,65,64,66,-1,67,68,69,-1,69,68,70,-1,71,72,68,-1,68,72,73,-1,68,73,65,-1,65,73,74,-1,65,74,63,-1,67,75,68,-1,68,75,76,-1,68,76,71,-1,54,56,52,-1,52,56,55,-1,52,55,77,-1,77,55,78,-1,77,78,79,-1,79,78,80,-1,66,81,65,-1,65,81,82,-1,65,82,83,-1,70,62,55,-1,55,62,61,-1,55,61,78,-1,70,68,62,-1,62,68,84,-1,62,84,85,-1,85,84,86,-1,85,86,87,-1,88,65,7,-1,7,65,83,-1,7,83,57,-1,89,90,87,-1,87,90,88,-1,87,88,85,-1,85,88,7,-1,85,7,91,-1,91,7,44,-1,92,93,94,-1,95,96,97,-1,97,96,98,-1,95,99,96,-1,96,99,100,-1,96,100,101,-1,93,102,94,-1,94,102,103,-1,94,103,98,-1,98,103,104,-1,98,104,105,-1,105,106,98,-1,98,106,107,-1,98,107,108,-1,92,94,109,-1,109,94,110,-1,109,110,111,-1,108,112,98,-1,98,112,113,-1,98,113,97,-1,101,114,96,-1,96,114,115,-1,96,115,116,-1,117,118,110,-1,110,118,119,-1,110,119,111,-1,116,120,96,-1,96,120,121,-1,96,121,110,-1,110,121,122,-1,110,122,117,-1,123,124,125,-1,126,127,128,-1,129,130,128,-1,128,130,131,-1,128,131,126,-1,126,131,132,-1,126,132,125,-1,133,134,135,-1,135,134,136,-1,137,123,138,-1,138,123,125,-1,138,125,139,-1,139,125,132,-1,139,132,135,-1,135,132,140,-1,135,140,133,-1,141,142,143,-1,143,142,125,-1,143,125,144,-1,144,125,124,-1,144,124,145,-1,145,124,146,-1,138,136,137,-1,137,136,134,-1,137,134,147,-1,147,134,148,-1,147,148,124,-1,124,148,149,-1,124,149,146,-1,140,130,133,-1,133,130,129,-1,133,129,150,-1,150,129,151,-1,150,151,152,-1,152,151,153,-1,154,155,126,-1,126,155,156,-1,126,156,127,-1,127,156,157,-1,127,157,151,-1,151,157,158,-1,151,158,153,-1,159,160,161,-1,162,163,164,-1,165,166,167,-1,167,166,164,-1,168,164,169,-1,169,164,163,-1,169,163,170,-1,171,172,160,-1,160,172,173,-1,160,173,174,-1,172,175,176,-1,162,177,176,-1,176,177,178,-1,176,178,172,-1,162,164,177,-1,177,164,179,-1,177,179,180,-1,163,175,170,-1,170,175,172,-1,170,172,181,-1,181,172,171,-1,181,171,168,-1,168,171,182,-1,168,182,164,-1,164,182,159,-1,164,159,167,-1,167,159,161,-1,174,183,160,-1,160,183,184,-1,160,184,161,-1,185,186,179,-1,179,186,187,-1,179,187,180,-1,180,187,188,-1,180,188,189,-1,189,188,190,-1,189,190,191,-1,191,192,189,-1,189,192,193,-1,189,193,178,-1,178,193,194,-1,178,194,172,-1,195,196,155,-1,155,196,156,-1,167,195,165,-1,165,195,155,-1,165,155,197,-1,197,155,198,-1,199,200,198,-1,198,200,197,-1,126,62,154,-1,154,62,85,-1,199,154,200,-1,200,154,85,-1,200,85,166,-1,166,85,91,-1,166,91,164,-1,201,202,203,-1,203,202,204,-1,141,143,205,-1,206,187,186,-1,202,201,186,-1,186,201,141,-1,186,141,206,-1,206,141,205,-1,49,125,142,-1,179,51,185,-1,185,51,50,-1,185,50,204,-1,49,142,50,-1,50,142,203,-1,50,203,204,-1,134,133,207,-1,207,133,208,-1,172,194,209,-1,209,194,210,-1,51,179,44,-1,44,179,164,-1,44,164,91,-1,62,126,29,-1,29,126,125,-1,29,125,49,-1,
        ]
    }
}
Shape{
    appearance Appearance {
        material  Material 	{
            diffuseColor 0.7529411764705882 0.7529411764705882 0.7529411764705882
            specularColor 0.3764705882352941 0.3764705882352941 0.3764705882352941
            ambientIntensity 0.2
            transparency 0
            shininess 0.5
        }
    }
    geometry IndexedFaceSet {
        ccw TRUE
        solid FALSE
        coord DEF co Coordinate {
            point [
                0.7087 -2.4016 -0.0, 0.7087 -1.9291 0.0, 0.4724 -2.4016 -0.0, 0.4724 -1.9291 0.0, 0.7087 -2.4016 -0.1181, 0.4724 -2.4016 -0.1181, 0.7087 -1.9291 -0.1181, 0.4724 -1.9291 -0.1181, 0.4724 -1.8986 -0.1141, 0.7087 -1.8986 -0.1141, 0.4724 -1.8701 -0.1023, 0.7087 -1.8701 -0.1023, 0.4724 -1.8456 -0.0835, 0.7087 -1.8456 -0.0835, 0.4724 -1.8268 -0.0591, 0.7087 -1.8268 -0.0591, 0.4724 -1.815 -0.0306, 0.7087 -1.815 -0.0306, 0.4724 -1.811 0.0, 0.7087 -1.811 0.0, 0.7087 -1.811 0.2362, 0.4724 -1.811 0.2362, 0.7087 -1.9291 0.2362, 0.4724 -1.9291 0.2362, 1.4173 -2.4016 -0.0, 1.4173 -1.9291 0.0, 1.1811 -2.4016 -0.0, 1.1811 -1.9291 0.0, 1.4173 -2.4016 -0.1181, 1.1811 -2.4016 -0.1181, 1.4173 -1.9291 -0.1181, 1.1811 -1.9291 -0.1181, 1.1811 -1.8986 -0.1141, 1.4173 -1.8986 -0.1141, 1.1811 -1.8701 -0.1023, 1.4173 -1.8701 -0.1023, 1.1811 -1.8456 -0.0835, 1.4173 -1.8456 -0.0835, 1.1811 -1.8268 -0.0591, 1.4173 -1.8268 -0.0591, 1.1811 -1.815 -0.0306, 1.4173 -1.815 -0.0306, 1.1811 -1.811 0.0, 1.4173 -1.811 0.0, 1.4173 -1.811 0.2362, 1.1811 -1.811 0.2362, 1.4173 -1.9291 0.2362, 1.1811 -1.9291 0.2362, -0.7087 -1.9291 0.0, -0.7087 -2.4016 -0.0, -0.4724 -1.9291 0.0, -0.4724 -2.4016 -0.0, -0.7087 -1.9291 0.2362, -0.4724 -1.9291 0.2362, -0.7087 -1.811 0.0, -0.7087 -1.811 0.2362, -0.4724 -1.811 0.0, -0.4724 -1.811 0.2362, -0.4724 -1.815 -0.0306, -0.7087 -1.815 -0.0306, -0.4724 -1.8268 -0.0591, -0.7087 -1.8268 -0.0591, -0.4724 -1.8456 -0.0835, -0.7087 -1.8456 -0.0835, -0.4724 -1.8701 -0.1023, -0.7087 -1.8701 -0.1023, -0.4724 -1.8986 -0.1141, -0.7087 -1.8986 -0.1141, -0.4724 -1.9291 -0.1181, -0.7087 -1.9291 -0.1181, -0.7087 -2.4016 -0.1181, -0.4724 -2.4016 -0.1181, -1.4173 -1.9291 0.0, -1.4173 -2.4016 -0.0, -1.1811 -1.9291 0.0, -1.1811 -2.4016 -0.0, -1.4173 -1.9291 0.2362, -1.1811 -1.9291 0.2362, -1.4173 -1.811 0.0, -1.4173 -1.811 0.2362, -1.1811 -1.811 0.0, -1.1811 -1.811 0.2362, -1.1811 -1.815 -0.0306, -1.4173 -1.815 -0.0306, -1.1811 -1.8268 -0.0591, -1.4173 -1.8268 -0.0591, -1.1811 -1.8456 -0.0835, -1.4173 -1.8456 -0.0835, -1.1811 -1.8701 -0.1023, -1.4173 -1.8701 -0.1023, -1.1811 -1.8986 -0.1141, -1.4173 -1.8986 -0.1141, -1.1811 -1.9291 -0.1181, -1.4173 -1.9291 -0.1181, -1.4173 -2.4016 -0.1181, -1.1811 -2.4016 -0.1181, -0.7087 2.4016 -0.0, -0.7087 1.9291 0.0, -0.4724 2.4016 -0.0, -0.4724 1.9291 0.0, -0.7087 2.4016 -0.1181, -0.4724 2.4016 -0.1181, -0.7087 1.9291 -0.1181, -0.4724 1.9291 -0.1181, -0.4724 1.8986 -0.1141, -0.7087 1.8986 -0.1141, -0.4724 1.8701 -0.1023, -0.7087 1.8701 -0.1023, -0.4724 1.8456 -0.0835, -0.7087 1.8456 -0.0835, -0.4724 1.8268 -0.0591, -0.7087 1.8268 -0.0591, -0.4724 1.815 -0.0306, -0.7087 1.815 -0.0306, -0.4724 1.811 0.0, -0.7087 1.811 0.0, -0.7087 1.811 0.2362, -0.4724 1.811 0.2362, -0.7087 1.9291 0.2362, -0.4724 1.9291 0.2362, -1.4173 2.4016 -0.0, -1.4173 1.9291 0.0, -1.1811 2.4016 -0.0, -1.1811 1.9291 0.0, -1.4173 2.4016 -0.1181, -1.1811 2.4016 -0.1181, -1.4173 1.9291 -0.1181, -1.1811 1.9291 -0.1181, -1.1811 1.8986 -0.1141, -1.4173 1.8986 -0.1141, -1.1811 1.8701 -0.1023, -1.4173 1.8701 -0.1023, -1.1811 1.8456 -0.0835, -1.4173 1.8456 -0.0835, -1.1811 1.8268 -0.0591, -1.4173 1.8268 -0.0591, -1.1811 1.815 -0.0306, -1.4173 1.815 -0.0306, -1.1811 1.811 0.0, -1.4173 1.811 0.0, -1.4173 1.811 0.2362, -1.1811 1.811 0.2362, -1.4173 1.9291 0.2362, -1.1811 1.9291 0.2362, 0.7087 1.9291 0.0, 0.7087 2.4016 -0.0, 0.4724 1.9291 0.0, 0.4724 2.4016 -0.0, 0.7087 1.9291 0.2362, 0.4724 1.9291 0.2362, 0.7087 1.811 0.0, 0.7087 1.811 0.2362, 0.4724 1.811 0.0, 0.4724 1.811 0.2362, 0.4724 1.815 -0.0306, 0.7087 1.815 -0.0306, 0.4724 1.8268 -0.0591, 0.7087 1.8268 -0.0591, 0.4724 1.8456 -0.0835, 0.7087 1.8456 -0.0835, 0.4724 1.8701 -0.1023, 0.7087 1.8701 -0.1023, 0.4724 1.8986 -0.1141, 0.7087 1.8986 -0.1141, 0.4724 1.9291 -0.1181, 0.7087 1.9291 -0.1181, 0.7087 2.4016 -0.1181, 0.4724 2.4016 -0.1181, 1.4173 1.9291 0.0, 1.4173 2.4016 -0.0, 1.1811 1.9291 0.0, 1.1811 2.4016 -0.0, 1.4173 1.9291 0.2362, 1.1811 1.9291 0.2362, 1.4173 1.811 0.0, 1.4173 1.811 0.2362, 1.1811 1.811 0.0, 1.1811 1.811 0.2362, 1.1811 1.815 -0.0306, 1.4173 1.815 -0.0306, 1.1811 1.8268 -0.0591, 1.4173 1.8268 -0.0591, 1.1811 1.8456 -0.0835, 1.4173 1.8456 -0.0835, 1.1811 1.8701 -0.1023, 1.4173 1.8701 -0.1023, 1.1811 1.8986 -0.1141, 1.4173 1.8986 -0.1141, 1.1811 1.9291 -0.1181, 1.4173 1.9291 -0.1181, 1.4173 2.4016 -0.1181, 1.1811 2.4016 -0.1181, 1.1811 2.4016 -0.1181
            ]
        }
        coordIndex [
            0,1,2,-1,2,1,3,-1,4,0,5,-1,5,0,2,-1,6,4,7,-1,7,4,5,-1,6,7,8,-1,6,8,9,-1,9,8,10,-1,9,10,11,-1,11,10,12,-1,11,12,13,-1,13,12,14,-1,13,14,15,-1,15,14,16,-1,15,16,17,-1,17,16,18,-1,17,18,19,-1,20,19,21,-1,21,19,18,-1,1,22,3,-1,3,22,23,-1,20,22,19,-1,19,22,1,-1,0,4,1,-1,1,4,6,-1,13,15,1,-1,1,15,17,-1,1,17,19,-1,6,9,1,-1,1,9,11,-1,1,11,13,-1,23,21,3,-1,3,21,18,-1,3,18,16,-1,5,2,7,-1,7,2,3,-1,7,3,8,-1,8,3,10,-1,16,14,3,-1,3,14,12,-1,3,12,10,-1,24,25,26,-1,26,25,27,-1,28,24,29,-1,29,24,26,-1,30,28,31,-1,31,28,29,-1,30,31,32,-1,30,32,33,-1,33,32,34,-1,33,34,35,-1,35,34,36,-1,35,36,37,-1,37,36,38,-1,37,38,39,-1,39,38,40,-1,39,40,41,-1,41,40,42,-1,41,42,43,-1,44,43,45,-1,45,43,42,-1,25,46,27,-1,27,46,47,-1,44,46,43,-1,43,46,25,-1,24,28,25,-1,25,28,30,-1,37,39,25,-1,25,39,41,-1,25,41,43,-1,30,33,25,-1,25,33,35,-1,25,35,37,-1,47,45,27,-1,27,45,42,-1,27,42,40,-1,29,26,31,-1,31,26,27,-1,31,27,32,-1,32,27,34,-1,40,38,27,-1,27,38,36,-1,27,36,34,-1,48,49,50,-1,50,49,51,-1,52,48,53,-1,53,48,50,-1,54,55,56,-1,56,55,57,-1,54,56,58,-1,54,58,59,-1,59,58,60,-1,59,60,61,-1,61,60,62,-1,61,62,63,-1,63,62,64,-1,63,64,65,-1,65,64,66,-1,65,66,67,-1,67,66,68,-1,67,68,69,-1,70,69,71,-1,71,69,68,-1,49,70,51,-1,51,70,71,-1,52,55,48,-1,48,55,54,-1,48,54,59,-1,70,49,69,-1,69,49,48,-1,69,48,67,-1,67,48,65,-1,59,61,48,-1,48,61,63,-1,48,63,65,-1,57,53,56,-1,56,53,50,-1,51,71,50,-1,50,71,68,-1,62,60,50,-1,50,60,58,-1,50,58,56,-1,68,66,50,-1,50,66,64,-1,50,64,62,-1,72,73,74,-1,74,73,75,-1,76,72,77,-1,77,72,74,-1,78,79,80,-1,80,79,81,-1,78,80,82,-1,78,82,83,-1,83,82,84,-1,83,84,85,-1,85,84,86,-1,85,86,87,-1,87,86,88,-1,87,88,89,-1,89,88,90,-1,89,90,91,-1,91,90,92,-1,91,92,93,-1,94,93,95,-1,95,93,92,-1,73,94,75,-1,75,94,95,-1,76,79,72,-1,72,79,78,-1,72,78,83,-1,94,73,93,-1,93,73,72,-1,93,72,91,-1,91,72,89,-1,83,85,72,-1,72,85,87,-1,72,87,89,-1,81,77,80,-1,80,77,74,-1,75,95,74,-1,74,95,92,-1,86,84,74,-1,74,84,82,-1,74,82,80,-1,92,90,74,-1,74,90,88,-1,74,88,86,-1,96,97,98,-1,98,97,99,-1,100,96,101,-1,101,96,98,-1,102,100,103,-1,103,100,101,-1,102,103,104,-1,102,104,105,-1,105,104,106,-1,105,106,107,-1,107,106,108,-1,107,108,109,-1,109,108,110,-1,109,110,111,-1,111,110,112,-1,111,112,113,-1,113,112,114,-1,113,114,115,-1,116,115,117,-1,117,115,114,-1,97,118,99,-1,99,118,119,-1,116,118,115,-1,115,118,97,-1,96,100,97,-1,97,100,102,-1,109,111,97,-1,97,111,113,-1,97,113,115,-1,102,105,97,-1,97,105,107,-1,97,107,109,-1,119,117,99,-1,99,117,114,-1,99,114,112,-1,101,98,103,-1,103,98,99,-1,103,99,104,-1,104,99,106,-1,112,110,99,-1,99,110,108,-1,99,108,106,-1,120,121,122,-1,122,121,123,-1,124,120,125,-1,125,120,122,-1,126,124,127,-1,127,124,125,-1,126,127,128,-1,126,128,129,-1,129,128,130,-1,129,130,131,-1,131,130,132,-1,131,132,133,-1,133,132,134,-1,133,134,135,-1,135,134,136,-1,135,136,137,-1,137,136,138,-1,137,138,139,-1,140,139,141,-1,141,139,138,-1,121,142,123,-1,123,142,143,-1,140,142,139,-1,139,142,121,-1,120,124,121,-1,121,124,126,-1,133,135,121,-1,121,135,137,-1,121,137,139,-1,126,129,121,-1,121,129,131,-1,121,131,133,-1,143,141,123,-1,123,141,138,-1,123,138,136,-1,125,122,127,-1,127,122,123,-1,127,123,128,-1,128,123,130,-1,136,134,123,-1,123,134,132,-1,123,132,130,-1,144,145,146,-1,146,145,147,-1,148,144,149,-1,149,144,146,-1,150,151,152,-1,152,151,153,-1,150,152,154,-1,150,154,155,-1,155,154,156,-1,155,156,157,-1,157,156,158,-1,157,158,159,-1,159,158,160,-1,159,160,161,-1,161,160,162,-1,161,162,163,-1,163,162,164,-1,163,164,165,-1,166,165,167,-1,167,165,164,-1,145,166,147,-1,147,166,167,-1,148,151,144,-1,144,151,150,-1,144,150,155,-1,166,145,165,-1,165,145,144,-1,165,144,163,-1,163,144,161,-1,155,157,144,-1,144,157,159,-1,144,159,161,-1,153,149,152,-1,152,149,146,-1,147,167,146,-1,146,167,164,-1,158,156,146,-1,146,156,154,-1,146,154,152,-1,164,162,146,-1,146,162,160,-1,146,160,158,-1,168,169,170,-1,170,169,171,-1,172,168,173,-1,173,168,170,-1,174,175,176,-1,176,175,177,-1,174,176,178,-1,174,178,179,-1,179,178,180,-1,179,180,181,-1,181,180,182,-1,181,182,183,-1,183,182,184,-1,183,184,185,-1,185,184,186,-1,185,186,187,-1,187,186,188,-1,187,188,189,-1,190,189,191,-1,191,189,188,-1,169,190,171,-1,171,190,191,-1,172,175,168,-1,168,175,174,-1,168,174,179,-1,190,169,189,-1,189,169,168,-1,189,168,187,-1,187,168,185,-1,179,181,168,-1,168,181,183,-1,168,183,185,-1,177,173,176,-1,176,173,170,-1,171,191,170,-1,170,191,188,-1,182,180,170,-1,170,180,178,-1,170,178,176,-1,188,186,170,-1,170,186,184,-1,170,184,182,-1,
        ]
    }
}
Shape{
    appearance Appearance {
        material  Material 	{
            diffuseColor 0.11372549019607843 0.11372549019607843 0.11372549019607843
            specularColor 0.058823529411764705 0.058823529411764705 0.058823529411764705
            ambientIntensity 0.2
            transparency 0
            shininess 0.5
        }
    }
    geometry IndexedFaceSet {
        ccw TRUE
        solid FALSE
        coord DEF co Coordinate {
            point [
                -1.6339 0.6496 0.0, -1.6339 0.8858 0.2362, -1.437 0.6496 0.0, -1.437 0.8858 0.2362, -1.6339 -0.8858 0.2362, -1.6339 -0.6496 0.0, -1.437 -0.8858 0.2362, -1.437 -0.6496 0.0, 1.6339 0.8858 0.2362, 1.6339 0.6496 0.0, 1.437 0.8858 0.2362, 1.437 0.6496 0.0, 1.6339 -0.6496 0.0, 1.6339 -0.8858 0.2362, 1.437 -0.6496 0.0, 1.437 -0.8858 0.2362, -1.5157 2.0669 1.1024, -1.5157 2.0669 0.2362, -1.5463 2.0629 0.2362, -1.5463 2.0629 1.1024, -1.5748 2.0511 0.2362, -1.5748 2.0511 1.1024, -1.5993 2.0323 0.2362, -1.5993 2.0323 1.1024, -1.618 2.0079 0.2362, -1.618 2.0079 1.1024, -1.6298 1.9794 0.2362, -1.6298 1.9794 1.1024, -1.6339 1.9488 0.2362, -1.6339 1.9488 1.1024, -1.5157 1.9488 1.2205, 1.5157 1.9488 1.2205, 1.5157 1.9794 1.2164, -1.5157 1.9794 1.2164, 1.5157 2.0079 1.2046, -1.5157 2.0079 1.2046, 1.5157 2.0323 1.1859, -1.5157 2.0323 1.1859, 1.5157 2.0511 1.1614, -1.5157 2.0511 1.1614, 1.5157 2.0629 1.1329, -1.5157 2.0629 1.1329, 1.5157 2.0669 1.1024, 1.6339 1.9488 1.1024, 1.6339 1.9488 0.2362, 1.6298 1.9794 0.2362, 1.6298 1.9794 1.1024, 1.618 2.0079 0.2362, 1.618 2.0079 1.1024, 1.5993 2.0323 0.2362, 1.5993 2.0323 1.1024, 1.5748 2.0511 0.2362, 1.5748 2.0511 1.1024, 1.5463 2.0629 0.2362, 1.5463 2.0629 1.1024, 1.5157 2.0669 0.2362, -1.6298 1.9488 1.1329, -1.6259 1.9783 1.1329, -1.5669 1.9783 1.2046, -1.5422 1.9641 1.2164, -1.5374 1.9704 1.2164, -1.5237 1.9783 1.2164, -1.5453 1.9567 1.2164, -1.5728 1.9641 1.2046, -1.5964 1.9704 1.1859, -1.5463 1.9488 1.2164, -1.5575 1.9906 1.2046, -1.531 1.9753 1.2164, -1.5453 2.0 1.2046, -1.531 2.0059 1.2046, -1.5748 1.9488 1.2046, -1.5993 1.9488 1.1859, -1.618 1.9488 1.1614, -1.5881 1.9906 1.1859, -1.5748 2.0079 1.1859, -1.5575 2.0211 1.1859, -1.5374 2.0295 1.1859, -1.6145 1.9753 1.1614, -1.6043 2.0 1.1614, -1.5881 2.0211 1.1614, -1.5669 2.0374 1.1614, -1.5422 2.0476 1.1614, -1.6145 2.0059 1.1329, -1.5964 2.0295 1.1329, -1.5728 2.0476 1.1329, -1.5453 2.059 1.1329, 1.5453 2.059 1.1329, 1.5453 2.0 1.2046, 1.531 1.9753 1.2164, 1.5374 1.9704 1.2164, 1.5463 1.9488 1.2164, 1.5453 1.9567 1.2164, 1.5237 1.9783 1.2164, 1.531 2.0059 1.2046, 1.5374 2.0295 1.1859, 1.5575 1.9906 1.2046, 1.5422 1.9641 1.2164, 1.5669 1.9783 1.2046, 1.5728 1.9641 1.2046, 1.5748 1.9488 1.2046, 1.5575 2.0211 1.1859, 1.5748 2.0079 1.1859, 1.5881 1.9906 1.1859, 1.5964 1.9704 1.1859, 1.5993 1.9488 1.1859, 1.5422 2.0476 1.1614, 1.5669 2.0374 1.1614, 1.5881 2.0211 1.1614, 1.6043 2.0 1.1614, 1.6145 1.9753 1.1614, 1.618 1.9488 1.1614, 1.5728 2.0476 1.1329, 1.5964 2.0295 1.1329, 1.6145 2.0059 1.1329, 1.6259 1.9783 1.1329, 1.6298 1.9488 1.1329, -1.6339 -1.9488 1.1024, -1.6339 -1.9488 0.2362, -1.6298 -1.9794 0.2362, -1.6298 -1.9794 1.1024, -1.618 -2.0079 0.2362, -1.618 -2.0079 1.1024, -1.5993 -2.0323 0.2362, -1.5993 -2.0323 1.1024, -1.5748 -2.0511 0.2362, -1.5748 -2.0511 1.1024, -1.5463 -2.0629 0.2362, -1.5463 -2.0629 1.1024, -1.5157 -2.0669 0.2362, -1.5157 -2.0669 1.1024, -1.5157 -1.9488 1.2205, -1.5463 -1.9488 1.2164, -1.5748 -1.9488 1.2046, -1.5993 -1.9488 1.1859, -1.618 -1.9488 1.1614, -1.6298 -1.9488 1.1329, 1.5157 -1.9488 1.2205, 1.5463 -1.9488 1.2164, 1.5748 -1.9488 1.2046, 1.5993 -1.9488 1.1859, 1.618 -1.9488 1.1614, 1.6298 -1.9488 1.1329, 1.6339 -1.9488 1.1024, 1.5157 -2.0669 1.1024, 1.5157 -2.0669 0.2362, 1.5463 -2.0629 0.2362, 1.5463 -2.0629 1.1024, 1.5748 -2.0511 0.2362, 1.5748 -2.0511 1.1024, 1.5993 -2.0323 0.2362, 1.5993 -2.0323 1.1024, 1.618 -2.0079 0.2362, 1.618 -2.0079 1.1024, 1.6298 -1.9794 0.2362, 1.6298 -1.9794 1.1024, 1.6339 -1.9488 0.2362, -1.5157 -2.0629 1.1329, -1.5453 -2.059 1.1329, -1.5453 -2.0 1.2046, -1.531 -1.9753 1.2164, -1.5374 -1.9704 1.2164, -1.5453 -1.9567 1.2164, -1.5237 -1.9783 1.2164, -1.531 -2.0059 1.2046, -1.5374 -2.0295 1.1859, -1.5157 -1.9794 1.2164, -1.5575 -1.9906 1.2046, -1.5422 -1.9641 1.2164, -1.5669 -1.9783 1.2046, -1.5728 -1.9641 1.2046, -1.5157 -2.0079 1.2046, -1.5157 -2.0323 1.1859, -1.5157 -2.0511 1.1614, -1.5575 -2.0211 1.1859, -1.5748 -2.0079 1.1859, -1.5881 -1.9906 1.1859, -1.5964 -1.9704 1.1859, -1.5422 -2.0476 1.1614, -1.5669 -2.0374 1.1614, -1.5881 -2.0211 1.1614, -1.6043 -2.0 1.1614, -1.6145 -1.9753 1.1614, -1.5728 -2.0476 1.1329, -1.5964 -2.0295 1.1329, -1.6145 -2.0059 1.1329, -1.6259 -1.9783 1.1329, 1.6259 -1.9783 1.1329, 1.5669 -1.9783 1.2046, 1.5422 -1.9641 1.2164, 1.5374 -1.9704 1.2164, 1.5157 -1.9794 1.2164, 1.5237 -1.9783 1.2164, 1.5453 -1.9567 1.2164, 1.5728 -1.9641 1.2046, 1.5964 -1.9704 1.1859, 1.5575 -1.9906 1.2046, 1.531 -1.9753 1.2164, 1.5453 -2.0 1.2046, 1.531 -2.0059 1.2046, 1.5157 -2.0079 1.2046, 1.5881 -1.9906 1.1859, 1.5748 -2.0079 1.1859, 1.5575 -2.0211 1.1859, 1.5374 -2.0295 1.1859, 1.5157 -2.0323 1.1859, 1.6145 -1.9753 1.1614, 1.6043 -2.0 1.1614, 1.5881 -2.0211 1.1614, 1.5669 -2.0374 1.1614, 1.5422 -2.0476 1.1614, 1.5157 -2.0511 1.1614, 1.6145 -2.0059 1.1329, 1.5964 -2.0295 1.1329, 1.5728 -2.0476 1.1329, 1.5453 -2.059 1.1329, 1.5157 -2.0629 1.1329, 1.5157 -2.0629 1.1329
            ]
        }
        coordIndex [
            0,1,2,-1,2,1,3,-1,4,5,6,-1,6,5,7,-1,8,9,10,-1,10,9,11,-1,12,13,14,-1,14,13,15,-1,16,17,18,-1,16,18,19,-1,19,18,20,-1,19,20,21,-1,21,20,22,-1,21,22,23,-1,23,22,24,-1,23,24,25,-1,25,24,26,-1,25,26,27,-1,27,26,28,-1,27,28,29,-1,30,31,32,-1,30,32,33,-1,33,32,34,-1,33,34,35,-1,35,34,36,-1,35,36,37,-1,37,36,38,-1,37,38,39,-1,39,38,40,-1,39,40,41,-1,41,40,42,-1,41,42,16,-1,43,44,45,-1,43,45,46,-1,46,45,47,-1,46,47,48,-1,48,47,49,-1,48,49,50,-1,50,49,51,-1,50,51,52,-1,52,51,53,-1,52,53,54,-1,54,53,55,-1,54,55,42,-1,29,56,57,-1,58,59,60,-1,30,33,61,-1,60,59,30,-1,62,30,59,-1,62,59,63,-1,63,59,58,-1,63,58,64,-1,65,30,62,-1,66,67,68,-1,68,67,61,-1,68,61,69,-1,69,61,33,-1,69,33,35,-1,65,62,70,-1,70,62,63,-1,70,63,71,-1,71,63,64,-1,71,64,72,-1,73,66,74,-1,74,66,68,-1,74,68,75,-1,75,68,69,-1,75,69,76,-1,76,69,35,-1,76,35,37,-1,77,73,78,-1,78,73,74,-1,78,74,79,-1,79,74,75,-1,79,75,80,-1,80,75,76,-1,80,76,81,-1,81,76,37,-1,81,37,39,-1,56,77,57,-1,57,77,78,-1,57,78,82,-1,82,78,79,-1,82,79,83,-1,83,79,80,-1,83,80,84,-1,84,80,81,-1,84,81,85,-1,85,81,39,-1,85,39,41,-1,29,57,27,-1,27,57,82,-1,27,82,25,-1,25,82,83,-1,25,83,23,-1,23,83,84,-1,23,84,21,-1,21,84,85,-1,21,85,19,-1,19,85,41,-1,19,41,16,-1,67,30,61,-1,56,72,77,-1,77,72,64,-1,77,64,73,-1,73,64,58,-1,73,58,66,-1,66,58,60,-1,66,60,67,-1,67,60,30,-1,42,40,86,-1,87,88,89,-1,31,90,91,-1,89,88,31,-1,92,31,88,-1,92,88,93,-1,93,88,87,-1,93,87,94,-1,32,31,92,-1,95,96,97,-1,97,96,91,-1,97,91,98,-1,98,91,90,-1,98,90,99,-1,32,92,34,-1,34,92,93,-1,34,93,36,-1,36,93,94,-1,36,94,38,-1,100,95,101,-1,101,95,97,-1,101,97,102,-1,102,97,98,-1,102,98,103,-1,103,98,99,-1,103,99,104,-1,105,100,106,-1,106,100,101,-1,106,101,107,-1,107,101,102,-1,107,102,108,-1,108,102,103,-1,108,103,109,-1,109,103,104,-1,109,104,110,-1,40,105,86,-1,86,105,106,-1,86,106,111,-1,111,106,107,-1,111,107,112,-1,112,107,108,-1,112,108,113,-1,113,108,109,-1,113,109,114,-1,114,109,110,-1,114,110,115,-1,42,86,54,-1,54,86,111,-1,54,111,52,-1,52,111,112,-1,52,112,50,-1,50,112,113,-1,50,113,48,-1,48,113,114,-1,48,114,46,-1,46,114,115,-1,46,115,43,-1,96,31,91,-1,40,38,105,-1,105,38,94,-1,105,94,100,-1,100,94,87,-1,100,87,95,-1,95,87,89,-1,95,89,96,-1,96,89,31,-1,116,117,118,-1,116,118,119,-1,119,118,120,-1,119,120,121,-1,121,120,122,-1,121,122,123,-1,123,122,124,-1,123,124,125,-1,125,124,126,-1,125,126,127,-1,127,126,128,-1,127,128,129,-1,130,30,65,-1,130,65,131,-1,131,65,70,-1,131,70,132,-1,132,70,71,-1,132,71,133,-1,133,71,72,-1,133,72,134,-1,134,72,56,-1,134,56,135,-1,135,56,29,-1,135,29,116,-1,31,136,137,-1,31,137,90,-1,90,137,138,-1,90,138,99,-1,99,138,139,-1,99,139,104,-1,104,139,140,-1,104,140,110,-1,110,140,141,-1,110,141,115,-1,115,141,142,-1,115,142,43,-1,143,144,145,-1,143,145,146,-1,146,145,147,-1,146,147,148,-1,148,147,149,-1,148,149,150,-1,150,149,151,-1,150,151,152,-1,152,151,153,-1,152,153,154,-1,154,153,155,-1,154,155,142,-1,129,156,157,-1,158,159,160,-1,130,131,161,-1,160,159,130,-1,162,130,159,-1,162,159,163,-1,163,159,158,-1,163,158,164,-1,165,130,162,-1,166,167,168,-1,168,167,161,-1,168,161,169,-1,169,161,131,-1,169,131,132,-1,165,162,170,-1,170,162,163,-1,170,163,171,-1,171,163,164,-1,171,164,172,-1,173,166,174,-1,174,166,168,-1,174,168,175,-1,175,168,169,-1,175,169,176,-1,176,169,132,-1,176,132,133,-1,177,173,178,-1,178,173,174,-1,178,174,179,-1,179,174,175,-1,179,175,180,-1,180,175,176,-1,180,176,181,-1,181,176,133,-1,181,133,134,-1,156,177,157,-1,157,177,178,-1,157,178,182,-1,182,178,179,-1,182,179,183,-1,183,179,180,-1,183,180,184,-1,184,180,181,-1,184,181,185,-1,185,181,134,-1,185,134,135,-1,129,157,127,-1,127,157,182,-1,127,182,125,-1,125,182,183,-1,125,183,123,-1,123,183,184,-1,123,184,121,-1,121,184,185,-1,121,185,119,-1,119,185,135,-1,119,135,116,-1,167,130,161,-1,156,172,177,-1,177,172,164,-1,177,164,173,-1,173,164,158,-1,173,158,166,-1,166,158,160,-1,166,160,167,-1,167,160,130,-1,142,141,186,-1,187,188,189,-1,136,190,191,-1,189,188,136,-1,192,136,188,-1,192,188,193,-1,193,188,187,-1,193,187,194,-1,137,136,192,-1,195,196,197,-1,197,196,191,-1,197,191,198,-1,198,191,190,-1,198,190,199,-1,137,192,138,-1,138,192,193,-1,138,193,139,-1,139,193,194,-1,139,194,140,-1,200,195,201,-1,201,195,197,-1,201,197,202,-1,202,197,198,-1,202,198,203,-1,203,198,199,-1,203,199,204,-1,205,200,206,-1,206,200,201,-1,206,201,207,-1,207,201,202,-1,207,202,208,-1,208,202,203,-1,208,203,209,-1,209,203,204,-1,209,204,210,-1,141,205,186,-1,186,205,206,-1,186,206,211,-1,211,206,207,-1,211,207,212,-1,212,207,208,-1,212,208,213,-1,213,208,209,-1,213,209,214,-1,214,209,210,-1,214,210,215,-1,142,186,154,-1,154,186,211,-1,154,211,152,-1,152,211,212,-1,152,212,150,-1,150,212,213,-1,150,213,148,-1,148,213,214,-1,148,214,146,-1,146,214,215,-1,146,215,143,-1,196,136,191,-1,141,140,205,-1,205,140,194,-1,205,194,200,-1,200,194,187,-1,200,187,195,-1,195,187,189,-1,195,189,196,-1,196,189,136,-1,136,130,165,-1,136,165,190,-1,190,165,170,-1,190,170,199,-1,199,170,171,-1,199,171,204,-1,204,171,172,-1,204,172,210,-1,210,172,156,-1,210,156,215,-1,215,156,129,-1,215,129,143,-1,
        ]
    }
}
Shape{
    appearance Appearance {
        material  Material 	{
            diffuseColor 0.4392156862745098 0.4392156862745098 0.4392156862745098
            specularColor 0.2196078431372549 0.2196078431372549 0.2196078431372549
            ambientIntensity 0.2
            transparency 0
            shininess 0.5
        }
    }
    geometry IndexedFaceSet {
        ccw TRUE
        solid FALSE
        coord DEF co Coordinate {
            point [
                -1.0942 -1.7214 1.2165, -1.0907 -1.6933 1.2205, -1.0907 -1.6933 1.2165, -1.0936 -1.6676 1.2205, -1.0936 -1.6676 1.2165, -1.104 -1.6387 1.2205, -1.104 -1.6387 1.2165, -1.1199 -1.6146 1.2205, -1.1199 -1.6146 1.2165, -1.1406 -1.5954 1.2205, -1.1406 -1.5954 1.2165, -1.1679 -1.5807 1.2205, -1.1679 -1.5807 1.2165, -1.1972 -1.5733 1.2205, -1.1972 -1.5733 1.2165, -1.2267 -1.5731 1.2205, -1.2267 -1.5731 1.2165, -1.253 -1.5795 1.2205, -1.253 -1.5795 1.2165, -1.2805 -1.5938 1.2205, -1.2805 -1.5938 1.2165, -1.3024 -1.6131 1.2205, -1.3024 -1.6131 1.2165, -1.3189 -1.6367 1.2205, -1.3189 -1.6367 1.2165, -1.3288 -1.6621 1.2205, -1.3288 -1.6621 1.2165, -1.3327 -1.6928 1.2205, -1.3327 -1.6928 1.2165, -1.3327 -1.6935 1.2205, -1.3327 -1.6935 1.2165, -1.3293 -1.7223 1.2205, -1.3293 -1.7223 1.2165, -1.3189 -1.75 1.2205, -1.3189 -1.75 1.2165, -1.3008 -1.7752 1.2205, -1.3008 -1.7752 1.2165, -1.277 -1.7952 1.2205, -1.277 -1.7952 1.2165, -1.2513 -1.8077 1.2205, -1.2513 -1.8077 1.2165, -1.2249 -1.8137 1.2205, -1.2249 -1.8137 1.2165, -1.1944 -1.8129 1.2205, -1.1944 -1.8129 1.2165, -1.1657 -1.8051 1.2205, -1.1657 -1.8051 1.2165, -1.1407 -1.7913 1.2205, -1.1407 -1.7913 1.2165, -1.122 -1.7743 1.2205, -1.122 -1.7743 1.2165, -1.1045 -1.7488 1.2205, -1.1045 -1.7488 1.2165, -1.0942 -1.7214 1.2205, -1.0942 -1.7214 1.2205
            ]
        }
        coordIndex [
            0,1,2,-1,2,1,3,-1,2,3,4,-1,4,3,5,-1,4,5,6,-1,6,5,7,-1,6,7,8,-1,8,7,9,-1,8,9,10,-1,10,9,11,-1,10,11,12,-1,12,11,13,-1,12,13,14,-1,14,13,15,-1,14,15,16,-1,16,15,17,-1,16,17,18,-1,18,17,19,-1,18,19,20,-1,20,19,21,-1,20,21,22,-1,22,21,23,-1,22,23,24,-1,24,23,25,-1,24,25,26,-1,26,25,27,-1,26,27,28,-1,28,27,29,-1,28,29,30,-1,30,29,31,-1,30,31,32,-1,32,31,33,-1,32,33,34,-1,34,33,35,-1,34,35,36,-1,36,35,37,-1,36,37,38,-1,38,37,39,-1,38,39,40,-1,40,39,41,-1,40,41,42,-1,42,41,43,-1,42,43,44,-1,44,43,45,-1,44,45,46,-1,46,45,47,-1,46,47,48,-1,48,47,49,-1,48,49,50,-1,50,49,51,-1,50,51,52,-1,52,51,53,-1,52,53,0,-1,0,53,1,-1,2,4,30,-1,30,48,50,-1,24,4,22,-1,22,4,6,-1,24,26,4,-1,4,26,28,-1,4,28,30,-1,42,44,30,-1,30,44,46,-1,30,46,48,-1,34,36,32,-1,32,36,38,-1,32,38,30,-1,30,38,40,-1,30,40,42,-1,50,52,30,-1,30,52,0,-1,30,0,2,-1,6,8,22,-1,22,8,10,-1,22,10,12,-1,12,14,22,-1,22,14,16,-1,22,16,20,-1,20,16,18,-1,
        ]
    }
}
Shape{
    appearance Appearance {
        material  Material 	{
            diffuseColor 1.0 1.0 1.0
            specularColor 0.5019607843137255 0.5019607843137255 0.5019607843137255
            ambientIntensity 0.2
            transparency 0
            shininess 0.5
        }
    }
    geometry IndexedFaceSet {
        ccw TRUE
        solid FALSE
        coord DEF co Coordinate {
            point [
                -0.658 -0.0673 0.4331, -0.658 -0.0673 0.437, -0.6205 -0.1777 0.4331, -0.6205 -0.1777 0.437, -0.8207 -0.0673 0.4331, -0.8207 -0.0673 0.437, -0.8605 -0.1777 0.4331, -0.8605 -0.1777 0.437, -0.9181 -0.1777 0.4331, -0.9181 -0.1777 0.437, -0.7645 0.216 0.4331, -0.7645 0.216 0.437, -0.7117 0.216 0.4331, -0.7117 0.216 0.437, -0.5628 -0.1777 0.4331, -0.5628 -0.1777 0.437, -0.6713 -0.0241 0.437, -0.7301 0.1404 0.437, -0.7403 0.1543 0.437, -0.7364 0.168 0.437, -0.7339 0.154 0.437, -0.803 -0.0241 0.437, -0.7437 0.1404 0.437, -0.6713 -0.0241 0.4331, -0.7301 0.1404 0.4331, -0.803 -0.0241 0.4331, -0.7437 0.1404 0.4331, -0.7364 0.168 0.4331, -0.7403 0.1543 0.4331, -0.7339 0.154 0.4331, -0.468 0.0762 0.437, -0.5103 0.1209 0.437, -0.4521 0.1153 0.437, -0.4905 0.1499 0.437, -0.4377 0.1353 0.437, -0.4598 0.1774 0.437, -0.4233 0.1474 0.437, -0.4033 0.1575 0.437, -0.4226 0.1974 0.437, -0.374 0.1657 0.437, -0.367 0.2113 0.437, -0.328 0.1728 0.437, -0.3283 0.216 0.437, -0.27 0.1728 0.437, -0.2172 0.216 0.437, -0.27 -0.1345 0.437, -0.2172 -0.1777 0.437, -0.3259 -0.1345 0.437, -0.3242 -0.1777 0.437, -0.3811 -0.1211 0.437, -0.3839 -0.1693 0.437, -0.4215 -0.1049 0.437, -0.4287 -0.1551 0.437, -0.4422 -0.0901 0.437, -0.4639 -0.1335 0.437, -0.455 -0.0751 0.437, -0.4947 -0.1024 0.437, -0.4653 -0.0545 0.437, -0.5133 -0.0709 0.437, -0.4739 -0.0244 0.437, -0.5273 -0.0234 0.437, -0.4812 0.023 0.437, -0.534 0.0241 0.437, -0.525 0.0795 0.437, -0.2172 -0.1777 0.4331, -0.2172 0.216 0.4331, -0.3242 -0.1777 0.4331, -0.3839 -0.1693 0.4331, -0.4287 -0.1551 0.4331, -0.4639 -0.1335 0.4331, -0.4947 -0.1024 0.4331, -0.5133 -0.0709 0.4331, -0.5273 -0.0234 0.4331, -0.534 0.0241 0.4331, -0.525 0.0795 0.4331, -0.5103 0.1209 0.4331, -0.4905 0.1499 0.4331, -0.4598 0.1774 0.4331, -0.4226 0.1974 0.4331, -0.367 0.2113 0.4331, -0.3283 0.216 0.4331, -0.328 0.1728 0.4331, -0.374 0.1657 0.4331, -0.4033 0.1575 0.4331, -0.4233 0.1474 0.4331, -0.4377 0.1353 0.4331, -0.4521 0.1153 0.4331, -0.468 0.0762 0.4331, -0.4812 0.023 0.4331, -0.27 0.1728 0.4331, -0.27 -0.1345 0.4331, -0.3259 -0.1345 0.4331, -0.4739 -0.0244 0.4331, -0.4653 -0.0545 0.4331, -0.455 -0.0751 0.4331, -0.4422 -0.0901 0.4331, -0.4215 -0.1049 0.4331, -0.3811 -0.1211 0.4331, -0.1211 0.0432 0.4331, -0.1211 0.0432 0.437, -0.1211 -0.0001 0.4331, -0.1211 -0.0001 0.437, 0.0181 0.0432 0.4331, 0.0181 0.0432 0.437, 0.0181 0.1728 0.4331, 0.0181 0.1728 0.437, -0.1307 0.1728 0.4331, -0.1307 0.1728 0.437, -0.1307 0.216 0.4331, -0.1307 0.216 0.437, 0.0709 0.216 0.4331, 0.0709 0.216 0.437, 0.0709 -0.1777 0.4331, 0.0709 -0.1777 0.437, -0.1403 -0.1777 0.4331, -0.1403 -0.1777 0.437, -0.1403 -0.1345 0.4331, -0.1403 -0.1345 0.437, 0.0181 -0.1345 0.4331, 0.0181 -0.1345 0.437, 0.0181 -0.0001 0.4331, 0.0181 -0.0001 0.437, 0.2399 0.1776 0.437, 0.2399 0.1776 0.4331, 0.1922 0.1714 0.4331, 0.1922 0.1714 0.437, 0.1477 0.1524 0.4331, 0.1477 0.1524 0.437, 0.1477 0.2052 0.4331, 0.1477 0.2052 0.437, 0.1932 0.2176 0.4331, 0.1932 0.2176 0.437, 0.2404 0.2208 0.4331, 0.2404 0.2208 0.437, 0.2983 0.2112 0.4331, 0.2983 0.2112 0.437, 0.3412 0.1961 0.4331, 0.3412 0.1961 0.437, 0.3731 0.1747 0.4331, 0.3731 0.1747 0.437, 0.3996 0.1465 0.4331, 0.3996 0.1465 0.437, 0.4211 0.1089 0.4331, 0.4211 0.1089 0.437, 0.435 0.057 0.4331, 0.435 0.057 0.437, 0.4406 0.0117 0.4331, 0.4406 0.0117 0.437, 0.2561 -0.1825 0.4331, 0.2561 -0.1825 0.437, 0.2736 -0.1801 0.4331, 0.2975 -0.1768 0.437, 0.2975 -0.1768 0.4331, 0.3419 -0.1643 0.437, 0.3419 -0.1643 0.4331, 0.3706 -0.1477 0.437, 0.3706 -0.1477 0.4331, 0.3993 -0.1199 0.437, 0.3993 -0.1199 0.4331, 0.4196 -0.0876 0.437, 0.4196 -0.0876 0.4331, 0.4331 -0.0455 0.437, 0.4331 -0.0455 0.4331, 0.1477 -0.1573 0.4331, 0.1477 -0.1573 0.437, 0.2004 -0.1769 0.437, 0.2321 -0.1801 0.4331, 0.2004 -0.1769 0.4331, 0.1477 -0.1141 0.4331, 0.1477 -0.1141 0.437, 0.1964 -0.1335 0.4331, 0.1964 -0.1335 0.437, 0.2488 -0.1393 0.4331, 0.2488 -0.1393 0.437, 0.2929 -0.129 0.4331, 0.2929 -0.129 0.437, 0.3206 -0.1188 0.4331, 0.3206 -0.1188 0.437, 0.3392 -0.1073 0.4331, 0.3392 -0.1073 0.437, 0.3514 -0.0954 0.4331, 0.3514 -0.0954 0.437, 0.3646 -0.0743 0.4331, 0.3646 -0.0743 0.437, 0.3786 -0.0328 0.4331, 0.3786 -0.0328 0.437, 0.3878 0.015 0.4331, 0.3878 0.015 0.437, 0.3808 0.0632 0.4331, 0.3808 0.0632 0.437, 0.3723 0.0937 0.4331, 0.3723 0.0937 0.437, 0.3617 0.1145 0.4331, 0.3617 0.1145 0.437, 0.3478 0.1306 0.4331, 0.3478 0.1306 0.437, 0.3241 0.1473 0.4331, 0.3241 0.1473 0.437, 0.2595 0.172 0.4331, 0.2595 0.172 0.437, 0.6759 -0.1777 0.4331, 0.6759 -0.1777 0.437, 0.6759 0.216 0.4331, 0.6759 0.216 0.437, 0.4742 -0.1777 0.4331, 0.4742 -0.1777 0.437, 0.4742 -0.1345 0.4331, 0.4742 -0.1345 0.437, 0.6231 -0.1345 0.4331, 0.6231 -0.1345 0.437, 0.6231 0.216 0.4331, 0.6231 0.216 0.437, 0.6231 0.216 0.437
            ]
        }
        coordIndex [
            0,1,2,-1,2,1,3,-1,4,5,0,-1,0,5,1,-1,6,7,4,-1,4,7,5,-1,8,9,6,-1,6,9,7,-1,10,11,8,-1,8,11,9,-1,12,13,10,-1,10,13,11,-1,14,15,12,-1,12,15,13,-1,14,2,15,-1,15,2,3,-1,16,17,13,-1,15,3,1,-1,18,11,19,-1,19,11,13,-1,19,13,20,-1,20,13,17,-1,13,15,16,-1,16,15,1,-1,16,1,21,-1,21,1,5,-1,18,22,11,-1,11,22,21,-1,11,21,9,-1,9,21,5,-1,9,5,7,-1,16,23,17,-1,17,23,24,-1,21,25,16,-1,16,25,23,-1,22,26,21,-1,21,26,25,-1,19,27,28,-1,19,28,18,-1,18,28,26,-1,18,26,22,-1,17,24,29,-1,17,29,20,-1,20,29,27,-1,20,27,19,-1,30,31,32,-1,32,31,33,-1,32,33,34,-1,34,33,35,-1,34,35,36,-1,36,35,37,-1,37,35,38,-1,37,38,39,-1,39,38,40,-1,39,40,41,-1,41,40,42,-1,41,42,43,-1,43,42,44,-1,43,44,45,-1,45,44,46,-1,45,46,47,-1,47,46,48,-1,47,48,49,-1,49,48,50,-1,49,50,51,-1,51,50,52,-1,51,52,53,-1,53,52,54,-1,53,54,55,-1,55,54,56,-1,55,56,57,-1,57,56,58,-1,57,58,59,-1,59,58,60,-1,59,60,61,-1,61,60,62,-1,61,62,30,-1,30,62,63,-1,30,63,31,-1,64,46,65,-1,65,46,44,-1,66,48,64,-1,64,48,46,-1,48,66,67,-1,48,67,50,-1,50,67,68,-1,50,68,52,-1,52,68,69,-1,52,69,54,-1,54,69,70,-1,54,70,56,-1,56,70,71,-1,56,71,58,-1,58,71,72,-1,58,72,60,-1,60,72,73,-1,60,73,62,-1,62,73,74,-1,62,74,63,-1,63,74,75,-1,63,75,31,-1,31,75,76,-1,31,76,33,-1,33,76,77,-1,33,77,35,-1,35,77,78,-1,35,78,38,-1,38,78,79,-1,38,79,40,-1,40,79,80,-1,40,80,42,-1,80,65,42,-1,42,65,44,-1,41,81,82,-1,41,82,39,-1,39,82,83,-1,39,83,37,-1,37,83,84,-1,37,84,36,-1,36,84,85,-1,36,85,34,-1,34,85,86,-1,34,86,32,-1,32,86,87,-1,32,87,30,-1,30,87,88,-1,30,88,61,-1,43,89,41,-1,41,89,81,-1,45,90,43,-1,43,90,89,-1,47,91,45,-1,45,91,90,-1,61,88,92,-1,61,92,59,-1,59,92,93,-1,59,93,57,-1,57,93,94,-1,57,94,55,-1,55,94,95,-1,55,95,53,-1,53,95,96,-1,53,96,51,-1,51,96,97,-1,51,97,49,-1,49,97,91,-1,49,91,47,-1,98,99,100,-1,100,99,101,-1,102,103,98,-1,98,103,99,-1,104,105,102,-1,102,105,103,-1,106,107,104,-1,104,107,105,-1,108,109,106,-1,106,109,107,-1,110,111,108,-1,108,111,109,-1,112,113,110,-1,110,113,111,-1,114,115,112,-1,112,115,113,-1,116,117,114,-1,114,117,115,-1,118,119,116,-1,116,119,117,-1,120,121,118,-1,118,121,119,-1,120,100,121,-1,121,100,101,-1,115,117,113,-1,113,117,119,-1,101,99,121,-1,121,99,103,-1,107,109,105,-1,105,109,111,-1,105,111,103,-1,103,111,113,-1,103,113,121,-1,121,113,119,-1,122,123,124,-1,122,124,125,-1,125,124,126,-1,125,126,127,-1,128,129,126,-1,126,129,127,-1,129,128,130,-1,129,130,131,-1,131,130,132,-1,131,132,133,-1,133,132,134,-1,133,134,135,-1,135,134,136,-1,135,136,137,-1,137,136,138,-1,137,138,139,-1,139,138,140,-1,139,140,141,-1,141,140,142,-1,141,142,143,-1,143,142,144,-1,143,144,145,-1,145,144,146,-1,145,146,147,-1,148,149,150,-1,150,149,151,-1,150,151,152,-1,152,151,153,-1,152,153,154,-1,154,153,155,-1,154,155,156,-1,156,155,157,-1,156,157,158,-1,158,157,159,-1,158,159,160,-1,160,159,161,-1,160,161,162,-1,162,161,147,-1,162,147,146,-1,163,164,165,-1,149,148,166,-1,149,166,165,-1,165,166,167,-1,165,167,163,-1,168,169,163,-1,163,169,164,-1,169,168,170,-1,169,170,171,-1,171,170,172,-1,171,172,173,-1,173,172,174,-1,173,174,175,-1,175,174,176,-1,175,176,177,-1,177,176,178,-1,177,178,179,-1,179,178,180,-1,179,180,181,-1,181,180,182,-1,181,182,183,-1,183,182,184,-1,183,184,185,-1,185,184,186,-1,185,186,187,-1,187,186,188,-1,187,188,189,-1,189,188,190,-1,189,190,191,-1,191,190,192,-1,191,192,193,-1,193,192,194,-1,193,194,195,-1,195,194,196,-1,195,196,197,-1,197,196,198,-1,197,198,199,-1,199,198,123,-1,199,123,122,-1,127,129,125,-1,125,129,131,-1,125,131,122,-1,122,131,133,-1,122,133,199,-1,199,133,135,-1,199,135,197,-1,197,135,137,-1,197,137,195,-1,195,137,139,-1,195,139,193,-1,193,139,141,-1,193,141,191,-1,191,141,143,-1,191,143,189,-1,189,143,145,-1,189,145,187,-1,187,145,147,-1,187,147,185,-1,185,147,161,-1,185,161,183,-1,183,161,159,-1,183,159,181,-1,181,159,157,-1,181,157,179,-1,179,157,155,-1,179,155,177,-1,177,155,153,-1,177,153,175,-1,175,153,151,-1,175,151,173,-1,173,151,149,-1,173,149,171,-1,171,149,165,-1,171,165,169,-1,169,165,164,-1,200,201,202,-1,202,201,203,-1,204,205,200,-1,200,205,201,-1,206,207,204,-1,204,207,205,-1,208,209,206,-1,206,209,207,-1,210,211,208,-1,208,211,209,-1,210,202,211,-1,211,202,203,-1,211,203,209,-1,209,203,201,-1,209,201,207,-1,207,201,205,-1,
        ]
    }
}
Shape{
    appearance Appearance {
        material  Material 	{
            diffuseColor 0.11372549019607843 0.11372549019607843 0.11372549019607843
            specularColor 0.058823529411764705 0.058823529411764705 0.058823529411764705
            ambientIntensity 0.2
            transparency 0
            shininess 0.5
        }
    }
    geometry IndexedFaceSet {
        ccw TRUE
        solid FALSE
        coord DEF co Coordinate {
            point [
                -0.6713 -0.0241 0.4331, -0.803 -0.0241 0.4331, -0.7301 0.1404 0.4331, -0.7437 0.1404 0.4331, -0.7339 0.154 0.4331, -0.7403 0.1543 0.4331, -0.7364 0.168 0.4331, -0.328 0.1728 0.4331, -0.27 0.1728 0.4331, -0.4739 -0.0244 0.4331, -0.4653 -0.0545 0.4331, -0.4033 0.1575 0.4331, -0.374 0.1657 0.4331, -0.468 0.0762 0.4331, -0.4812 0.023 0.4331, -0.27 -0.1345 0.4331, -0.3259 -0.1345 0.4331, -0.3811 -0.1211 0.4331, -0.4215 -0.1049 0.4331, -0.4422 -0.0901 0.4331, -0.455 -0.0751 0.4331, -0.4233 0.1474 0.4331, -0.4521 0.1153 0.4331, -0.4377 0.1353 0.4331, -0.4377 0.1353 0.4331
            ]
        }
        coordIndex [
            0,1,2,-1,2,1,3,-1,2,3,4,-1,4,3,5,-1,4,5,6,-1,7,8,9,-1,9,8,10,-1,11,12,13,-1,7,9,12,-1,12,9,14,-1,12,14,13,-1,15,16,8,-1,8,16,17,-1,8,17,18,-1,18,19,8,-1,8,19,20,-1,8,20,10,-1,11,13,21,-1,21,13,22,-1,21,22,23,-1,
        ]
    }
}