#VRML V2.0 utf8
# 3D model generated by easyeda2kicad.py (https://github.com/uPesy/easyeda2kicad.py)

Shape{
    appearance Appearance {
        material  Material 	{
            diffuseColor 0.2235294117647059 0.2235294117647059 0.2235294117647059
            specularColor 0.11372549019607843 0.11372549019607843 0.11372549019607843
            ambientIntensity 0.2
            transparency 0
            shininess 0.5
        }
    }
    geometry IndexedFaceSet {
        ccw TRUE
        solid FALSE
        coord DEF co Coordinate {
            point [
                0.1922 0.1714 0.4331, 0.2399 0.1776 0.4331, 0.2595 0.172 0.4331, 0.2736 -0.1801 0.4331, 0.4742 -0.1777 0.4331, 0.6759 -0.1777 0.4331, 0.1477 -0.1573 0.4331, 0.1093 -0.1801 0.4331, 0.1477 -0.1141 0.4331, 0.1477 0.1524 0.4331, 0.1964 -0.1335 0.4331, 0.2488 -0.1393 0.4331, 0.3478 0.1306 0.4331, 0.3617 0.1145 0.4331, 0.2929 -0.129 0.4331, 0.3723 0.0937 0.4331, 0.3808 0.0632 0.4331, 0.3878 0.015 0.4331, 0.3786 -0.0328 0.4331, 0.3206 -0.1188 0.4331, 0.3993 -0.1199 0.4331, 0.4196 -0.0876 0.4331, 0.4742 -0.1345 0.4331, 0.4331 -0.0455 0.4331, 0.2975 -0.1768 0.4331, 0.3419 -0.1643 0.4331, 0.3706 -0.1477 0.4331, 0.3996 0.1465 0.4331, 0.3731 0.1747 0.4331, 0.1093 1.752 0.4331, 0.3412 0.1961 0.4331, 0.2983 0.2112 0.4331, 0.2404 0.2208 0.4331, 0.1932 0.2176 0.4331, 0.1477 0.2052 0.4331, 0.3241 0.1473 0.4331, 0.3646 -0.0743 0.4331, 0.3514 -0.0954 0.4331, 0.3392 -0.1073 0.4331, 0.4406 0.0117 0.4331, 0.435 0.057 0.4331, 0.4211 0.1089 0.4331, 0.2004 -0.1769 0.4331, 0.2321 -0.1801 0.4331, 0.1093 -1.752 0.4331, 0.2561 -0.1825 0.4331, 0.6231 -0.1345 0.4331, 0.6231 0.216 0.4331, 0.6759 0.216 0.4331, 1.437 1.752 0.4331, 1.437 -0.1801 0.4331, 1.437 -1.752 0.4331, -0.1211 -0.0001 0.4331, 0.0181 -0.0001 0.4331, 0.0181 -0.1345 0.4331, -0.2172 0.216 0.4331, -0.1403 -0.1345 0.4331, -0.2172 -0.1777 0.4331, -0.1403 -0.1777 0.4331, 0.0709 -0.1777 0.4331, 0.0709 0.216 0.4331, -0.1307 0.216 0.4331, -1.437 1.752 0.4331, -0.5133 -0.0709 0.4331, -0.4947 -0.1024 0.4331, -0.5628 -0.1777 0.4331, -0.4639 -0.1335 0.4331, -0.4226 0.1974 0.4331, -0.7117 0.216 0.4331, -0.367 0.2113 0.4331, -0.3283 0.216 0.4331, -0.5103 0.1209 0.4331, -0.525 0.0795 0.4331, -0.534 0.0241 0.4331, -0.5273 -0.0234 0.4331, -0.4598 0.1774 0.4331, -0.4905 0.1499 0.4331, -0.1211 0.0432 0.4331, -0.1307 0.1728 0.4331, 0.0181 0.0432 0.4331, 0.0181 0.1728 0.4331, -0.4287 -0.1551 0.4331, -0.3839 -0.1693 0.4331, -0.3242 -0.1777 0.4331, -0.7645 0.216 0.4331, -1.437 -0.1801 0.4331, -0.9181 -0.1777 0.4331, -0.8605 -0.1777 0.4331, -0.6205 -0.1777 0.4331, -0.8207 -0.0673 0.4331, -0.658 -0.0673 0.4331, -1.437 -1.752 0.4331, -1.1679 -1.5807 1.2205, -1.1406 -1.5954 1.2205, 1.5157 1.9488 1.2205, -1.2249 -1.8137 1.2205, -1.5157 -1.9488 1.2205, -1.1944 -1.8129 1.2205, 1.5157 -1.9488 1.2205, -1.2513 -1.8077 1.2205, -1.277 -1.7952 1.2205, -1.3008 -1.7752 1.2205, -1.1199 -1.6146 1.2205, -1.104 -1.6387 1.2205, -1.0936 -1.6676 1.2205, -1.0907 -1.6933 1.2205, -1.0942 -1.7214 1.2205, -1.1045 -1.7488 1.2205, -1.122 -1.7743 1.2205, -1.1972 -1.5733 1.2205, -1.5157 1.9488 1.2205, -1.2267 -1.5731 1.2205, -1.1407 -1.7913 1.2205, -1.1657 -1.8051 1.2205, -1.3189 -1.75 1.2205, -1.3293 -1.7223 1.2205, -1.3327 -1.6935 1.2205, -1.3024 -1.6131 1.2205, -1.2805 -1.5938 1.2205, -1.253 -1.5795 1.2205, -1.3327 -1.6928 1.2205, -1.3288 -1.6621 1.2205, -1.3189 -1.6367 1.2205, 1.437 1.752 0.2362, -1.437 1.752 0.2362, -0.4724 1.811 0.2362, -0.7087 1.811 0.2362, 1.1811 1.811 0.2362, 1.4173 1.811 0.2362, -1.437 1.2795 0.2362, -1.6339 1.2795 0.2362, -1.1811 1.811 0.2362, -1.1811 1.9291 0.2362, -0.7087 1.9291 0.2362, -1.5157 2.0669 0.2362, 1.5157 2.0669 0.2362, 0.4724 1.9291 0.2362, 0.7087 1.9291 0.2362, 1.1811 1.9291 0.2362, 0.7087 1.811 0.2362, 0.4724 1.811 0.2362, -0.4724 1.9291 0.2362, 1.6339 1.2795 0.2362, 1.437 1.2795 0.2362, 1.6339 1.9488 0.2362, 1.6298 1.9794 0.2362, 1.618 2.0079 0.2362, 1.5993 2.0323 0.2362, -1.4173 1.9291 0.2362, -1.5463 2.0629 0.2362, -1.6298 1.9794 0.2362, -1.618 2.0079 0.2362, 1.4173 1.9291 0.2362, 1.5463 2.0629 0.2362, 1.5748 2.0511 0.2362, -1.4173 1.811 0.2362, -1.6339 1.9488 0.2362, -1.5993 2.0323 0.2362, -1.5748 2.0511 0.2362, 1.437 -1.752 0.2362, 1.437 -1.2795 0.2362, 1.6339 -1.2795 0.2362, -1.6298 -1.9794 0.2362, -1.6339 -1.9488 0.2362, -1.4173 -1.9291 0.2362, -1.4173 -1.811 0.2362, -0.7087 -1.811 0.2362, -1.437 -1.752 0.2362, -0.4724 -1.811 0.2362, 0.4724 -1.811 0.2362, -0.4724 -1.9291 0.2362, -1.1811 -1.9291 0.2362, -1.5157 -2.0669 0.2362, -1.5463 -2.0629 0.2362, -1.5748 -2.0511 0.2362, 0.4724 -1.9291 0.2362, 0.7087 -1.9291 0.2362, 0.7087 -1.811 0.2362, 1.1811 -1.811 0.2362, 1.1811 -1.9291 0.2362, -1.6339 -1.2795 0.2362, -1.437 -1.2795 0.2362, -1.1811 -1.811 0.2362, -0.7087 -1.9291 0.2362, -1.5993 -2.0323 0.2362, -1.618 -2.0079 0.2362, 1.6339 -1.9488 0.2362, 1.4173 -1.9291 0.2362, 1.4173 -1.811 0.2362, 1.6298 -1.9794 0.2362, 1.618 -2.0079 0.2362, 1.5993 -2.0323 0.2362, 1.5748 -2.0511 0.2362, 1.5463 -2.0629 0.2362, 1.5157 -2.0669 0.2362, -1.6339 -1.9488 1.1024, -1.6339 1.9488 1.1024, -1.6339 1.0433 0.0, -1.6339 -1.0433 0.0, -1.437 1.0433 0.0, -1.437 -1.0433 0.0, 1.6339 1.0433 0.0, 1.6339 -1.0433 0.0, 1.437 1.0433 0.0, 1.437 -1.0433 0.0, 1.6339 1.9488 1.1024, 1.6339 -1.9488 1.1024, 1.5157 2.0669 1.1024, -1.5157 2.0669 1.1024, -1.5157 -2.0669 1.1024, 1.5157 -2.0669 1.1024, 1.5157 -2.0669 1.1024
            ]
        }
        coordIndex [
            0,1,2,-1,3,4,5,-1,6,7,8,-1,8,7,9,-1,9,0,8,-1,8,0,2,-1,8,2,10,-1,10,2,11,-1,12,13,14,-1,14,13,15,-1,14,15,16,-1,16,17,14,-1,14,17,18,-1,14,18,19,-1,20,21,22,-1,22,21,23,-1,3,24,4,-1,4,24,25,-1,4,25,22,-1,22,25,26,-1,22,26,20,-1,27,28,29,-1,29,28,30,-1,29,30,31,-1,31,32,29,-1,29,32,33,-1,29,33,34,-1,11,2,14,-1,14,2,35,-1,14,35,12,-1,36,37,18,-1,18,37,38,-1,18,38,19,-1,23,39,22,-1,22,39,40,-1,22,40,29,-1,29,40,41,-1,29,41,27,-1,6,42,7,-1,7,42,43,-1,7,43,44,-1,44,43,45,-1,44,45,3,-1,46,22,47,-1,47,22,29,-1,47,29,48,-1,48,29,49,-1,48,49,5,-1,5,49,50,-1,5,50,3,-1,3,50,51,-1,3,51,44,-1,52,53,54,-1,55,56,57,-1,57,56,58,-1,57,58,7,-1,7,58,59,-1,7,59,60,-1,61,62,60,-1,60,62,29,-1,60,29,7,-1,7,29,34,-1,7,34,9,-1,63,64,65,-1,65,64,66,-1,67,68,69,-1,69,68,70,-1,71,72,68,-1,68,72,73,-1,68,73,65,-1,65,73,74,-1,65,74,63,-1,67,75,68,-1,68,75,76,-1,68,76,71,-1,54,56,52,-1,52,56,55,-1,52,55,77,-1,77,55,78,-1,77,78,79,-1,79,78,80,-1,66,81,65,-1,65,81,82,-1,65,82,83,-1,70,62,55,-1,55,62,61,-1,55,61,78,-1,70,68,62,-1,62,68,84,-1,62,84,85,-1,85,84,86,-1,85,86,87,-1,88,65,7,-1,7,65,83,-1,7,83,57,-1,89,90,87,-1,87,90,88,-1,87,88,85,-1,85,88,7,-1,85,7,91,-1,91,7,44,-1,92,93,94,-1,95,96,97,-1,97,96,98,-1,95,99,96,-1,96,99,100,-1,96,100,101,-1,93,102,94,-1,94,102,103,-1,94,103,98,-1,98,103,104,-1,98,104,105,-1,105,106,98,-1,98,106,107,-1,98,107,108,-1,92,94,109,-1,109,94,110,-1,109,110,111,-1,108,112,98,-1,98,112,113,-1,98,113,97,-1,101,114,96,-1,96,114,115,-1,96,115,116,-1,117,118,110,-1,110,118,119,-1,110,119,111,-1,116,120,96,-1,96,120,121,-1,96,121,110,-1,110,121,122,-1,110,122,117,-1,123,124,125,-1,125,124,126,-1,127,128,123,-1,124,129,130,-1,131,132,133,-1,134,135,136,-1,136,135,137,-1,138,127,139,-1,139,127,123,-1,139,123,140,-1,140,123,125,-1,140,125,136,-1,136,125,141,-1,136,141,134,-1,142,143,144,-1,144,143,123,-1,144,123,145,-1,145,123,128,-1,145,128,146,-1,146,128,147,-1,148,149,132,-1,132,149,134,-1,132,134,133,-1,133,134,141,-1,150,151,148,-1,139,137,138,-1,138,137,135,-1,138,135,152,-1,152,135,153,-1,152,153,128,-1,128,153,154,-1,128,154,147,-1,133,126,131,-1,131,126,124,-1,131,124,155,-1,155,124,130,-1,155,130,148,-1,148,130,156,-1,148,156,150,-1,151,157,148,-1,148,157,158,-1,148,158,149,-1,159,160,161,-1,162,163,164,-1,164,163,165,-1,166,167,168,-1,168,167,169,-1,168,169,170,-1,171,172,164,-1,164,172,173,-1,164,173,174,-1,172,175,176,-1,177,178,176,-1,176,178,179,-1,176,179,172,-1,180,181,167,-1,163,180,165,-1,165,180,167,-1,165,167,182,-1,182,167,166,-1,182,166,171,-1,171,166,183,-1,171,183,172,-1,172,183,170,-1,172,170,175,-1,175,170,169,-1,174,184,164,-1,164,184,185,-1,164,185,162,-1,186,187,161,-1,161,187,188,-1,161,188,159,-1,159,188,178,-1,159,178,167,-1,167,178,177,-1,167,177,169,-1,186,189,187,-1,187,189,190,-1,187,190,191,-1,191,192,187,-1,187,192,193,-1,187,193,179,-1,179,193,194,-1,179,194,172,-1,195,196,130,-1,130,196,156,-1,197,198,130,-1,130,198,180,-1,130,180,195,-1,195,180,163,-1,199,200,197,-1,197,200,198,-1,124,62,129,-1,129,62,85,-1,199,129,200,-1,200,129,85,-1,200,85,181,-1,181,85,91,-1,181,91,167,-1,201,202,203,-1,203,202,204,-1,142,144,205,-1,206,186,161,-1,202,201,161,-1,161,201,142,-1,161,142,206,-1,206,142,205,-1,49,123,143,-1,159,51,160,-1,160,51,50,-1,160,50,204,-1,49,143,50,-1,50,143,203,-1,50,203,204,-1,135,134,207,-1,207,134,208,-1,172,194,209,-1,209,194,210,-1,51,159,44,-1,44,159,167,-1,44,167,91,-1,62,124,29,-1,29,124,123,-1,29,123,49,-1,
        ]
    }
}
Shape{
    appearance Appearance {
        material  Material 	{
            diffuseColor 0.7529411764705882 0.7529411764705882 0.7529411764705882
            specularColor 0.3764705882352941 0.3764705882352941 0.3764705882352941
            ambientIntensity 0.2
            transparency 0
            shininess 0.5
        }
    }
    geometry IndexedFaceSet {
        ccw TRUE
        solid FALSE
        coord DEF co Coordinate {
            point [
                0.7087 -2.4016 -0.0, 0.7087 -1.9291 0.0, 0.4724 -2.4016 -0.0, 0.4724 -1.9291 0.0, 0.7087 -2.4016 -0.1181, 0.4724 -2.4016 -0.1181, 0.7087 -1.9291 -0.1181, 0.4724 -1.9291 -0.1181, 0.4724 -1.8986 -0.1141, 0.7087 -1.8986 -0.1141, 0.4724 -1.8701 -0.1023, 0.7087 -1.8701 -0.1023, 0.4724 -1.8456 -0.0835, 0.7087 -1.8456 -0.0835, 0.4724 -1.8268 -0.0591, 0.7087 -1.8268 -0.0591, 0.4724 -1.815 -0.0306, 0.7087 -1.815 -0.0306, 0.4724 -1.811 0.0, 0.7087 -1.811 0.0, 0.7087 -1.811 0.2362, 0.4724 -1.811 0.2362, 0.7087 -1.9291 0.2362, 0.4724 -1.9291 0.2362, 1.4173 -2.4016 -0.0, 1.4173 -1.9291 0.0, 1.1811 -2.4016 -0.0, 1.1811 -1.9291 0.0, 1.4173 -2.4016 -0.1181, 1.1811 -2.4016 -0.1181, 1.4173 -1.9291 -0.1181, 1.1811 -1.9291 -0.1181, 1.1811 -1.8986 -0.1141, 1.4173 -1.8986 -0.1141, 1.1811 -1.8701 -0.1023, 1.4173 -1.8701 -0.1023, 1.1811 -1.8456 -0.0835, 1.4173 -1.8456 -0.0835, 1.1811 -1.8268 -0.0591, 1.4173 -1.8268 -0.0591, 1.1811 -1.815 -0.0306, 1.4173 -1.815 -0.0306, 1.1811 -1.811 0.0, 1.4173 -1.811 0.0, 1.4173 -1.811 0.2362, 1.1811 -1.811 0.2362, 1.4173 -1.9291 0.2362, 1.1811 -1.9291 0.2362, -0.7087 -1.9291 0.0, -0.7087 -2.4016 -0.0, -0.4724 -1.9291 0.0, -0.4724 -2.4016 -0.0, -0.7087 -1.9291 0.2362, -0.4724 -1.9291 0.2362, -0.7087 -1.811 0.0, -0.7087 -1.811 0.2362, -0.4724 -1.811 0.0, -0.4724 -1.811 0.2362, -0.4724 -1.815 -0.0306, -0.7087 -1.815 -0.0306, -0.4724 -1.8268 -0.0591, -0.7087 -1.8268 -0.0591, -0.4724 -1.8456 -0.0835, -0.7087 -1.8456 -0.0835, -0.4724 -1.8701 -0.1023, -0.7087 -1.8701 -0.1023, -0.4724 -1.8986 -0.1141, -0.7087 -1.8986 -0.1141, -0.4724 -1.9291 -0.1181, -0.7087 -1.9291 -0.1181, -0.7087 -2.4016 -0.1181, -0.4724 -2.4016 -0.1181, -1.4173 -1.9291 0.0, -1.4173 -2.4016 -0.0, -1.1811 -1.9291 0.0, -1.1811 -2.4016 -0.0, -1.4173 -1.9291 0.2362, -1.1811 -1.9291 0.2362, -1.4173 -1.811 0.0, -1.4173 -1.811 0.2362, -1.1811 -1.811 0.0, -1.1811 -1.811 0.2362, -1.1811 -1.815 -0.0306, -1.4173 -1.815 -0.0306, -1.1811 -1.8268 -0.0591, -1.4173 -1.8268 -0.0591, -1.1811 -1.8456 -0.0835, -1.4173 -1.8456 -0.0835, -1.1811 -1.8701 -0.1023, -1.4173 -1.8701 -0.1023, -1.1811 -1.8986 -0.1141, -1.4173 -1.8986 -0.1141, -1.1811 -1.9291 -0.1181, -1.4173 -1.9291 -0.1181, -1.4173 -2.4016 -0.1181, -1.1811 -2.4016 -0.1181, -0.7087 2.4016 -0.0, -0.7087 1.9291 0.0, -0.4724 2.4016 -0.0, -0.4724 1.9291 0.0, -0.7087 2.4016 -0.1181, -0.4724 2.4016 -0.1181, -0.7087 1.9291 -0.1181, -0.4724 1.9291 -0.1181, -0.4724 1.8986 -0.1141, -0.7087 1.8986 -0.1141, -0.4724 1.8701 -0.1023, -0.7087 1.8701 -0.1023, -0.4724 1.8456 -0.0835, -0.7087 1.8456 -0.0835, -0.4724 1.8268 -0.0591, -0.7087 1.8268 -0.0591, -0.4724 1.815 -0.0306, -0.7087 1.815 -0.0306, -0.4724 1.811 0.0, -0.7087 1.811 0.0, -0.7087 1.811 0.2362, -0.4724 1.811 0.2362, -0.7087 1.9291 0.2362, -0.4724 1.9291 0.2362, -1.4173 2.4016 -0.0, -1.4173 1.9291 0.0, -1.1811 2.4016 -0.0, -1.1811 1.9291 0.0, -1.4173 2.4016 -0.1181, -1.1811 2.4016 -0.1181, -1.4173 1.9291 -0.1181, -1.1811 1.9291 -0.1181, -1.1811 1.8986 -0.1141, -1.4173 1.8986 -0.1141, -1.1811 1.8701 -0.1023, -1.4173 1.8701 -0.1023, -1.1811 1.8456 -0.0835, -1.4173 1.8456 -0.0835, -1.1811 1.8268 -0.0591, -1.4173 1.8268 -0.0591, -1.1811 1.815 -0.0306, -1.4173 1.815 -0.0306, -1.1811 1.811 0.0, -1.4173 1.811 0.0, -1.4173 1.811 0.2362, -1.1811 1.811 0.2362, -1.4173 1.9291 0.2362, -1.1811 1.9291 0.2362, 0.7087 1.9291 0.0, 0.7087 2.4016 -0.0, 0.4724 1.9291 0.0, 0.4724 2.4016 -0.0, 0.7087 1.9291 0.2362, 0.4724 1.9291 0.2362, 0.7087 1.811 0.0, 0.7087 1.811 0.2362, 0.4724 1.811 0.0, 0.4724 1.811 0.2362, 0.4724 1.815 -0.0306, 0.7087 1.815 -0.0306, 0.4724 1.8268 -0.0591, 0.7087 1.8268 -0.0591, 0.4724 1.8456 -0.0835, 0.7087 1.8456 -0.0835, 0.4724 1.8701 -0.1023, 0.7087 1.8701 -0.1023, 0.4724 1.8986 -0.1141, 0.7087 1.8986 -0.1141, 0.4724 1.9291 -0.1181, 0.7087 1.9291 -0.1181, 0.7087 2.4016 -0.1181, 0.4724 2.4016 -0.1181, 1.4173 1.9291 0.0, 1.4173 2.4016 -0.0, 1.1811 1.9291 0.0, 1.1811 2.4016 -0.0, 1.4173 1.9291 0.2362, 1.1811 1.9291 0.2362, 1.4173 1.811 0.0, 1.4173 1.811 0.2362, 1.1811 1.811 0.0, 1.1811 1.811 0.2362, 1.1811 1.815 -0.0306, 1.4173 1.815 -0.0306, 1.1811 1.8268 -0.0591, 1.4173 1.8268 -0.0591, 1.1811 1.8456 -0.0835, 1.4173 1.8456 -0.0835, 1.1811 1.8701 -0.1023, 1.4173 1.8701 -0.1023, 1.1811 1.8986 -0.1141, 1.4173 1.8986 -0.1141, 1.1811 1.9291 -0.1181, 1.4173 1.9291 -0.1181, 1.4173 2.4016 -0.1181, 1.1811 2.4016 -0.1181, 1.1811 2.4016 -0.1181
            ]
        }
        coordIndex [
            0,1,2,-1,2,1,3,-1,4,0,5,-1,5,0,2,-1,6,4,7,-1,7,4,5,-1,6,7,8,-1,6,8,9,-1,9,8,10,-1,9,10,11,-1,11,10,12,-1,11,12,13,-1,13,12,14,-1,13,14,15,-1,15,14,16,-1,15,16,17,-1,17,16,18,-1,17,18,19,-1,20,19,21,-1,21,19,18,-1,1,22,3,-1,3,22,23,-1,20,22,19,-1,19,22,1,-1,0,4,1,-1,1,4,6,-1,13,15,1,-1,1,15,17,-1,1,17,19,-1,6,9,1,-1,1,9,11,-1,1,11,13,-1,23,21,3,-1,3,21,18,-1,3,18,16,-1,5,2,7,-1,7,2,3,-1,7,3,8,-1,8,3,10,-1,16,14,3,-1,3,14,12,-1,3,12,10,-1,24,25,26,-1,26,25,27,-1,28,24,29,-1,29,24,26,-1,30,28,31,-1,31,28,29,-1,30,31,32,-1,30,32,33,-1,33,32,34,-1,33,34,35,-1,35,34,36,-1,35,36,37,-1,37,36,38,-1,37,38,39,-1,39,38,40,-1,39,40,41,-1,41,40,42,-1,41,42,43,-1,44,43,45,-1,45,43,42,-1,25,46,27,-1,27,46,47,-1,44,46,43,-1,43,46,25,-1,24,28,25,-1,25,28,30,-1,37,39,25,-1,25,39,41,-1,25,41,43,-1,30,33,25,-1,25,33,35,-1,25,35,37,-1,47,45,27,-1,27,45,42,-1,27,42,40,-1,29,26,31,-1,31,26,27,-1,31,27,32,-1,32,27,34,-1,40,38,27,-1,27,38,36,-1,27,36,34,-1,48,49,50,-1,50,49,51,-1,52,48,53,-1,53,48,50,-1,54,55,56,-1,56,55,57,-1,54,56,58,-1,54,58,59,-1,59,58,60,-1,59,60,61,-1,61,60,62,-1,61,62,63,-1,63,62,64,-1,63,64,65,-1,65,64,66,-1,65,66,67,-1,67,66,68,-1,67,68,69,-1,70,69,71,-1,71,69,68,-1,49,70,51,-1,51,70,71,-1,52,55,48,-1,48,55,54,-1,48,54,59,-1,70,49,69,-1,69,49,48,-1,69,48,67,-1,67,48,65,-1,59,61,48,-1,48,61,63,-1,48,63,65,-1,57,53,56,-1,56,53,50,-1,51,71,50,-1,50,71,68,-1,62,60,50,-1,50,60,58,-1,50,58,56,-1,68,66,50,-1,50,66,64,-1,50,64,62,-1,72,73,74,-1,74,73,75,-1,76,72,77,-1,77,72,74,-1,78,79,80,-1,80,79,81,-1,78,80,82,-1,78,82,83,-1,83,82,84,-1,83,84,85,-1,85,84,86,-1,85,86,87,-1,87,86,88,-1,87,88,89,-1,89,88,90,-1,89,90,91,-1,91,90,92,-1,91,92,93,-1,94,93,95,-1,95,93,92,-1,73,94,75,-1,75,94,95,-1,76,79,72,-1,72,79,78,-1,72,78,83,-1,94,73,93,-1,93,73,72,-1,93,72,91,-1,91,72,89,-1,83,85,72,-1,72,85,87,-1,72,87,89,-1,81,77,80,-1,80,77,74,-1,75,95,74,-1,74,95,92,-1,86,84,74,-1,74,84,82,-1,74,82,80,-1,92,90,74,-1,74,90,88,-1,74,88,86,-1,96,97,98,-1,98,97,99,-1,100,96,101,-1,101,96,98,-1,102,100,103,-1,103,100,101,-1,102,103,104,-1,102,104,105,-1,105,104,106,-1,105,106,107,-1,107,106,108,-1,107,108,109,-1,109,108,110,-1,109,110,111,-1,111,110,112,-1,111,112,113,-1,113,112,114,-1,113,114,115,-1,116,115,117,-1,117,115,114,-1,97,118,99,-1,99,118,119,-1,116,118,115,-1,115,118,97,-1,96,100,97,-1,97,100,102,-1,109,111,97,-1,97,111,113,-1,97,113,115,-1,102,105,97,-1,97,105,107,-1,97,107,109,-1,119,117,99,-1,99,117,114,-1,99,114,112,-1,101,98,103,-1,103,98,99,-1,103,99,104,-1,104,99,106,-1,112,110,99,-1,99,110,108,-1,99,108,106,-1,120,121,122,-1,122,121,123,-1,124,120,125,-1,125,120,122,-1,126,124,127,-1,127,124,125,-1,126,127,128,-1,126,128,129,-1,129,128,130,-1,129,130,131,-1,131,130,132,-1,131,132,133,-1,133,132,134,-1,133,134,135,-1,135,134,136,-1,135,136,137,-1,137,136,138,-1,137,138,139,-1,140,139,141,-1,141,139,138,-1,121,142,123,-1,123,142,143,-1,140,142,139,-1,139,142,121,-1,120,124,121,-1,121,124,126,-1,133,135,121,-1,121,135,137,-1,121,137,139,-1,126,129,121,-1,121,129,131,-1,121,131,133,-1,143,141,123,-1,123,141,138,-1,123,138,136,-1,125,122,127,-1,127,122,123,-1,127,123,128,-1,128,123,130,-1,136,134,123,-1,123,134,132,-1,123,132,130,-1,144,145,146,-1,146,145,147,-1,148,144,149,-1,149,144,146,-1,150,151,152,-1,152,151,153,-1,150,152,154,-1,150,154,155,-1,155,154,156,-1,155,156,157,-1,157,156,158,-1,157,158,159,-1,159,158,160,-1,159,160,161,-1,161,160,162,-1,161,162,163,-1,163,162,164,-1,163,164,165,-1,166,165,167,-1,167,165,164,-1,145,166,147,-1,147,166,167,-1,148,151,144,-1,144,151,150,-1,144,150,155,-1,166,145,165,-1,165,145,144,-1,165,144,163,-1,163,144,161,-1,155,157,144,-1,144,157,159,-1,144,159,161,-1,153,149,152,-1,152,149,146,-1,147,167,146,-1,146,167,164,-1,158,156,146,-1,146,156,154,-1,146,154,152,-1,164,162,146,-1,146,162,160,-1,146,160,158,-1,168,169,170,-1,170,169,171,-1,172,168,173,-1,173,168,170,-1,174,175,176,-1,176,175,177,-1,174,176,178,-1,174,178,179,-1,179,178,180,-1,179,180,181,-1,181,180,182,-1,181,182,183,-1,183,182,184,-1,183,184,185,-1,185,184,186,-1,185,186,187,-1,187,186,188,-1,187,188,189,-1,190,189,191,-1,191,189,188,-1,169,190,171,-1,171,190,191,-1,172,175,168,-1,168,175,174,-1,168,174,179,-1,190,169,189,-1,189,169,168,-1,189,168,187,-1,187,168,185,-1,179,181,168,-1,168,181,183,-1,168,183,185,-1,177,173,176,-1,176,173,170,-1,171,191,170,-1,170,191,188,-1,182,180,170,-1,170,180,178,-1,170,178,176,-1,188,186,170,-1,170,186,184,-1,170,184,182,-1,
        ]
    }
}
Shape{
    appearance Appearance {
        material  Material 	{
            diffuseColor 0.11372549019607843 0.11372549019607843 0.11372549019607843
            specularColor 0.058823529411764705 0.058823529411764705 0.058823529411764705
            ambientIntensity 0.2
            transparency 0
            shininess 0.5
        }
    }
    geometry IndexedFaceSet {
        ccw TRUE
        solid FALSE
        coord DEF co Coordinate {
            point [
                -1.6339 1.0433 0.0, -1.6339 1.2795 0.2362, -1.437 1.0433 0.0, -1.437 1.2795 0.2362, -1.6339 -1.2795 0.2362, -1.6339 -1.0433 0.0, -1.437 -1.2795 0.2362, -1.437 -1.0433 0.0, 1.6339 1.2795 0.2362, 1.6339 1.0433 0.0, 1.437 1.2795 0.2362, 1.437 1.0433 0.0, 1.6339 -1.0433 0.0, 1.6339 -1.2795 0.2362, 1.437 -1.0433 0.0, 1.437 -1.2795 0.2362, 1.437 -1.2795 0.2362
            ]
        }
        coordIndex [
            0,1,2,-1,2,1,3,-1,4,5,6,-1,6,5,7,-1,8,9,10,-1,10,9,11,-1,12,13,14,-1,14,13,15,-1,
        ]
    }
}
Shape{
    appearance Appearance {
        material  Material 	{
            diffuseColor 0.2235294117647059 0.2235294117647059 0.2235294117647059
            specularColor 0.11372549019607843 0.11372549019607843 0.11372549019607843
            ambientIntensity 0.2
            transparency 0
            shininess 0.5
        }
    }
    geometry IndexedFaceSet {
        ccw TRUE
        solid FALSE
        coord DEF co Coordinate {
            point [
                -1.5157 2.0669 1.1024, -1.5157 2.0669 0.2362, -1.5463 2.0629 0.2362, -1.5463 2.0629 1.1024, -1.5748 2.0511 0.2362, -1.5748 2.0511 1.1024, -1.5993 2.0323 0.2362, -1.5993 2.0323 1.1024, -1.618 2.0079 0.2362, -1.618 2.0079 1.1024, -1.6298 1.9794 0.2362, -1.6298 1.9794 1.1024, -1.6339 1.9488 0.2362, -1.6339 1.9488 1.1024, -1.5157 1.9488 1.2205, 1.5157 1.9488 1.2205, 1.5157 1.9794 1.2164, -1.5157 1.9794 1.2164, 1.5157 2.0079 1.2046, -1.5157 2.0079 1.2046, 1.5157 2.0323 1.1859, -1.5157 2.0323 1.1859, 1.5157 2.0511 1.1614, -1.5157 2.0511 1.1614, 1.5157 2.0629 1.1329, -1.5157 2.0629 1.1329, 1.5157 2.0669 1.1024, 1.6339 1.9488 1.1024, 1.6339 1.9488 0.2362, 1.6298 1.9794 0.2362, 1.6298 1.9794 1.1024, 1.618 2.0079 0.2362, 1.618 2.0079 1.1024, 1.5993 2.0323 0.2362, 1.5993 2.0323 1.1024, 1.5748 2.0511 0.2362, 1.5748 2.0511 1.1024, 1.5463 2.0629 0.2362, 1.5463 2.0629 1.1024, 1.5157 2.0669 0.2362, -1.6298 1.9488 1.1329, -1.6259 1.9783 1.1329, -1.5669 1.9783 1.2046, -1.5422 1.9641 1.2164, -1.5374 1.9704 1.2164, -1.5237 1.9783 1.2164, -1.5453 1.9567 1.2164, -1.5728 1.9641 1.2046, -1.5964 1.9704 1.1859, -1.5463 1.9488 1.2164, -1.5575 1.9906 1.2046, -1.531 1.9753 1.2164, -1.5453 2.0 1.2046, -1.531 2.0059 1.2046, -1.5748 1.9488 1.2046, -1.5993 1.9488 1.1859, -1.618 1.9488 1.1614, -1.5881 1.9906 1.1859, -1.5748 2.0079 1.1859, -1.5575 2.0211 1.1859, -1.5374 2.0295 1.1859, -1.6145 1.9753 1.1614, -1.6043 2.0 1.1614, -1.5881 2.0211 1.1614, -1.5669 2.0374 1.1614, -1.5422 2.0476 1.1614, -1.6145 2.0059 1.1329, -1.5964 2.0295 1.1329, -1.5728 2.0476 1.1329, -1.5453 2.059 1.1329, 1.5453 2.059 1.1329, 1.5453 2.0 1.2046, 1.531 1.9753 1.2164, 1.5374 1.9704 1.2164, 1.5463 1.9488 1.2164, 1.5453 1.9567 1.2164, 1.5237 1.9783 1.2164, 1.531 2.0059 1.2046, 1.5374 2.0295 1.1859, 1.5575 1.9906 1.2046, 1.5422 1.9641 1.2164, 1.5669 1.9783 1.2046, 1.5728 1.9641 1.2046, 1.5748 1.9488 1.2046, 1.5575 2.0211 1.1859, 1.5748 2.0079 1.1859, 1.5881 1.9906 1.1859, 1.5964 1.9704 1.1859, 1.5993 1.9488 1.1859, 1.5422 2.0476 1.1614, 1.5669 2.0374 1.1614, 1.5881 2.0211 1.1614, 1.6043 2.0 1.1614, 1.6145 1.9753 1.1614, 1.618 1.9488 1.1614, 1.5728 2.0476 1.1329, 1.5964 2.0295 1.1329, 1.6145 2.0059 1.1329, 1.6259 1.9783 1.1329, 1.6298 1.9488 1.1329, -1.6339 -1.9488 1.1024, -1.6339 -1.9488 0.2362, -1.6298 -1.9794 0.2362, -1.6298 -1.9794 1.1024, -1.618 -2.0079 0.2362, -1.618 -2.0079 1.1024, -1.5993 -2.0323 0.2362, -1.5993 -2.0323 1.1024, -1.5748 -2.0511 0.2362, -1.5748 -2.0511 1.1024, -1.5463 -2.0629 0.2362, -1.5463 -2.0629 1.1024, -1.5157 -2.0669 0.2362, -1.5157 -2.0669 1.1024, -1.5157 -1.9488 1.2205, -1.5463 -1.9488 1.2164, -1.5748 -1.9488 1.2046, -1.5993 -1.9488 1.1859, -1.618 -1.9488 1.1614, -1.6298 -1.9488 1.1329, 1.5157 -1.9488 1.2205, 1.5463 -1.9488 1.2164, 1.5748 -1.9488 1.2046, 1.5993 -1.9488 1.1859, 1.618 -1.9488 1.1614, 1.6298 -1.9488 1.1329, 1.6339 -1.9488 1.1024, 1.5157 -2.0669 1.1024, 1.5157 -2.0669 0.2362, 1.5463 -2.0629 0.2362, 1.5463 -2.0629 1.1024, 1.5748 -2.0511 0.2362, 1.5748 -2.0511 1.1024, 1.5993 -2.0323 0.2362, 1.5993 -2.0323 1.1024, 1.618 -2.0079 0.2362, 1.618 -2.0079 1.1024, 1.6298 -1.9794 0.2362, 1.6298 -1.9794 1.1024, 1.6339 -1.9488 0.2362, -1.5157 -2.0629 1.1329, -1.5453 -2.059 1.1329, -1.5453 -2.0 1.2046, -1.531 -1.9753 1.2164, -1.5374 -1.9704 1.2164, -1.5453 -1.9567 1.2164, -1.5237 -1.9783 1.2164, -1.531 -2.0059 1.2046, -1.5374 -2.0295 1.1859, -1.5157 -1.9794 1.2164, -1.5575 -1.9906 1.2046, -1.5422 -1.9641 1.2164, -1.5669 -1.9783 1.2046, -1.5728 -1.9641 1.2046, -1.5157 -2.0079 1.2046, -1.5157 -2.0323 1.1859, -1.5157 -2.0511 1.1614, -1.5575 -2.0211 1.1859, -1.5748 -2.0079 1.1859, -1.5881 -1.9906 1.1859, -1.5964 -1.9704 1.1859, -1.5422 -2.0476 1.1614, -1.5669 -2.0374 1.1614, -1.5881 -2.0211 1.1614, -1.6043 -2.0 1.1614, -1.6145 -1.9753 1.1614, -1.5728 -2.0476 1.1329, -1.5964 -2.0295 1.1329, -1.6145 -2.0059 1.1329, -1.6259 -1.9783 1.1329, 1.6259 -1.9783 1.1329, 1.5669 -1.9783 1.2046, 1.5422 -1.9641 1.2164, 1.5374 -1.9704 1.2164, 1.5157 -1.9794 1.2164, 1.5237 -1.9783 1.2164, 1.5453 -1.9567 1.2164, 1.5728 -1.9641 1.2046, 1.5964 -1.9704 1.1859, 1.5575 -1.9906 1.2046, 1.531 -1.9753 1.2164, 1.5453 -2.0 1.2046, 1.531 -2.0059 1.2046, 1.5157 -2.0079 1.2046, 1.5881 -1.9906 1.1859, 1.5748 -2.0079 1.1859, 1.5575 -2.0211 1.1859, 1.5374 -2.0295 1.1859, 1.5157 -2.0323 1.1859, 1.6145 -1.9753 1.1614, 1.6043 -2.0 1.1614, 1.5881 -2.0211 1.1614, 1.5669 -2.0374 1.1614, 1.5422 -2.0476 1.1614, 1.5157 -2.0511 1.1614, 1.6145 -2.0059 1.1329, 1.5964 -2.0295 1.1329, 1.5728 -2.0476 1.1329, 1.5453 -2.059 1.1329, 1.5157 -2.0629 1.1329, 1.5157 -2.0629 1.1329
            ]
        }
        coordIndex [
            0,1,2,-1,0,2,3,-1,3,2,4,-1,3,4,5,-1,5,4,6,-1,5,6,7,-1,7,6,8,-1,7,8,9,-1,9,8,10,-1,9,10,11,-1,11,10,12,-1,11,12,13,-1,14,15,16,-1,14,16,17,-1,17,16,18,-1,17,18,19,-1,19,18,20,-1,19,20,21,-1,21,20,22,-1,21,22,23,-1,23,22,24,-1,23,24,25,-1,25,24,26,-1,25,26,0,-1,27,28,29,-1,27,29,30,-1,30,29,31,-1,30,31,32,-1,32,31,33,-1,32,33,34,-1,34,33,35,-1,34,35,36,-1,36,35,37,-1,36,37,38,-1,38,37,39,-1,38,39,26,-1,13,40,41,-1,42,43,44,-1,14,17,45,-1,44,43,14,-1,46,14,43,-1,46,43,47,-1,47,43,42,-1,47,42,48,-1,49,14,46,-1,50,51,52,-1,52,51,45,-1,52,45,53,-1,53,45,17,-1,53,17,19,-1,49,46,54,-1,54,46,47,-1,54,47,55,-1,55,47,48,-1,55,48,56,-1,57,50,58,-1,58,50,52,-1,58,52,59,-1,59,52,53,-1,59,53,60,-1,60,53,19,-1,60,19,21,-1,61,57,62,-1,62,57,58,-1,62,58,63,-1,63,58,59,-1,63,59,64,-1,64,59,60,-1,64,60,65,-1,65,60,21,-1,65,21,23,-1,40,61,41,-1,41,61,62,-1,41,62,66,-1,66,62,63,-1,66,63,67,-1,67,63,64,-1,67,64,68,-1,68,64,65,-1,68,65,69,-1,69,65,23,-1,69,23,25,-1,13,41,11,-1,11,41,66,-1,11,66,9,-1,9,66,67,-1,9,67,7,-1,7,67,68,-1,7,68,5,-1,5,68,69,-1,5,69,3,-1,3,69,25,-1,3,25,0,-1,51,14,45,-1,40,56,61,-1,61,56,48,-1,61,48,57,-1,57,48,42,-1,57,42,50,-1,50,42,44,-1,50,44,51,-1,51,44,14,-1,26,24,70,-1,71,72,73,-1,15,74,75,-1,73,72,15,-1,76,15,72,-1,76,72,77,-1,77,72,71,-1,77,71,78,-1,16,15,76,-1,79,80,81,-1,81,80,75,-1,81,75,82,-1,82,75,74,-1,82,74,83,-1,16,76,18,-1,18,76,77,-1,18,77,20,-1,20,77,78,-1,20,78,22,-1,84,79,85,-1,85,79,81,-1,85,81,86,-1,86,81,82,-1,86,82,87,-1,87,82,83,-1,87,83,88,-1,89,84,90,-1,90,84,85,-1,90,85,91,-1,91,85,86,-1,91,86,92,-1,92,86,87,-1,92,87,93,-1,93,87,88,-1,93,88,94,-1,24,89,70,-1,70,89,90,-1,70,90,95,-1,95,90,91,-1,95,91,96,-1,96,91,92,-1,96,92,97,-1,97,92,93,-1,97,93,98,-1,98,93,94,-1,98,94,99,-1,26,70,38,-1,38,70,95,-1,38,95,36,-1,36,95,96,-1,36,96,34,-1,34,96,97,-1,34,97,32,-1,32,97,98,-1,32,98,30,-1,30,98,99,-1,30,99,27,-1,80,15,75,-1,24,22,89,-1,89,22,78,-1,89,78,84,-1,84,78,71,-1,84,71,79,-1,79,71,73,-1,79,73,80,-1,80,73,15,-1,100,101,102,-1,100,102,103,-1,103,102,104,-1,103,104,105,-1,105,104,106,-1,105,106,107,-1,107,106,108,-1,107,108,109,-1,109,108,110,-1,109,110,111,-1,111,110,112,-1,111,112,113,-1,114,14,49,-1,114,49,115,-1,115,49,54,-1,115,54,116,-1,116,54,55,-1,116,55,117,-1,117,55,56,-1,117,56,118,-1,118,56,40,-1,118,40,119,-1,119,40,13,-1,119,13,100,-1,15,120,121,-1,15,121,74,-1,74,121,122,-1,74,122,83,-1,83,122,123,-1,83,123,88,-1,88,123,124,-1,88,124,94,-1,94,124,125,-1,94,125,99,-1,99,125,126,-1,99,126,27,-1,127,128,129,-1,127,129,130,-1,130,129,131,-1,130,131,132,-1,132,131,133,-1,132,133,134,-1,134,133,135,-1,134,135,136,-1,136,135,137,-1,136,137,138,-1,138,137,139,-1,138,139,126,-1,113,140,141,-1,142,143,144,-1,114,115,145,-1,144,143,114,-1,146,114,143,-1,146,143,147,-1,147,143,142,-1,147,142,148,-1,149,114,146,-1,150,151,152,-1,152,151,145,-1,152,145,153,-1,153,145,115,-1,153,115,116,-1,149,146,154,-1,154,146,147,-1,154,147,155,-1,155,147,148,-1,155,148,156,-1,157,150,158,-1,158,150,152,-1,158,152,159,-1,159,152,153,-1,159,153,160,-1,160,153,116,-1,160,116,117,-1,161,157,162,-1,162,157,158,-1,162,158,163,-1,163,158,159,-1,163,159,164,-1,164,159,160,-1,164,160,165,-1,165,160,117,-1,165,117,118,-1,140,161,141,-1,141,161,162,-1,141,162,166,-1,166,162,163,-1,166,163,167,-1,167,163,164,-1,167,164,168,-1,168,164,165,-1,168,165,169,-1,169,165,118,-1,169,118,119,-1,113,141,111,-1,111,141,166,-1,111,166,109,-1,109,166,167,-1,109,167,107,-1,107,167,168,-1,107,168,105,-1,105,168,169,-1,105,169,103,-1,103,169,119,-1,103,119,100,-1,151,114,145,-1,140,156,161,-1,161,156,148,-1,161,148,157,-1,157,148,142,-1,157,142,150,-1,150,142,144,-1,150,144,151,-1,151,144,114,-1,126,125,170,-1,171,172,173,-1,120,174,175,-1,173,172,120,-1,176,120,172,-1,176,172,177,-1,177,172,171,-1,177,171,178,-1,121,120,176,-1,179,180,181,-1,181,180,175,-1,181,175,182,-1,182,175,174,-1,182,174,183,-1,121,176,122,-1,122,176,177,-1,122,177,123,-1,123,177,178,-1,123,178,124,-1,184,179,185,-1,185,179,181,-1,185,181,186,-1,186,181,182,-1,186,182,187,-1,187,182,183,-1,187,183,188,-1,189,184,190,-1,190,184,185,-1,190,185,191,-1,191,185,186,-1,191,186,192,-1,192,186,187,-1,192,187,193,-1,193,187,188,-1,193,188,194,-1,125,189,170,-1,170,189,190,-1,170,190,195,-1,195,190,191,-1,195,191,196,-1,196,191,192,-1,196,192,197,-1,197,192,193,-1,197,193,198,-1,198,193,194,-1,198,194,199,-1,126,170,138,-1,138,170,195,-1,138,195,136,-1,136,195,196,-1,136,196,134,-1,134,196,197,-1,134,197,132,-1,132,197,198,-1,132,198,130,-1,130,198,199,-1,130,199,127,-1,180,120,175,-1,125,124,189,-1,189,124,178,-1,189,178,184,-1,184,178,171,-1,184,171,179,-1,179,171,173,-1,179,173,180,-1,180,173,120,-1,120,114,149,-1,120,149,174,-1,174,149,154,-1,174,154,183,-1,183,154,155,-1,183,155,188,-1,188,155,156,-1,188,156,194,-1,194,156,140,-1,194,140,199,-1,199,140,113,-1,199,113,127,-1,
        ]
    }
}
Shape{
    appearance Appearance {
        material  Material 	{
            diffuseColor 0.4392156862745098 0.4392156862745098 0.4392156862745098
            specularColor 0.2196078431372549 0.2196078431372549 0.2196078431372549
            ambientIntensity 0.2
            transparency 0
            shininess 0.5
        }
    }
    geometry IndexedFaceSet {
        ccw TRUE
        solid FALSE
        coord DEF co Coordinate {
            point [
                -1.0942 -1.7214 1.2165, -1.0907 -1.6933 1.2205, -1.0907 -1.6933 1.2165, -1.0936 -1.6676 1.2205, -1.0936 -1.6676 1.2165, -1.104 -1.6387 1.2205, -1.104 -1.6387 1.2165, -1.1199 -1.6146 1.2205, -1.1199 -1.6146 1.2165, -1.1406 -1.5954 1.2205, -1.1406 -1.5954 1.2165, -1.1679 -1.5807 1.2205, -1.1679 -1.5807 1.2165, -1.1972 -1.5733 1.2205, -1.1972 -1.5733 1.2165, -1.2267 -1.5731 1.2205, -1.2267 -1.5731 1.2165, -1.253 -1.5795 1.2205, -1.253 -1.5795 1.2165, -1.2805 -1.5938 1.2205, -1.2805 -1.5938 1.2165, -1.3024 -1.6131 1.2205, -1.3024 -1.6131 1.2165, -1.3189 -1.6367 1.2205, -1.3189 -1.6367 1.2165, -1.3288 -1.6621 1.2205, -1.3288 -1.6621 1.2165, -1.3327 -1.6928 1.2205, -1.3327 -1.6928 1.2165, -1.3327 -1.6935 1.2205, -1.3327 -1.6935 1.2165, -1.3293 -1.7223 1.2205, -1.3293 -1.7223 1.2165, -1.3189 -1.75 1.2205, -1.3189 -1.75 1.2165, -1.3008 -1.7752 1.2205, -1.3008 -1.7752 1.2165, -1.277 -1.7952 1.2205, -1.277 -1.7952 1.2165, -1.2513 -1.8077 1.2205, -1.2513 -1.8077 1.2165, -1.2249 -1.8137 1.2205, -1.2249 -1.8137 1.2165, -1.1944 -1.8129 1.2205, -1.1944 -1.8129 1.2165, -1.1657 -1.8051 1.2205, -1.1657 -1.8051 1.2165, -1.1407 -1.7913 1.2205, -1.1407 -1.7913 1.2165, -1.122 -1.7743 1.2205, -1.122 -1.7743 1.2165, -1.1045 -1.7488 1.2205, -1.1045 -1.7488 1.2165, -1.0942 -1.7214 1.2205, -1.0942 -1.7214 1.2205
            ]
        }
        coordIndex [
            0,1,2,-1,2,1,3,-1,2,3,4,-1,4,3,5,-1,4,5,6,-1,6,5,7,-1,6,7,8,-1,8,7,9,-1,8,9,10,-1,10,9,11,-1,10,11,12,-1,12,11,13,-1,12,13,14,-1,14,13,15,-1,14,15,16,-1,16,15,17,-1,16,17,18,-1,18,17,19,-1,18,19,20,-1,20,19,21,-1,20,21,22,-1,22,21,23,-1,22,23,24,-1,24,23,25,-1,24,25,26,-1,26,25,27,-1,26,27,28,-1,28,27,29,-1,28,29,30,-1,30,29,31,-1,30,31,32,-1,32,31,33,-1,32,33,34,-1,34,33,35,-1,34,35,36,-1,36,35,37,-1,36,37,38,-1,38,37,39,-1,38,39,40,-1,40,39,41,-1,40,41,42,-1,42,41,43,-1,42,43,44,-1,44,43,45,-1,44,45,46,-1,46,45,47,-1,46,47,48,-1,48,47,49,-1,48,49,50,-1,50,49,51,-1,50,51,52,-1,52,51,53,-1,52,53,0,-1,0,53,1,-1,2,4,30,-1,30,48,50,-1,24,4,22,-1,22,4,6,-1,24,26,4,-1,4,26,28,-1,4,28,30,-1,42,44,30,-1,30,44,46,-1,30,46,48,-1,34,36,32,-1,32,36,38,-1,32,38,30,-1,30,38,40,-1,30,40,42,-1,50,52,30,-1,30,52,0,-1,30,0,2,-1,6,8,22,-1,22,8,10,-1,22,10,12,-1,12,14,22,-1,22,14,16,-1,22,16,20,-1,20,16,18,-1,
        ]
    }
}
Shape{
    appearance Appearance {
        material  Material 	{
            diffuseColor 1.0 1.0 1.0
            specularColor 0.5019607843137255 0.5019607843137255 0.5019607843137255
            ambientIntensity 0.2
            transparency 0
            shininess 0.5
        }
    }
    geometry IndexedFaceSet {
        ccw TRUE
        solid FALSE
        coord DEF co Coordinate {
            point [
                -0.658 -0.0673 0.4331, -0.658 -0.0673 0.437, -0.6205 -0.1777 0.4331, -0.6205 -0.1777 0.437, -0.8207 -0.0673 0.4331, -0.8207 -0.0673 0.437, -0.8605 -0.1777 0.4331, -0.8605 -0.1777 0.437, -0.9181 -0.1777 0.4331, -0.9181 -0.1777 0.437, -0.7645 0.216 0.4331, -0.7645 0.216 0.437, -0.7117 0.216 0.4331, -0.7117 0.216 0.437, -0.5628 -0.1777 0.4331, -0.5628 -0.1777 0.437, -0.6713 -0.0241 0.437, -0.7301 0.1404 0.437, -0.7403 0.1543 0.437, -0.7364 0.168 0.437, -0.7339 0.154 0.437, -0.803 -0.0241 0.437, -0.7437 0.1404 0.437, -0.6713 -0.0241 0.4331, -0.7301 0.1404 0.4331, -0.803 -0.0241 0.4331, -0.7437 0.1404 0.4331, -0.7364 0.168 0.4331, -0.7403 0.1543 0.4331, -0.7339 0.154 0.4331, -0.468 0.0762 0.437, -0.5103 0.1209 0.437, -0.4521 0.1153 0.437, -0.4905 0.1499 0.437, -0.4377 0.1353 0.437, -0.4598 0.1774 0.437, -0.4233 0.1474 0.437, -0.4033 0.1575 0.437, -0.4226 0.1974 0.437, -0.374 0.1657 0.437, -0.367 0.2113 0.437, -0.328 0.1728 0.437, -0.3283 0.216 0.437, -0.27 0.1728 0.437, -0.2172 0.216 0.437, -0.27 -0.1345 0.437, -0.2172 -0.1777 0.437, -0.3259 -0.1345 0.437, -0.3242 -0.1777 0.437, -0.3811 -0.1211 0.437, -0.3839 -0.1693 0.437, -0.4215 -0.1049 0.437, -0.4287 -0.1551 0.437, -0.4422 -0.0901 0.437, -0.4639 -0.1335 0.437, -0.455 -0.0751 0.437, -0.4947 -0.1024 0.437, -0.4653 -0.0545 0.437, -0.5133 -0.0709 0.437, -0.4739 -0.0244 0.437, -0.5273 -0.0234 0.437, -0.4812 0.023 0.437, -0.534 0.0241 0.437, -0.525 0.0795 0.437, -0.2172 -0.1777 0.4331, -0.2172 0.216 0.4331, -0.3242 -0.1777 0.4331, -0.3839 -0.1693 0.4331, -0.4287 -0.1551 0.4331, -0.4639 -0.1335 0.4331, -0.4947 -0.1024 0.4331, -0.5133 -0.0709 0.4331, -0.5273 -0.0234 0.4331, -0.534 0.0241 0.4331, -0.525 0.0795 0.4331, -0.5103 0.1209 0.4331, -0.4905 0.1499 0.4331, -0.4598 0.1774 0.4331, -0.4226 0.1974 0.4331, -0.367 0.2113 0.4331, -0.3283 0.216 0.4331, -0.328 0.1728 0.4331, -0.374 0.1657 0.4331, -0.4033 0.1575 0.4331, -0.4233 0.1474 0.4331, -0.4377 0.1353 0.4331, -0.4521 0.1153 0.4331, -0.468 0.0762 0.4331, -0.4812 0.023 0.4331, -0.27 0.1728 0.4331, -0.27 -0.1345 0.4331, -0.3259 -0.1345 0.4331, -0.4739 -0.0244 0.4331, -0.4653 -0.0545 0.4331, -0.455 -0.0751 0.4331, -0.4422 -0.0901 0.4331, -0.4215 -0.1049 0.4331, -0.3811 -0.1211 0.4331, -0.1211 0.0432 0.4331, -0.1211 0.0432 0.437, -0.1211 -0.0001 0.4331, -0.1211 -0.0001 0.437, 0.0181 0.0432 0.4331, 0.0181 0.0432 0.437, 0.0181 0.1728 0.4331, 0.0181 0.1728 0.437, -0.1307 0.1728 0.4331, -0.1307 0.1728 0.437, -0.1307 0.216 0.4331, -0.1307 0.216 0.437, 0.0709 0.216 0.4331, 0.0709 0.216 0.437, 0.0709 -0.1777 0.4331, 0.0709 -0.1777 0.437, -0.1403 -0.1777 0.4331, -0.1403 -0.1777 0.437, -0.1403 -0.1345 0.4331, -0.1403 -0.1345 0.437, 0.0181 -0.1345 0.4331, 0.0181 -0.1345 0.437, 0.0181 -0.0001 0.4331, 0.0181 -0.0001 0.437, 0.2399 0.1776 0.437, 0.2399 0.1776 0.4331, 0.1922 0.1714 0.4331, 0.1922 0.1714 0.437, 0.1477 0.1524 0.4331, 0.1477 0.1524 0.437, 0.1477 0.2052 0.4331, 0.1477 0.2052 0.437, 0.1932 0.2176 0.4331, 0.1932 0.2176 0.437, 0.2404 0.2208 0.4331, 0.2404 0.2208 0.437, 0.2983 0.2112 0.4331, 0.2983 0.2112 0.437, 0.3412 0.1961 0.4331, 0.3412 0.1961 0.437, 0.3731 0.1747 0.4331, 0.3731 0.1747 0.437, 0.3996 0.1465 0.4331, 0.3996 0.1465 0.437, 0.4211 0.1089 0.4331, 0.4211 0.1089 0.437, 0.435 0.057 0.4331, 0.435 0.057 0.437, 0.4406 0.0117 0.4331, 0.4406 0.0117 0.437, 0.2561 -0.1825 0.4331, 0.2561 -0.1825 0.437, 0.2736 -0.1801 0.4331, 0.2975 -0.1768 0.437, 0.2975 -0.1768 0.4331, 0.3419 -0.1643 0.437, 0.3419 -0.1643 0.4331, 0.3706 -0.1477 0.437, 0.3706 -0.1477 0.4331, 0.3993 -0.1199 0.437, 0.3993 -0.1199 0.4331, 0.4196 -0.0876 0.437, 0.4196 -0.0876 0.4331, 0.4331 -0.0455 0.437, 0.4331 -0.0455 0.4331, 0.1477 -0.1573 0.4331, 0.1477 -0.1573 0.437, 0.2004 -0.1769 0.437, 0.2321 -0.1801 0.4331, 0.2004 -0.1769 0.4331, 0.1477 -0.1141 0.4331, 0.1477 -0.1141 0.437, 0.1964 -0.1335 0.4331, 0.1964 -0.1335 0.437, 0.2488 -0.1393 0.4331, 0.2488 -0.1393 0.437, 0.2929 -0.129 0.4331, 0.2929 -0.129 0.437, 0.3206 -0.1188 0.4331, 0.3206 -0.1188 0.437, 0.3392 -0.1073 0.4331, 0.3392 -0.1073 0.437, 0.3514 -0.0954 0.4331, 0.3514 -0.0954 0.437, 0.3646 -0.0743 0.4331, 0.3646 -0.0743 0.437, 0.3786 -0.0328 0.4331, 0.3786 -0.0328 0.437, 0.3878 0.015 0.4331, 0.3878 0.015 0.437, 0.3808 0.0632 0.4331, 0.3808 0.0632 0.437, 0.3723 0.0937 0.4331, 0.3723 0.0937 0.437, 0.3617 0.1145 0.4331, 0.3617 0.1145 0.437, 0.3478 0.1306 0.4331, 0.3478 0.1306 0.437, 0.3241 0.1473 0.4331, 0.3241 0.1473 0.437, 0.2595 0.172 0.4331, 0.2595 0.172 0.437, 0.6759 -0.1777 0.4331, 0.6759 -0.1777 0.437, 0.6759 0.216 0.4331, 0.6759 0.216 0.437, 0.4742 -0.1777 0.4331, 0.4742 -0.1777 0.437, 0.4742 -0.1345 0.4331, 0.4742 -0.1345 0.437, 0.6231 -0.1345 0.4331, 0.6231 -0.1345 0.437, 0.6231 0.216 0.4331, 0.6231 0.216 0.437, 0.6231 0.216 0.437
            ]
        }
        coordIndex [
            0,1,2,-1,2,1,3,-1,4,5,0,-1,0,5,1,-1,6,7,4,-1,4,7,5,-1,8,9,6,-1,6,9,7,-1,10,11,8,-1,8,11,9,-1,12,13,10,-1,10,13,11,-1,14,15,12,-1,12,15,13,-1,14,2,15,-1,15,2,3,-1,16,17,13,-1,15,3,1,-1,18,11,19,-1,19,11,13,-1,19,13,20,-1,20,13,17,-1,13,15,16,-1,16,15,1,-1,16,1,21,-1,21,1,5,-1,18,22,11,-1,11,22,21,-1,11,21,9,-1,9,21,5,-1,9,5,7,-1,16,23,17,-1,17,23,24,-1,21,25,16,-1,16,25,23,-1,22,26,21,-1,21,26,25,-1,19,27,28,-1,19,28,18,-1,18,28,26,-1,18,26,22,-1,17,24,29,-1,17,29,20,-1,20,29,27,-1,20,27,19,-1,30,31,32,-1,32,31,33,-1,32,33,34,-1,34,33,35,-1,34,35,36,-1,36,35,37,-1,37,35,38,-1,37,38,39,-1,39,38,40,-1,39,40,41,-1,41,40,42,-1,41,42,43,-1,43,42,44,-1,43,44,45,-1,45,44,46,-1,45,46,47,-1,47,46,48,-1,47,48,49,-1,49,48,50,-1,49,50,51,-1,51,50,52,-1,51,52,53,-1,53,52,54,-1,53,54,55,-1,55,54,56,-1,55,56,57,-1,57,56,58,-1,57,58,59,-1,59,58,60,-1,59,60,61,-1,61,60,62,-1,61,62,30,-1,30,62,63,-1,30,63,31,-1,64,46,65,-1,65,46,44,-1,66,48,64,-1,64,48,46,-1,48,66,67,-1,48,67,50,-1,50,67,68,-1,50,68,52,-1,52,68,69,-1,52,69,54,-1,54,69,70,-1,54,70,56,-1,56,70,71,-1,56,71,58,-1,58,71,72,-1,58,72,60,-1,60,72,73,-1,60,73,62,-1,62,73,74,-1,62,74,63,-1,63,74,75,-1,63,75,31,-1,31,75,76,-1,31,76,33,-1,33,76,77,-1,33,77,35,-1,35,77,78,-1,35,78,38,-1,38,78,79,-1,38,79,40,-1,40,79,80,-1,40,80,42,-1,80,65,42,-1,42,65,44,-1,41,81,82,-1,41,82,39,-1,39,82,83,-1,39,83,37,-1,37,83,84,-1,37,84,36,-1,36,84,85,-1,36,85,34,-1,34,85,86,-1,34,86,32,-1,32,86,87,-1,32,87,30,-1,30,87,88,-1,30,88,61,-1,43,89,41,-1,41,89,81,-1,45,90,43,-1,43,90,89,-1,47,91,45,-1,45,91,90,-1,61,88,92,-1,61,92,59,-1,59,92,93,-1,59,93,57,-1,57,93,94,-1,57,94,55,-1,55,94,95,-1,55,95,53,-1,53,95,96,-1,53,96,51,-1,51,96,97,-1,51,97,49,-1,49,97,91,-1,49,91,47,-1,98,99,100,-1,100,99,101,-1,102,103,98,-1,98,103,99,-1,104,105,102,-1,102,105,103,-1,106,107,104,-1,104,107,105,-1,108,109,106,-1,106,109,107,-1,110,111,108,-1,108,111,109,-1,112,113,110,-1,110,113,111,-1,114,115,112,-1,112,115,113,-1,116,117,114,-1,114,117,115,-1,118,119,116,-1,116,119,117,-1,120,121,118,-1,118,121,119,-1,120,100,121,-1,121,100,101,-1,115,117,113,-1,113,117,119,-1,101,99,121,-1,121,99,103,-1,107,109,105,-1,105,109,111,-1,105,111,103,-1,103,111,113,-1,103,113,121,-1,121,113,119,-1,122,123,124,-1,122,124,125,-1,125,124,126,-1,125,126,127,-1,128,129,126,-1,126,129,127,-1,129,128,130,-1,129,130,131,-1,131,130,132,-1,131,132,133,-1,133,132,134,-1,133,134,135,-1,135,134,136,-1,135,136,137,-1,137,136,138,-1,137,138,139,-1,139,138,140,-1,139,140,141,-1,141,140,142,-1,141,142,143,-1,143,142,144,-1,143,144,145,-1,145,144,146,-1,145,146,147,-1,148,149,150,-1,150,149,151,-1,150,151,152,-1,152,151,153,-1,152,153,154,-1,154,153,155,-1,154,155,156,-1,156,155,157,-1,156,157,158,-1,158,157,159,-1,158,159,160,-1,160,159,161,-1,160,161,162,-1,162,161,147,-1,162,147,146,-1,163,164,165,-1,149,148,166,-1,149,166,165,-1,165,166,167,-1,165,167,163,-1,168,169,163,-1,163,169,164,-1,169,168,170,-1,169,170,171,-1,171,170,172,-1,171,172,173,-1,173,172,174,-1,173,174,175,-1,175,174,176,-1,175,176,177,-1,177,176,178,-1,177,178,179,-1,179,178,180,-1,179,180,181,-1,181,180,182,-1,181,182,183,-1,183,182,184,-1,183,184,185,-1,185,184,186,-1,185,186,187,-1,187,186,188,-1,187,188,189,-1,189,188,190,-1,189,190,191,-1,191,190,192,-1,191,192,193,-1,193,192,194,-1,193,194,195,-1,195,194,196,-1,195,196,197,-1,197,196,198,-1,197,198,199,-1,199,198,123,-1,199,123,122,-1,127,129,125,-1,125,129,131,-1,125,131,122,-1,122,131,133,-1,122,133,199,-1,199,133,135,-1,199,135,197,-1,197,135,137,-1,197,137,195,-1,195,137,139,-1,195,139,193,-1,193,139,141,-1,193,141,191,-1,191,141,143,-1,191,143,189,-1,189,143,145,-1,189,145,187,-1,187,145,147,-1,187,147,185,-1,185,147,161,-1,185,161,183,-1,183,161,159,-1,183,159,181,-1,181,159,157,-1,181,157,179,-1,179,157,155,-1,179,155,177,-1,177,155,153,-1,177,153,175,-1,175,153,151,-1,175,151,173,-1,173,151,149,-1,173,149,171,-1,171,149,165,-1,171,165,169,-1,169,165,164,-1,200,201,202,-1,202,201,203,-1,204,205,200,-1,200,205,201,-1,206,207,204,-1,204,207,205,-1,208,209,206,-1,206,209,207,-1,210,211,208,-1,208,211,209,-1,210,202,211,-1,211,202,203,-1,211,203,209,-1,209,203,201,-1,209,201,207,-1,207,201,205,-1,
        ]
    }
}
Shape{
    appearance Appearance {
        material  Material 	{
            diffuseColor 0.2235294117647059 0.2235294117647059 0.2235294117647059
            specularColor 0.11372549019607843 0.11372549019607843 0.11372549019607843
            ambientIntensity 0.2
            transparency 0
            shininess 0.5
        }
    }
    geometry IndexedFaceSet {
        ccw TRUE
        solid FALSE
        coord DEF co Coordinate {
            point [
                -0.6713 -0.0241 0.4331, -0.803 -0.0241 0.4331, -0.7301 0.1404 0.4331, -0.7437 0.1404 0.4331, -0.7339 0.154 0.4331, -0.7403 0.1543 0.4331, -0.7364 0.168 0.4331, -0.328 0.1728 0.4331, -0.27 0.1728 0.4331, -0.4739 -0.0244 0.4331, -0.4653 -0.0545 0.4331, -0.4033 0.1575 0.4331, -0.374 0.1657 0.4331, -0.468 0.0762 0.4331, -0.4812 0.023 0.4331, -0.27 -0.1345 0.4331, -0.3259 -0.1345 0.4331, -0.3811 -0.1211 0.4331, -0.4215 -0.1049 0.4331, -0.4422 -0.0901 0.4331, -0.455 -0.0751 0.4331, -0.4233 0.1474 0.4331, -0.4521 0.1153 0.4331, -0.4377 0.1353 0.4331, -0.4377 0.1353 0.4331
            ]
        }
        coordIndex [
            0,1,2,-1,2,1,3,-1,2,3,4,-1,4,3,5,-1,4,5,6,-1,7,8,9,-1,9,8,10,-1,11,12,13,-1,7,9,12,-1,12,9,14,-1,12,14,13,-1,15,16,8,-1,8,16,17,-1,8,17,18,-1,18,19,8,-1,8,19,20,-1,8,20,10,-1,11,13,21,-1,21,13,22,-1,21,22,23,-1,
        ]
    }
}